SplineFontDB: 3.2
FontName: Untitled2
FullName: Untitled2
FamilyName: Untitled2
Weight: Regular
Copyright: Copyright (c) 2024, Darren Embry
UComments: "2024-10-17: Created with FontForge (http://fontforge.org)"
Version: 001.000
ItalicAngle: 0
UnderlinePosition: -300
UnderlineWidth: 96
Ascent: 1344
Descent: 336
InvalidEm: 0
LayerCount: 2
Layer: 0 0 "Back" 1
Layer: 1 0 "Fore" 0
XUID: [1021 323 -1642646731 12193472]
OS2Version: 0
OS2_WeightWidthSlopeOnly: 0
OS2_UseTypoMetrics: 1
CreationTime: 1729142792
ModificationTime: 1729557973
OS2TypoAscent: 0
OS2TypoAOffset: 1
OS2TypoDescent: 0
OS2TypoDOffset: 1
OS2TypoLinegap: 0
OS2WinAscent: 0
OS2WinAOffset: 1
OS2WinDescent: 0
OS2WinDOffset: 1
HheadAscent: 0
HheadAOffset: 1
HheadDescent: 0
HheadDOffset: 1
OS2Vendor: 'PfEd'
MarkAttachClasses: 1
DEI: 91125
Encoding: UnicodeBmp
UnicodeInterp: none
NameList: AGL For New Fonts
DisplaySize: -48
AntiAlias: 1
FitToEm: 0
WinInfo: 9415 35 11
BeginPrivate: 0
EndPrivate
BeginChars: 65568 313

StartChar: parenleft
Encoding: 40 40 0
Width: 1008
VWidth: 4000
Flags: HW
LayerCount: 2
Fore
SplineSet
636.431640625 1049.59082031 m 2
 653.233398438 1081.32617188 630.12890625 1120 593.98046875 1120 c 0
 575.580078125 1120 559.583984375 1109.62402344 551.529296875 1094.40917969 c 0
 548.129882812 1087.98828125 365.98046875 742.27734375 365.98046875 392 c 0
 365.98046875 233.330078125 402.896484375 77.951171875 443.391601562 -46.34765625 c 0
 494.013671875 -201.729492188 550.666015625 -308.778320312 551.529296875 -310.409179688 c 0
 559.583984375 -325.624023438 575.580078125 -336 593.98046875 -336 c 0
 630.12890625 -336 653.233398438 -297.326171875 636.431640625 -265.590820312 c 2
 636.431640625 -265.590820312 461.98046875 65.7880859375 461.98046875 392 c 0
 461.98046875 718.211914062 636.431640625 1049.59082031 636.431640625 1049.59082031 c 2
EndSplineSet
EndChar

StartChar: eight
Encoding: 56 56 2
Width: 1008
VWidth: 4000
Flags: HW
LayerCount: 2
Fore
SplineSet
504 1076 m 0
 296.928710938 1076 136 945.788085938 136 788 c 0
 136 690.878542786 196.971855009 604.200396345 292.150454241 551.907801139 c 1
 173.469807409 497.7788292 96 399.347426031 96 288 c 0
 96 119.157226562 274.135742188 -20 504 -20 c 0
 733.853515625 -20 912 119.149414062 912 288 c 0
 912 399.343723129 834.532847736 497.777882171 715.849684875 551.908121942 c 1
 811.026514664 604.199577229 872 690.875688758 872 788 c 0
 872 945.78125 711.080078125 1076 504 1076 c 0
504 76 m 0
 335.203125 76 192 171.233398438 192 288 c 0
 192 404.754882812 335.185546875 500 504 500 c 0
 672.796875 500 816 404.766601562 816 288 c 0
 816 171.245117188 672.814453125 76 504 76 c 0
504 596 m 0
 356.854492188 596 232 682.016601562 232 788 c 0
 232 893.98046875 356.850585938 980 504 980 c 0
 651.145507812 980 776 893.983398438 776 788 c 0
 776 682.01953125 651.149414062 596 504 596 c 0
EndSplineSet
EndChar

StartChar: at
Encoding: 64 64 3
Width: 1008
VWidth: 4000
Flags: HW
LayerCount: 2
Fore
SplineSet
63.060546875 365.232421875 m 0
 63.060546875 52.6455078125 267.912109375 -194.890625 510.236328125 -194.890625 c 0
 740.557617188 -194.890625 831.502929688 -53.4033203125 849.423828125 -6.98046875 c 0
 861.481445312 24.2529296875 838.369140625 58.28125 804.626953125 58.28125 c 0
 784.21875 58.28125 766.767578125 45.5166015625 759.829101562 27.54296875 c 1
 760.1640625 28.4052734375 744.879882812 -9.1259765625 700.169921875 -43.115234375 c 0
 662.880859375 -71.462890625 604.180664062 -98.890625 510.236328125 -98.890625 c 0
 320.193359375 -98.890625 159.060546875 110.3515625 159.060546875 365.232421875 c 0
 159.060546875 676.895507812 328.966796875 910.328125 532.689453125 910.328125 c 0
 650.966796875 910.328125 736.395507812 865.185546875 789.219726562 774.977539062 c 0
 828.984375 707.07421875 848.939453125 614.333984375 848.939453125 509.25 c 0
 848.939453125 502.513671875 848.192382812 382.139648438 795.401367188 275.890625 c 0
 785.627929688 256.21875 753.633789062 198 717.298828125 198 c 0
 709.943359375 198 686.548828125 198 677.728515625 210.869140625 c 0
 673.033203125 217.71875 663.859375 239.416992188 674.501953125 297.407226562 c 2
 764.086914062 688.103515625 l 2
 770.963867188 718.099609375 748.138671875 746.859375 717.298828125 746.859375 c 0
 694.502929688 746.859375 675.399414062 730.935546875 670.509765625 709.615234375 c 0
 580.477539062 316.963867188 580.477539062 316.963867188 580.294921875 315.991210938 c 0
 565.865234375 238.416992188 575.59375 190.09375 598.486328125 156.69140625 c 0
 616.0546875 131.057617188 650.6640625 102 717.298828125 102 c 0
 872.153320312 102 944.939453125 359.767578125 944.939453125 509.25 c 0
 944.939453125 625.916015625 923.747070312 735.228515625 872.122070312 823.385742188 c 0
 827.095703125 900.276367188 731.197265625 1006.328125 532.689453125 1006.328125 c 0
 277.907226562 1006.328125 63.060546875 738.76953125 63.060546875 365.232421875 c 0
545.158203125 673.3125 m 0
 594.018554688 673.3125 636.625976562 620.734375 636.625976562 575.23046875 c 0
 636.625976562 574.671875 633.298828125 547.500976562 633.298828125 547.21875 c 0
 633.298828125 520.7265625 654.806640625 499.21875 681.298828125 499.21875 c 0
 703.852539062 499.21875 722.794921875 514.807617188 727.927734375 535.790039062 c 0
 755.1796875 647.192382812 660.982421875 769.3125 545.158203125 769.3125 c 0
 388.875976562 769.3125 262.642578125 550.4140625 262.642578125 327.125 c 0
 262.642578125 177.280273438 341.512695312 82.046875 440.376953125 82.046875 c 0
 477.372070312 82.046875 614.049804688 88.0703125 673.6015625 293.819335938 c 0
 682.446289062 324.379882812 659.470703125 355.171875 627.486328125 355.171875 c 0
 605.626953125 355.171875 587.161132812 340.528320312 581.370117188 320.524414062 c 0
 568.752929688 276.930664062 544.240234375 219.201171875 499.220703125 193.060546875 c 0
 482.987304688 183.634765625 464.291015625 178.046875 440.376953125 178.046875 c 0
 390.806640625 178.046875 358.642578125 246.508789062 358.642578125 327.125 c 0
 358.642578125 510.90234375 459.6171875 673.3125 545.158203125 673.3125 c 0
EndSplineSet
EndChar

StartChar: H
Encoding: 72 72 4
Width: 1008
VWidth: 4000
Flags: HW
LayerCount: 2
Fore
SplineSet
692 96 m 2
 665.5078125 96 644 74.4921875 644 48 c 0
 644 21.5078125 665.5078125 0 692 0 c 2
 876 0 l 2
 902.4921875 0 924 21.5078125 924 48 c 0
 924 74.4921875 902.4921875 96 876 96 c 2
 832 96 l 1
 832 960 l 1
 876 960 l 2
 902.4921875 960 924 981.5078125 924 1008 c 0
 924 1034.4921875 902.4921875 1056 876 1056 c 2
 784 1056 l 1
 692 1056 l 2
 665.5078125 1056 644 1034.4921875 644 1008 c 0
 644 981.5078125 665.5078125 960 692 960 c 2
 736 960 l 1
 736 596 l 1
 272 596 l 1
 272 960 l 1
 316 960 l 2
 342.4921875 960 364 981.5078125 364 1008 c 0
 364 1034.4921875 342.4921875 1056 316 1056 c 2
 224 1056 l 1
 132 1056 l 2
 105.5078125 1056 84 1034.4921875 84 1008 c 0
 84 981.5078125 105.5078125 960 132 960 c 2
 176 960 l 1
 176 96 l 1
 132 96 l 2
 105.5078125 96 84 74.4921875 84 48 c 0
 84 21.5078125 105.5078125 0 132 0 c 2
 316 0 l 2
 342.4921875 0 364 21.5078125 364 48 c 0
 364 74.4921875 342.4921875 96 316 96 c 2
 272 96 l 1
 272 500 l 1
 736 500 l 1
 736 96 l 1
 692 96 l 2
EndSplineSet
EndChar

StartChar: O
Encoding: 79 79 5
Width: 1008
VWidth: 4000
Flags: HW
LayerCount: 2
Fore
SplineSet
504 1076 m 4
 298.434570312 1076 136 831.864257812 136 528 c 0
 136 224.15625 298.420898438 -20 504 -20 c 0
 709.565429688 -20 872 224.135742188 872 528 c 0
 872 831.84375 709.579101562 1076 504 1076 c 4
504 76 m 0
 357.80859375 76 232 278.004882812 232 528 c 0
 232 777.991210938 357.806640625 980 504 980 c 0
 650.19140625 980 776 777.995117188 776 528 c 0
 776 278.008789062 650.193359375 76 504 76 c 0
EndSplineSet
EndChar

StartChar: X
Encoding: 88 88 6
Width: 1008
VWidth: 4000
Flags: HW
LayerCount: 2
Fore
SplineSet
144 1056 m 2
 117.5078125 1056 96 1034.4921875 96 1008 c 0
 96 981.5078125 117.5078125 960 144 960 c 2
 215.925476074 960 l 1
 448.925476074 545.777777777 l 1
 195.925476074 96 l 1
 104 96 l 2
 77.5078125 96 56 74.4921875 56 48 c 0
 56 21.5078125 77.5078125 0 104 0 c 2
 224 0 l 1
 364 0 l 2
 390.4921875 0 412 21.5078125 412 48 c 0
 412 74.4921875 390.4921875 96 364 96 c 2
 306.074523926 96 l 1
 504 447.86751302 l 1
 701.925476074 96 l 1
 644 96 l 2
 617.5078125 96 596 74.4921875 596 48 c 0
 596 21.5078125 617.5078125 0 644 0 c 2
 784 0 l 1
 904 0 l 2
 930.4921875 0 952 21.5078125 952 48 c 0
 952 74.4921875 930.4921875 96 904 96 c 2
 812.074523926 96 l 1
 559.074523926 545.777777777 l 1
 792.074523926 960 l 1
 864 960 l 2
 890.4921875 960 912 981.5078125 912 1008 c 0
 912 1034.4921875 890.4921875 1056 864 1056 c 2
 764 1056 l 1
 624 1056 l 2
 597.5078125 1056 576 1034.4921875 576 1008 c 0
 576 981.5078125 597.5078125 960 624 960 c 2
 681.925476075 960 l 1
 504 643.688042534 l 1
 326.074523925 960 l 1
 384 960 l 2
 410.4921875 960 432 981.5078125 432 1008 c 0
 432 1034.4921875 410.4921875 1056 384 1056 c 2
 244 1056 l 1
 144 1056 l 2
EndSplineSet
EndChar

StartChar: x
Encoding: 120 120 7
Width: 1008
VWidth: 4000
Flags: HW
LayerCount: 2
Fore
SplineSet
632 756 m 2
 605.5078125 756 584 734.4921875 584 708 c 0
 584 681.5078125 605.5078125 660 632 660 c 2
 660.333214962 660 l 1
 504 475.750139509 l 1
 347.666785038 660 l 1
 376 660 l 2
 402.4921875 660 424 681.5078125 424 708 c 0
 424 734.4921875 402.4921875 756 376 756 c 2
 172 756 l 6
 145.5078125 756 124 734.4921875 124 708 c 0
 124 681.5078125 145.5078125 660 172 660 c 2
 221.787760417 660 l 1
 441.060487689 401.571428571 l 1
 181.787760417 96 l 1
 132 96 l 2
 105.5078125 96 84 74.4921875 84 48 c 0
 84 21.5078125 105.5078125 0 132 0 c 2
 204 0 l 1
 356 0 l 2
 382.4921875 0 404 21.5078125 404 48 c 0
 404 74.4921875 382.4921875 96 356 96 c 2
 307.666785038 96 l 1
 504 327.392717634 l 1
 700.333214962 96 l 1
 652 96 l 2
 625.5078125 96 604 74.4921875 604 48 c 0
 604 21.5078125 625.5078125 0 652 0 c 2
 876 0 l 2
 902.4921875 0 924 21.5078125 924 48 c 0
 924 74.4921875 902.4921875 96 876 96 c 2
 826.212239583 96 l 1
 566.939512311 401.571428571 l 1
 786.212239583 660 l 1
 836 660 l 2
 862.4921875 660 884 681.5078125 884 708 c 0
 884 734.4921875 862.4921875 756 836 756 c 2
 764 756 l 1
 632 756 l 2
EndSplineSet
EndChar

StartChar: one
Encoding: 49 49 8
Width: 1008
VWidth: 4000
Flags: HW
LayerCount: 2
Fore
SplineSet
224 96 m 2
 197.5078125 96 176 74.4921875 176 48 c 0
 176 21.5078125 197.5078125 0 224 0 c 2
 504 0 l 1
 784 0 l 2
 810.4921875 0 832 21.5078125 832 48 c 0
 832 74.4921875 810.4921875 96 784 96 c 2
 552 96 l 1
 552 1008 l 2
 552 1034.4921875 530.4921875 1056 504 1056 c 2
 268 1056 l 2
 241.5078125 1056 220 1034.4921875 220 1008 c 0
 220 981.5078125 241.5078125 960 268 960 c 2
 456 960 l 1
 456 96 l 1
 224 96 l 2
EndSplineSet
EndChar

StartChar: l
Encoding: 108 108 9
Width: 1008
VWidth: 4000
Flags: HW
LayerCount: 2
Fore
SplineSet
224 96 m 2
 197.5078125 96 176 74.4921875 176 48 c 0
 176 21.5078125 197.5078125 0 224 0 c 2
 504 0 l 1
 784 0 l 2
 810.4921875 0 832 21.5078125 832 48 c 0
 832 74.4921875 810.4921875 96 784 96 c 2
 552 96 l 1
 552 1008 l 2
 552 1034.4921875 530.4921875 1056 504 1056 c 2
 268 1056 l 2
 241.5078125 1056 220 1034.4921875 220 1008 c 0
 220 981.5078125 241.5078125 960 268 960 c 2
 456 960 l 1
 456 96 l 1
 224 96 l 2
EndSplineSet
EndChar

StartChar: I
Encoding: 73 73 10
Width: 1008
VWidth: 4000
Flags: HW
LayerCount: 2
Fore
SplineSet
224 1056 m 2
 197.5078125 1056 176 1034.4921875 176 1008 c 0
 176 981.5078125 197.5078125 960 224 960 c 2
 456 960 l 1
 456 96 l 1
 224 96 l 2
 197.5078125 96 176 74.4921875 176 48 c 0
 176 21.5078125 197.5078125 0 224 0 c 2
 504 0 l 1
 784 0 l 2
 810.4921875 0 832 21.5078125 832 48 c 0
 832 74.4921875 810.4921875 96 784 96 c 2
 552 96 l 1
 552 960 l 1
 784 960 l 2
 810.4921875 960 832 981.5078125 832 1008 c 0
 832 1034.4921875 810.4921875 1056 784 1056 c 2
 504 1056 l 1
 224 1056 l 2
EndSplineSet
EndChar

StartChar: Y
Encoding: 89 89 11
Width: 1008
VWidth: 4000
Flags: HW
LayerCount: 2
Fore
SplineSet
664 1056 m 2
 637.5078125 1056 616 1034.4921875 616 1008 c 0
 616 981.5078125 637.5078125 960 664 960 c 2
 723.82862546 960 l 1
 504 549.65234375 l 1
 284.17137454 960 l 1
 344 960 l 2
 370.4921875 960 392 981.5078125 392 1008 c 0
 392 1034.4921875 370.4921875 1056 344 1056 c 2
 204 1056 l 1
 104 1056 l 2
 77.5078125 1056 56 1034.4921875 56 1008 c 0
 56 981.5078125 77.5078125 960 104 960 c 2
 175.257114956 960 l 1
 456 435.946614584 l 1
 456 96 l 1
 344 96 l 2
 317.5078125 96 296 74.4921875 296 48 c 0
 296 21.5078125 317.5078125 0 344 0 c 2
 504 0 l 1
 664 0 l 2
 690.4921875 0 712 21.5078125 712 48 c 0
 712 74.4921875 690.4921875 96 664 96 c 2
 552 96 l 1
 552 435.946614584 l 1
 832.742885044 960 l 1
 904 960 l 2
 930.4921875 960 952 981.5078125 952 1008 c 0
 952 1034.4921875 930.4921875 1056 904 1056 c 2
 804 1056 l 1
 664 1056 l 2
EndSplineSet
EndChar

StartChar: quotedbl
Encoding: 34 34 12
Width: 1008
VWidth: 4000
Flags: HW
LayerCount: 2
Fore
SplineSet
704 560 m 0
 728.86328125 560 749.336914062 578.9453125 751.759765625 603.174804688 c 0
 792 1005.57421875 792 1005.57421875 792 1008 c 0
 792 1034.4921875 770.4921875 1056 744 1056 c 0
 664 1056 664 1056 664 1056 c 2
 637.5078125 1056 616 1034.4921875 616 1008 c 0
 616 1005.57421875 616 1005.57421875 656.240234375 603.174804688 c 0
 658.663085938 578.9453125 679.13671875 560 704 560 c 0
304 560 m 0
 328.86328125 560 349.336914062 578.9453125 351.759765625 603.174804688 c 0
 392 1005.57421875 392 1005.57421875 392 1008 c 0
 392 1034.4921875 370.4921875 1056 344 1056 c 0
 264 1056 264 1056 264 1056 c 2
 237.5078125 1056 216 1034.4921875 216 1008 c 0
 216 1005.57421875 216 1005.57421875 256.240234375 603.174804688 c 0
 258.663085938 578.9453125 279.13671875 560 304 560 c 0
EndSplineSet
EndChar

StartChar: asterisk
Encoding: 42 42 13
Width: 1008
VWidth: 4000
Flags: HW
LayerCount: 2
Fore
SplineSet
695.599609375 963.864257812 m 2
 713.946289062 995.642578125 690.900390625 1035.8125 654 1035.8125 c 0
 636.2265625 1035.8125 620.697265625 1026.13183594 612.400390625 1011.76074219 c 2
 504 824.002232261 l 1
 395.599609375 1011.76074219 l 2
 387.302734375 1026.13183594 371.7734375 1035.8125 354 1035.8125 c 0
 317.099609375 1035.8125 294.053710938 995.641601562 312.400390625 963.864257812 c 2
 420.861833673 776 l 1
 204 776 l 2
 177.5078125 776 156 754.4921875 156 728 c 0
 156 701.5078125 177.5078125 680 204 680 c 2
 420.861833672 680 l 1
 312.400390625 492.135742188 l 2
 294.053710938 460.357421875 317.099609375 420.1875 354 420.1875 c 0
 371.7734375 420.1875 387.302734375 429.868164062 395.599609375 444.239257812 c 2
 504 631.99776774 l 1
 612.400390625 444.239257812 l 2
 620.697265625 429.868164062 636.2265625 420.1875 654 420.1875 c 0
 690.900390625 420.1875 713.946289062 460.358398438 695.599609375 492.135742188 c 2
 587.138166328 680 l 1
 804 680 l 2
 830.4921875 680 852 701.5078125 852 728 c 0
 852 754.4921875 830.4921875 776 804 776 c 2
 587.138166327 776 l 1
 695.599609375 963.864257812 l 2
EndSplineSet
EndChar

StartChar: colon
Encoding: 58 58 14
Width: 1008
VWidth: 4000
Flags: HW
LayerCount: 2
Fore
SplineSet
406 78 m 0
 406 23.8896484375 449.920898438 -20 504 -20 c 0
 558.079101562 -20 602 23.8896484375 602 78 c 0
 602 132.091796875 558.091796875 176 504 176 c 0
 449.908203125 176 406 132.091796875 406 78 c 0
406 678 m 0
 406 623.889648438 449.920898438 580 504 580 c 0
 558.079101562 580 602 623.889648438 602 678 c 0
 602 732.091796875 558.091796875 776 504 776 c 0
 449.908203125 776 406 732.091796875 406 678 c 0
EndSplineSet
EndChar

StartChar: i
Encoding: 105 105 15
Width: 1008
VWidth: 4000
Flags: HW
LayerCount: 2
Fore
SplineSet
395.984375 988 m 0
 395.984375 944.951171875 430.935546875 910 473.984375 910 c 0
 517.052734375 910 551.984375 944.973632812 551.984375 988 c 0
 551.984375 1031.02636719 517.052734375 1066 473.984375 1066 c 0
 430.935546875 1066 395.984375 1031.04882812 395.984375 988 c 0
244 96 m 2
 217.5078125 96 196 74.4921875 196 48 c 0
 196 21.5078125 217.5078125 0 244 0 c 2
 764 0 l 2
 790.4921875 0 812 21.5078125 812 48 c 0
 812 74.4921875 790.4921875 96 764 96 c 2
 552 96 l 1
 552 708 l 2
 552 734.4921875 530.4921875 756 504 756 c 2
 284 756 l 2
 257.5078125 756 236 734.4921875 236 708 c 0
 236 681.5078125 257.5078125 660 284 660 c 2
 456 660 l 1
 456 96 l 1
 244 96 l 2
EndSplineSet
EndChar

StartChar: A
Encoding: 65 65 16
Width: 1008
VWidth: 4000
Flags: HW
LayerCount: 2
Fore
SplineSet
884 0 m 2
 910.4921875 0 932 21.5078125 932 48 c 0
 932 74.4921875 910.4921875 96 884 96 c 2
 840.738993326 96 l 1
 590.336914062 1020.56152344 l 2
 584.809570312 1040.96972656 566.146484375 1056 544 1056 c 2
 464 1056 l 2
 441.853515625 1056 423.190429688 1040.96972656 417.663085938 1020.56152344 c 2
 167.261006674 96 l 1
 124 96 l 2
 97.5078125 96 76 74.4921875 76 48 c 0
 76 21.5078125 97.5078125 0 124 0 c 2
 204 0 l 1
 324 0 l 2
 327.428771278 0 330.774049164 0.360277908444 334.000010158 1.04500852514 c 0
 337.225965338 0.360278551918 340.571236378 2.15601125059e-06 344 0 c 0
 370.4921875 0 392 21.5078125 392 48 c 0
 392 74.4921875 370.4921875 96 344 96 c 0
 340.571232483 96 337.225958175 95.6397228819 334 94.954991572 c 0
 330.774041825 95.6397228819 327.428767517 96 324 96 c 2
 266.739010651 96 l 1
 325.239072441 312 l 1
 682.760927559 312 l 1
 741.260989349 96 l 1
 684 96 l 2
 657.5078125 96 636 74.4921875 636 48 c 0
 636 21.5078125 657.5078125 0 684 0 c 2
 804 0 l 1
 884 0 l 2
656.760900096 408 m 1
 351.239099904 408 l 1
 500.739257812 960 l 1
 507.260742188 960 l 1
 656.760900096 408 l 1
EndSplineSet
EndChar

StartChar: parenright
Encoding: 41 41 17
Width: 1008
VWidth: 4000
Flags: HW
LayerCount: 2
Fore
SplineSet
371.568359375 -265.590820312 m 2
 354.766601562 -297.326171875 377.87109375 -336 414.01953125 -336 c 0
 432.419921875 -336 448.416015625 -325.624023438 456.470703125 -310.409179688 c 0
 459.870117188 -303.98828125 642.01953125 41.72265625 642.01953125 392 c 0
 642.01953125 550.669921875 605.103515625 706.048828125 564.608398438 830.34765625 c 0
 513.986328125 985.729492188 457.333984375 1092.77832031 456.470703125 1094.40917969 c 0
 448.416015625 1109.62402344 432.419921875 1120 414.01953125 1120 c 0
 377.87109375 1120 354.766601562 1081.32617188 371.568359375 1049.59082031 c 2
 371.568359375 1049.59082031 546.01953125 718.211914062 546.01953125 392 c 0
 546.01953125 65.7880859375 371.568359375 -265.590820312 371.568359375 -265.590820312 c 2
EndSplineSet
EndChar

StartChar: exclam
Encoding: 33 33 18
Width: 1008
VWidth: 4000
Flags: HW
LayerCount: 2
Fore
SplineSet
406 78 m 0
 406 23.908203125 449.908203125 -20 504 -20 c 0
 558.091796875 -20 602 23.908203125 602 78 c 0
 602 132.091796875 558.091796875 176 504 176 c 0
 449.908203125 176 406 132.091796875 406 78 c 0
504 280 m 0
 529.532226562 280 550.435546875 299.978515625 551.916015625 325.142578125 c 0
 592 1006.56738281 592 1006.56738281 592 1008 c 0
 592 1034.4921875 570.4921875 1056 544 1056 c 2
 464 1056 l 2
 437.5078125 1056 416 1034.4921875 416 1008 c 0
 416 1006.56738281 416 1006.56738281 456.083984375 325.142578125 c 0
 457.564453125 299.978515625 478.467773438 280 504 280 c 0
EndSplineSet
EndChar

StartChar: P
Encoding: 80 80 19
Width: 1008
VWidth: 4000
Flags: HW
LayerCount: 2
Fore
SplineSet
168 96 m 2
 141.5078125 96 120 74.4921875 120 48 c 0
 120 21.5078125 141.5078125 0 168 0 c 2
 392 0 l 2
 418.4921875 0 440 21.5078125 440 48 c 0
 440 74.4921875 418.4921875 96 392 96 c 2
 328 96 l 1
 328 500 l 1
 610 500 l 2
 763.4296875 500 888 624.5703125 888 778 c 0
 888 931.4296875 763.4296875 1056 610 1056 c 2
 168 1056 l 2
 141.5078125 1056 120 1034.4921875 120 1008 c 0
 120 981.5078125 141.5078125 960 168 960 c 2
 232 960 l 1
 232 96 l 1
 168 96 l 2
328 596 m 1
 328 960 l 1
 610 960 l 2
 710.4453125 960 792 878.4453125 792 778 c 0
 792 677.5546875 710.4453125 596 610 596 c 2
 328 596 l 1
EndSplineSet
EndChar

StartChar: grave
Encoding: 96 96 20
Width: 1008
VWidth: 4000
Flags: HW
LayerCount: 2
Fore
SplineSet
648.319335938 575.91015625 m 2
 677.659179688 543.310546875 732.00390625 564.313476562 732.00390625 608 c 0
 732.00390625 617.0078125 729.517578125 625.438476562 725.194335938 632.64453125 c 2
 485.194335938 1032.64453125 l 2
 476.801757812 1046.63085938 461.48828125 1056 444.00390625 1056 c 2
 324.00390625 1056 l 2
 282.672851562 1056 260.625976562 1006.68066406 288.319335938 975.91015625 c 2
 648.319335938 575.91015625 l 2
EndSplineSet
EndChar

StartChar: h
Encoding: 104 104 21
Width: 1008
VWidth: 4000
Flags: HW
LayerCount: 2
Fore
SplineSet
792 522.046875 m 2
 792 672.053710938 709.213867188 780.859375 572.75 780.859375 c 0
 465.865145965 780.859375 388.234644327 738.044792123 312 667.991215626 c 1
 312 1008 l 2
 312 1034.4921875 290.4921875 1056 264 1056 c 2
 164 1056 l 2
 137.5078125 1056 116 1034.4921875 116 1008 c 0
 116 981.5078125 137.5078125 960 164 960 c 2
 216 960 l 1
 216 551.019082899 l 2
 215.989514147 550.44287908 216 549.867133003 216 549.292127685 c 2
 216 96 l 1
 164 96 l 2
 137.5078125 96 116 74.4921875 116 48 c 0
 116 21.5078125 137.5078125 0 164 0 c 2
 364 0 l 2
 390.4921875 0 412 21.5078125 412 48 c 0
 412 74.4921875 390.4921875 96 364 96 c 2
 312 96 l 1
 312 531.199890837 l 1
 419.347550867 648.308222971 482.557186907 684.859375 572.75 684.859375 c 0
 597.896484375 684.859375 653.248046875 680.706054688 681.361328125 608.16015625 c 0
 690.903320312 583.537109375 696 553.540039062 696 522.046875 c 2
 696 96 l 1
 644 96 l 2
 617.5078125 96 596 74.4921875 596 48 c 0
 596 21.5078125 617.5078125 0 644 0 c 2
 744 0 l 1
 844 0 l 2
 870.4921875 0 892 21.5078125 892 48 c 0
 892 74.4921875 870.4921875 96 844 96 c 2
 792 96 l 1
 792 522.046875 l 2
EndSplineSet
EndChar

StartChar: p
Encoding: 112 112 22
Width: 1008
VWidth: 4000
Flags: HW
LayerCount: 2
Fore
SplineSet
144.0078125 -204 m 2
 117.515625 -204 96.0078125 -225.5078125 96.0078125 -252 c 0
 96.0078125 -278.4921875 117.515625 -300 144.0078125 -300 c 2
 244.0078125 -300 l 1
 384.0078125 -300 l 2
 410.5 -300 432.0078125 -278.4921875 432.0078125 -252 c 0
 432.0078125 -225.5078125 410.5 -204 384.0078125 -204 c 2
 292.0078125 -204 l 1
 292.0078125 106.601649913 l 1
 356.588094988 29.2443901691 448.936356597 -20 553.9921875 -20 c 0
 756.647460938 -20 911.9921875 163.21875 911.9921875 378 c 0
 911.9921875 592.78125 756.647460938 776 553.9921875 776 c 0
 448.936356597 776 356.588094988 726.755609831 292.0078125 649.398350087 c 1
 292.0078125 708 l 2
 292.0078125 734.4921875 270.5 756 244.0078125 756 c 2
 144.0078125 756 l 2
 117.515625 756 96.0078125 734.4921875 96.0078125 708 c 0
 96.0078125 681.5078125 117.515625 660 144.0078125 660 c 2
 196.0078125 660 l 1
 196.0078125 381.730090789 l 2
 195.99740284 380.487806519 195.9921875 379.244433091 195.9921875 378 c 0
 195.9921875 376.755566909 195.99740284 375.512193481 196.0078125 374.269909211 c 2
 196.0078125 -204 l 1
 144.0078125 -204 l 2
292.0078125 374.637673744 m 2
 292.0078125 381.362326256 l 2
 293.590211341 551.506229649 415.138780497 680 553.9921875 680 c 0
 693.774414062 680 815.9921875 549.8125 815.9921875 378 c 0
 815.9921875 206.1875 693.774414062 76 553.9921875 76 c 0
 415.138780497 76 293.590211341 204.493770351 292.0078125 374.637673744 c 2
EndSplineSet
EndChar

StartChar: Q
Encoding: 81 81 23
Width: 1008
VWidth: 4000
Flags: HW
LayerCount: 2
Fore
SplineSet
795.03125 -209.234375 m 0
 905.977539062 -209.234375 952 -76.556640625 952 -52 c 0
 952 -25.5078125 930.4921875 -4 904 -4 c 0
 881.766601562 -4 863.04296875 -19.1494140625 857.598632812 -39.6796875 c 0
 857.357421875 -40.615234375 836.029296875 -113.234375 795.03125 -113.234375 c 0
 784.579101562 -113.234375 770.165039062 -113.234375 751.158203125 -77.82421875 c 0
 738.017578125 -53.341796875 725.040039062 -15.017578125 710.0078125 30.998046875 c 0
 706.34527599 42.2095810296 702.908956471 52.6942233204 699.657654829 62.5347392892 c 1
 803.712648333 159.069627702 872.000000009 330.979905911 872 528 c 0
 872 831.84375 709.579101562 1076 504 1076 c 0
 298.434570312 1076 136 831.864257812 136 528 c 0
 136 224.15625 298.420898438 -20 504 -20 c 0
 543.61967236 -20 581.637170608 -10.9311344185 617.198340405 5.88633410338 c 1
 617.705945308 4.33450962616 618.216629635 2.77215594162 618.73046875 1.19921875 c 0
 650.494140625 -96.0341796875 676.677734375 -176.185546875 749.85546875 -201.833984375 c 0
 764.10546875 -206.827148438 779.359375 -209.234375 795.03125 -209.234375 c 0
663.323352196 163.621166303 m 1
 656.840519032 178.954508723 650.357932686 192.332921398 643.083984375 205.346679688 c 0
 619.01953125 248.400390625 574.43359375 305.875 484 305.875 c 0
 420.122070312 305.875 372.44921875 269.759765625 341.208007812 236.63671875 c 0
 331.233881593 226.062296763 322.508655168 215.375345206 315.015480311 205.258981619 c 1
 264.228132025 287.233309582 231.999999999 401.469874339 232 528 c 0
 232 777.991210938 357.806640625 980 504 980 c 0
 650.19140625 980 776 777.995117188 776 528 c 0
 776 378.317984981 730.898256868 245.837692031 663.323352196 163.621166303 c 1
585.883872876 97.6140838025 m 1
 559.864593091 83.5777087293 532.314667573 76 504 76 c 0
 459.320239258 76 416.544369597 94.8686078038 378.682025913 128.209101334 c 1
 398.401863115 160.252692572 438.211247421 209.875 484 209.875 c 0
 532.14328477 209.875 555.201729753 180.310163905 585.883872876 97.6140838025 c 1
EndSplineSet
EndChar

StartChar: a
Encoding: 97 97 24
Width: 1008
VWidth: 4000
Flags: HW
LayerCount: 2
Fore
SplineSet
96 188 m 0
 96 77.576171875 195.504882812 -20 344 -20 c 0
 491.113377543 -20 559.261264488 30.3835268303 622.660663818 95.0660811727 c 1
 643.207833536 18.75096944 708.21641744 -20.0000000104 774.296875 -20 c 0
 848.852539062 -20 912 39.8798828125 912 128 c 0
 912 154.4921875 890.4921875 176 864 176 c 0
 837.5078125 176 816 154.4921875 816 128 c 0
 816 98.5107421875 800.612304688 76 774.296875 76 c 0
 757.471679688 76 712 82.0966796875 712 148 c 2
 712 448 l 1
 712 508 l 2
 712 599.001953125 674.39453125 674.401367188 609.834960938 721.228515625 c 0
 558.799804688 758.24609375 494.313476562 776 424 776 c 0
 345.224609375 776 240.001953125 759.951171875 174.2578125 705.80859375 c 0
 140.772460938 678.232421875 116 637.622070312 116 588 c 0
 116 544.951171875 150.951171875 510 194 510 c 0
 237.048828125 510 272 544.951171875 272 588 c 0
 272 608.983959521 263.695491113 628.043890327 250.19660998 642.069655779 c 1
 264.505771404 650.598069512 282.852911623 658.365413673 303.807617188 664.375976562 c 0
 340.241210938 674.826171875 383.552734375 680 424 680 c 0
 478.130859375 680 522.287109375 666.1484375 553.555664062 643.46875 c 0
 591.876953125 615.672851562 616 572.553710938 616 508 c 2
 616 497.705308343 l 1
 569.570179209 497.433636949 491.727225145 493.190209301 376.635742188 475.4375 c 0
 298.403320312 463.366210938 233.990234375 435.439453125 186.16796875 393.236328125 c 0
 125.9765625 340.116210938 96 266.796875 96 188 c 0
616 227.629897276 m 1
 604.67857062 215.934218007 594.206143585 204.707324818 584.317382812 194.111328125 c 0
 513.65625 118.396484375 472.829101562 76 344 76 c 0
 253.294921875 76 192 127.614257812 192 188 c 0
 192 242.536132812 211.155273438 287.272460938 249.645507812 321.241210938 c 0
 280.76953125 348.708984375 327.012695312 370.633789062 391.364257812 380.5625 c 0
 501.782089542 397.594698353 574.733944026 401.429669756 616 401.701623594 c 1
 616 227.629897276 l 1
EndSplineSet
EndChar

StartChar: q
Encoding: 113 113 25
Width: 1008
VWidth: 4000
Flags: HW
LayerCount: 2
Fore
SplineSet
604.0078125 -204 m 2
 577.515625 -204 556.0078125 -225.5078125 556.0078125 -252 c 0
 556.0078125 -278.4921875 577.515625 -300 604.0078125 -300 c 2
 744.0078125 -300 l 1
 884.0078125 -300 l 2
 910.5 -300 932.0078125 -278.4921875 932.0078125 -252 c 0
 932.0078125 -225.5078125 910.5 -204 884.0078125 -204 c 2
 792.0078125 -204 l 1
 792.0078125 708 l 2
 792.0078125 734.4921875 770.5 756 744.0078125 756 c 0
 717.515625 756 696.0078125 734.4921875 696.0078125 708 c 2
 696.0078125 649.366905289 l 1
 631.428502405 726.742061561 539.070010668 776 433.9921875 776 c 0
 231.352539062 776 75.9921875 592.783203125 75.9921875 378 c 0
 75.9921875 163.216796875 231.352539062 -20 433.9921875 -20 c 0
 539.070010668 -20 631.428502405 29.2579384388 696.0078125 106.633094711 c 1
 696.0078125 -204 l 1
 604.0078125 -204 l 2
171.9921875 378 m 0
 171.9921875 549.810546875 294.225585938 680 433.9921875 680 c 0
 573.774414062 680 695.9921875 549.8125 695.9921875 378 c 0
 695.9921875 206.1875 573.774414062 76 433.9921875 76 c 0
 294.225585938 76 171.9921875 206.189453125 171.9921875 378 c 0
EndSplineSet
EndChar

StartChar: y
Encoding: 121 121 26
Width: 1008
VWidth: 4000
Flags: HW
LayerCount: 2
Fore
SplineSet
644.0078125 756 m 2
 617.515625 756 596.0078125 734.4921875 596.0078125 708 c 0
 596.0078125 681.5078125 617.515625 660 644.0078125 660 c 2
 716.887357928 660 l 1
 533.69497331 123.484539202 l 1
 315.371055178 660 l 1
 364.0078125 660 l 2
 390.5 660 412.0078125 681.5078125 412.0078125 708 c 0
 412.0078125 734.4921875 390.5 756 364.0078125 756 c 2
 244.0078125 756 l 1
 164.0078125 756 l 2
 137.515625 756 116.0078125 734.4921875 116.0078125 708 c 0
 116.0078125 681.5078125 137.515625 660 164.0078125 660 c 2
 211.709792862 660 l 1
 486.399374834 -15.0300604231 l 1
 450.094726562 -121.35546875 l 1
 414.6953125 -210.724609375 347.53125 -224 299.8828125 -224 c 0
 279.202475325 -224 240.933533193 -220.562274836 216.226609225 -197.571732012 c 1
 237.74349459 -183.674762267 251.9921875 -159.47974515 251.9921875 -132 c 0
 251.9921875 -88.9736328125 217.060546875 -54 173.9921875 -54 c 0
 130.943359375 -54 95.9921875 -88.951171875 95.9921875 -132 c 0
 95.9921875 -132.640521378 95.999925101 -133.279250072 96.0153118078 -133.916097627 c 0
 96.9313365737 -250.744918877 181.674108784 -319.999999999 299.8828125 -320 c 0
 364.370117188 -320 483.678710938 -299.147460938 539.94140625 -155.372070312 c 1
 818.349203758 660 l 1
 844.0078125 660 l 2
 870.5 660 892.0078125 681.5078125 892.0078125 708 c 0
 892.0078125 734.4921875 870.5 756 844.0078125 756 c 2
 784.0078125 756 l 1
 644.0078125 756 l 2
EndSplineSet
EndChar

StartChar: two
Encoding: 50 50 27
Width: 1008
VWidth: 4000
Flags: HW
LayerCount: 2
Fore
SplineSet
146.611328125 798.359375 m 2
 146.611328125 755.310546875 181.5625 720.359375 224.611328125 720.359375 c 0
 267.6796875 720.359375 302.611328125 755.333007812 302.611328125 798.359375 c 0
 302.611328125 827.805746885 286.255733541 853.464815242 262.14192972 866.739194722 c 1
 299.659848266 930.597696512 388.23315345 980 501.595703125 980 c 0
 653.596679688 980 769.751953125 890.844726562 769.751953125 777.359375 c 0
 769.751953125 669.493164062 701.444335938 635.106445312 500.958984375 534.5078125 c 0
 317.2756672 442.318233822 156.742792696 307.072905166 114.671677001 58.4566185139 c 0
 113.755685609 54.3090362144 113.427642697 50.1128388696 113.637830128 45.9726562464 c 0
 114.190150344 32.7065614679 120.137417839 20.824236104 129.340954192 12.4643533325 c 0
 137.591321068 4.84831167496 148.672444815 2.29724650502e-06 161.595703125 0 c 0
 171.395513296 0 180.513502276 2.94319756554 188.113053287 7.99317833929 c 0
 192.129099784 10.661834132 195.721112007 13.9188052987 198.765625 17.640625 c 2
 198.765625 17.640625 198.774017105 17.6441850524 198.774017105 17.651263426 c 0
 198.898757524 17.8038492853 199.022577979 17.9572159624 199.145468555 18.1113560978 c 0
 202.008164128 21.6115346823 221.042704444 44.0788092721 255.935546875 66.9013671875 c 0
 285.0546875 85.9462890625 321.395507812 101.375 359.830078125 101.375 c 0
 455.295898438 101.375 532.504882812 -18.28125 661.548828125 -18.28125 c 0
 799.118164062 -18.28125 862.120117188 96.587890625 885.009765625 136.541992188 c 0
 890.435546875 146.013671875 894.423828125 152.974609375 894.423828125 165.734375 c 0
 894.423828125 192.2265625 872.916015625 213.734375 846.423828125 213.734375 c 0
 828.671875 213.734375 813.157226562 204.076171875 804.852539062 189.732421875 c 0
 777.778320312 142.96875 740.002929688 77.71875 661.548828125 77.71875 c 0
 570.185546875 77.71875 491.737304688 197.375 359.830078125 197.375 c 0
 317.526812506 197.375 279.890257806 186.639861704 247.998092768 172.018594791 c 1
 298.938019849 284.503550773 392.852538364 372.828134612 543.919921875 448.6484375 c 0
 670.376953125 512.1015625 743.92578125 549.006835938 796.006835938 601.498046875 c 0
 849.861328125 655.778320312 865.751953125 715.8984375 865.751953125 777.359375 c 0
 865.751953125 944.038085938 709.713867188 1076 501.595703125 1076 c 0
 292.84375 1076 146.611328125 944.311523438 146.611328125 798.375 c 2
 146.61132861 798.367919922 l 1
 146.611328125 798.359375 l 2
EndSplineSet
EndChar

StartChar: three
Encoding: 51 51 28
Width: 1008
VWidth: 4000
Flags: HW
LayerCount: 2
Fore
SplineSet
222 258 m 1029
474 -20 m 0
 723.1796875 -20 882 143.87890625 882 328 c 0
 882 427.92578125 846.150390625 527.454101562 756.24609375 594.146484375 c 0
 705.85546875 631.52734375 641.14453125 657.013671875 561.0078125 668.706054688 c 1
 860.295898438 974.431640625 l 2
 889.939453125 1004.71191406 868.258789062 1056 826 1056 c 2
 254 1056 l 2
 233.794921875 1056 216.489257812 1043.48925781 209.413085938 1025.79882812 c 2
 169.413085938 925.798828125 l 2
 156.889648438 894.490234375 180.012695312 860 214 860 c 0
 234.205078125 860 251.510742188 872.510742188 258.586914062 890.201171875 c 2
 286.505859375 960 l 1
 711.852539062 960 l 1
 419.704101562 661.568359375 l 2
 390.060546875 631.288085938 411.741210938 580 454 580 c 0
 547.756835938 580 786 565.04296875 786 328 c 0
 786 191.849609375 664.223632812 76 474 76 c 0
 361.301393702 76 273.841732185 119.989256633 238.740858969 188.15785491 c 1
 264.368047908 200.942030881 282 227.419952631 282 258 c 0
 282 301.048828125 247.048828125 336 204 336 c 0
 160.951171875 336 126 301.048828125 126 258 c 0
 126 104.23046875 263.071289062 -20 474 -20 c 0
EndSplineSet
EndChar

StartChar: B
Encoding: 66 66 29
Width: 1008
VWidth: 4000
Flags: HW
LayerCount: 2
Fore
SplineSet
154 96 m 2
 127.5078125 96 106 74.4921875 106 48 c 0
 106 21.5078125 127.5078125 0 154 0 c 2
 594 0 l 2
 763.991210938 0 902 138.008789062 902 308 c 0
 902 424.702709661 836.954734658 526.331704588 741.170773883 578.580414872 c 1
 802.613831126 627.706932365 842 703.289887576 842 788 c 0
 842 935.9140625 721.9140625 1056 574 1056 c 2
 514 1056 l 1
 154 1056 l 2
 127.5078125 1056 106 1034.4921875 106 1008 c 0
 106 981.5078125 127.5078125 960 154 960 c 2
 206 960 l 1
 206 96 l 1
 154 96 l 2
302 960 m 1
 514 960 l 1
 574 960 l 2
 668.9296875 960 746 882.9296875 746 788 c 0
 746 693.0703125 668.9296875 616 574 616 c 2
 302 616 l 1
 302 960 l 1
302 96 m 1
 302 520 l 1
 574 520 l 1
 594 520 l 2
 711.008789062 520 806 425.008789062 806 308 c 0
 806 190.991210938 711.008789062 96 594 96 c 2
 302 96 l 1
EndSplineSet
EndChar

StartChar: J
Encoding: 74 74 30
Width: 1008
VWidth: 4000
Flags: HW
LayerCount: 2
Fore
SplineSet
106 288 m 2
 106 86.48828125 260.7265625 -20 434 -20 c 0
 602.265625 -20 762 124.140625 762 348 c 2
 762 960 l 1
 854 960 l 2
 880.4921875 960 902 981.5078125 902 1008 c 0
 902 1034.4921875 880.4921875 1056 854 1056 c 2
 554 1056 l 2
 527.5078125 1056 506 1034.4921875 506 1008 c 0
 506 981.5078125 527.5078125 960 554 960 c 2
 666 960 l 1
 666 348 l 2
 666 171.859375 545.734375 76 434 76 c 0
 347.682892403 76 222.399810368 114.307561909 204.229560889 252.65431592 c 1
 237.473039394 261.572302531 262 291.933016429 262 328 c 0
 262 371.048828125 227.048828125 406 184 406 c 0
 140.951171875 406 106 371.048828125 106 328 c 2
 106 288 l 2
EndSplineSet
EndChar

StartChar: R
Encoding: 82 82 31
Width: 1008
VWidth: 4000
Flags: HW
LayerCount: 2
Fore
SplineSet
105.1484375 1056 m 2
 78.65625 1056 57.1484375 1034.4921875 57.1484375 1008 c 0
 57.1484375 981.5078125 78.65625 960 105.1484375 960 c 2
 177.1484375 960 l 1
 177.1484375 96 l 1
 105.1484375 96 l 2
 78.65625 96 57.1484375 74.4921875 57.1484375 48 c 0
 57.1484375 21.5078125 78.65625 0 105.1484375 0 c 2
 225.1484375 0 l 1
 345.1484375 0 l 2
 371.640625 0 393.1484375 21.5078125 393.1484375 48 c 0
 393.1484375 74.4921875 371.640625 96 345.1484375 96 c 2
 273.1484375 96 l 1
 273.1484375 548.409238232 l 1
 538.229904793 542.441748007 679.025219395 362.381985553 743.783203125 38.55078125 c 0
 748.177734375 16.5771484375 767.59375 0 790.8515625 0 c 2
 902.8515625 0 l 2
 929.34375 0 950.8515625 21.5078125 950.8515625 48 c 0
 950.8515625 74.4921875 929.34375 96 902.8515625 96 c 2
 829.751953125 96 l 1
 800.558760201 226.071491426 738.903586408 429.409070356 576.285721563 548.5625 c 1
 585.1484375 548.5625 l 2
 731.348632812 548.5625 856.0078125 658.981445312 856.0078125 802.28125 c 0
 856.0078125 945.581054688 731.348632812 1056 585.1484375 1056 c 2
 225.1484375 1056 l 1
 105.1484375 1056 l 2
585.1484375 644.5625 m 2
 273.1484375 644.5625 l 1
 273.1484375 960 l 1
 585.1484375 960 l 2
 684.948242188 960 760.0078125 886.043945312 760.0078125 802.28125 c 0
 760.0078125 718.518554688 684.948242188 644.5625 585.1484375 644.5625 c 2
EndSplineSet
EndChar

StartChar: Z
Encoding: 90 90 32
Width: 1008
VWidth: 4000
Flags: HW
LayerCount: 2
Fore
SplineSet
912.015625 288 m 2
 912.015625 314.4921875 890.5078125 336 864.015625 336 c 0
 837.5234375 336 816.015625 314.4921875 816.015625 288 c 2
 816.015625 96 l 1
 236.83203125 96 l 1
 863.2109375 980.299804688 l 2
 885.6015625 1011.91015625 862.84375 1056 824.015625 1056 c 2
 164.015625 1056 l 2
 137.5234375 1056 116.015625 1034.4921875 116.015625 1008 c 2
 116.015625 828 l 2
 116.015625 801.5078125 137.5234375 780 164.015625 780 c 0
 190.5078125 780 212.015625 801.5078125 212.015625 828 c 2
 212.015625 960 l 1
 731.19921875 960 l 1
 104.8203125 75.7001953125 l 2
 82.4296875 44.08984375 105.1875 0 144.015625 0 c 2
 864.015625 0 l 2
 890.5078125 0 912.015625 21.5078125 912.015625 48 c 2
 912.015625 288 l 2
EndSplineSet
EndChar

StartChar: b
Encoding: 98 98 33
Width: 1008
VWidth: 4000
Flags: HW
LayerCount: 2
Fore
SplineSet
206 48 m 2
 206 21.5078125 227.5078125 0 254 0 c 0
 280.4921875 0 302 21.5078125 302 48 c 2
 302 106.614374947 l 1
 366.57858212 29.249993711 458.930651084 -20 564 -20 c 0
 766.639648438 -20 922 163.216796875 922 378 c 0
 922 592.783203125 766.639648438 776 564 776 c 0
 458.930651084 776 366.57858212 726.750006289 302 649.385625053 c 1
 302 1008 l 2
 302 1034.4921875 280.4921875 1056 254 1056 c 2
 134 1056 l 2
 107.5078125 1056 86 1034.4921875 86 1008 c 0
 86 981.5078125 107.5078125 960 134 960 c 2
 206 960 l 1
 206 378 l 1
 206 48 l 2
302 378 m 0
 302 549.8125 424.217773438 680 564 680 c 0
 703.766601562 680 826 549.810546875 826 378 c 0
 826 206.189453125 703.766601562 76 564 76 c 0
 424.217773438 76 302 206.1875 302 378 c 0
EndSplineSet
EndChar

StartChar: j
Encoding: 106 106 34
Width: 1008
VWidth: 4000
Flags: HW
LayerCount: 2
Fore
SplineSet
606 988 m 0
 606 944.953125 640.953125 910 684 910 c 0
 727.026367188 910 762 944.931640625 762 988 c 0
 762 1031.04882812 727.048828125 1066 684 1066 c 0
 640.931640625 1066 606 1031.02636719 606 988 c 0
355.794607659 -143.235508033 m 1
 383.006911961 -131.058106835 402 -103.738452372 402 -72 c 0
 402 -28.951171875 367.048828125 6 324 6 c 0
 280.931640625 6 246 -28.9736328125 246 -72 c 0
 246 -216.729492188 345.9375 -320 494 -320 c 0
 585.001953125 -320 660.401367188 -282.39453125 707.228515625 -217.834960938 c 0
 744.24609375 -166.799804688 762 -102.313476562 762 -32 c 2
 762 708 l 2
 762 734.4921875 740.4921875 756 714 756 c 2
 494 756 l 2
 467.5078125 756 446 734.4921875 446 708 c 0
 446 681.5078125 467.5078125 660 494 660 c 2
 666 660 l 1
 666 -32 l 2
 666 -86.130859375 652.1484375 -130.287109375 629.46875 -161.555664062 c 0
 601.672851562 -199.876953125 558.553710938 -224 494 -224 c 0
 450.244140625 -224 416.145507812 -211.224609375 391.749023438 -191.078125 c 0
 376.797306655 -178.730535583 364.448905622 -162.808930955 355.794607659 -143.235508033 c 1
EndSplineSet
EndChar

StartChar: r
Encoding: 114 114 35
Width: 1008
VWidth: 4000
Flags: HW
LayerCount: 2
Fore
SplineSet
214 96 m 2
 187.5078125 96 166 74.4921875 166 48 c 0
 166 21.5078125 187.5078125 0 214 0 c 2
 334 0 l 1
 494 0 l 2
 520.4921875 0 542 21.5078125 542 48 c 0
 542 74.4921875 520.4921875 96 494 96 c 2
 382 96 l 1
 382 511.121067172 l 1
 495.442024765 651.399820847 544.708063703 680 634 680 c 0
 646.333805688 680 674.195209072 679.072038431 699.351610811 671.628936134 c 1
 690.923101244 659.1704441 686 644.152679317 686 628 c 0
 686 584.953125 720.953125 550 764 550 c 0
 807.026367188 550 842 584.931640625 842 628 c 0
 842 703.268554688 778.487304688 776 634 776 c 0
 525.554382919 776 455.686072979 735.095725092 382 658.055790083 c 1
 382 708 l 2
 382 734.4921875 360.4921875 756 334 756 c 2
 214 756 l 2
 187.5078125 756 166 734.4921875 166 708 c 0
 166 681.5078125 187.5078125 660 214 660 c 2
 286 660 l 1
 286 529.794668708 l 2
 285.971139764 528.840766762 286 527.888178576 286 526.93815477 c 2
 286 96 l 1
 214 96 l 2
EndSplineSet
EndChar

StartChar: z
Encoding: 122 122 36
Width: 1008
VWidth: 4000
Flags: HW
LayerCount: 2
Fore
SplineSet
901.9921875 192 m 2
 901.9921875 218.4921875 880.484375 240 853.9921875 240 c 0
 827.5 240 805.9921875 218.4921875 805.9921875 192 c 2
 805.9921875 96 l 1
 272.3515625 96 l 1
 867.412109375 673.55859375 l 2
 898.249023438 703.48828125 876.82421875 756 833.9921875 756 c 2
 193.9921875 756 l 2
 167.5 756 145.9921875 734.4921875 145.9921875 708 c 2
 145.9921875 608 l 2
 145.9921875 581.5078125 167.5 560 193.9921875 560 c 0
 220.484375 560 241.9921875 581.5078125 241.9921875 608 c 2
 241.9921875 660 l 1
 715.6328125 660 l 1
 120.572265625 82.44140625 l 2
 89.7353515625 52.51171875 111.16015625 0 153.9921875 0 c 2
 853.9921875 0 l 2
 880.484375 0 901.9921875 21.5078125 901.9921875 48 c 2
 901.9921875 192 l 2
EndSplineSet
EndChar

StartChar: plus
Encoding: 43 43 37
Width: 1008
VWidth: 4000
Flags: HW
LayerCount: 2
Fore
SplineSet
456 88 m 2
 456 61.5078125 477.5078125 40 504 40 c 0
 530.4921875 40 552 61.5078125 552 88 c 2
 552 360 l 1
 824 360 l 2
 850.4921875 360 872 381.5078125 872 408 c 0
 872 434.4921875 850.4921875 456 824 456 c 2
 552 456 l 1
 552 728 l 2
 552 754.4921875 530.4921875 776 504 776 c 0
 477.5078125 776 456 754.4921875 456 728 c 2
 456 456 l 1
 184 456 l 2
 157.5078125 456 136 434.4921875 136 408 c 0
 136 381.5078125 157.5078125 360 184 360 c 2
 456 360 l 1
 456 88 l 2
EndSplineSet
EndChar

StartChar: semicolon
Encoding: 59 59 38
Width: 1008
VWidth: 4000
Flags: HW
LayerCount: 2
Fore
SplineSet
405.946289062 678 m 0
 405.946289062 623.889648438 449.8671875 580 503.946289062 580 c 0
 558.025390625 580 601.946289062 623.889648438 601.946289062 678 c 0
 601.946289062 732.091796875 558.038085938 776 503.946289062 776 c 0
 449.854492188 776 405.946289062 732.091796875 405.946289062 678 c 0
601.946289062 78 m 0
 601.946289062 132.091796875 558.038085938 176 503.946289062 176 c 0
 449.854492188 176 405.946289062 132.091796875 405.946289062 78 c 0
 405.946289062 36.2945579735 432.037603653 0.660749043207 468.761488012 -13.4856067802 c 1
 434.966575472 -59.5499217908 387.346607986 -98.4108765501 366.799804688 -112.418945312 c 0
 328.106445312 -139.020507812 347.190429688 -200 393.946289062 -200 c 0
 404.018554688 -200 413.370117188 -196.891601562 421.092773438 -191.581054688 c 0
 434.55078125 -182.329101562 601.946289062 -64.3828125 601.946289062 78 c 0
EndSplineSet
EndChar

StartChar: C
Encoding: 67 67 39
Width: 1008
VWidth: 4000
Flags: HW
LayerCount: 2
Fore
SplineSet
861.983398438 1008 m 2
 861.983398438 1034.4921875 840.475585938 1056 813.983398438 1056 c 0
 787.491210938 1056 765.983398438 1034.4921875 765.983398438 1008 c 2
 765.983398438 938.988165607 l 1
 745.328966243 965.835905478 721.703906525 989.965495194 694.838867188 1010.25976562 c 0
 641.470703125 1050.57519531 574.061523438 1076 493.983398438 1076 c 0
 282.74609375 1076 145.983398438 843.873046875 145.983398438 528 c 0
 145.983398438 222.09375 312.311523438 -20 533.983398438 -20 c 0
 712.641601562 -20 804.943359375 130.602539062 858.80859375 270.809570312 c 0
 870.803710938 302.033203125 847.692382812 336 813.983398438 336 c 0
 793.547851562 336 776.078125 323.202148438 769.158203125 305.190429688 c 0
 717.0859375 169.647460938 647.168945312 76 533.983398438 76 c 0
 367.041015625 76 241.983398438 280.879882812 241.983398438 528 c 0
 241.983398438 625.420898438 256.735351562 715.338867188 283.268554688 788.180664062 c 0
 310.42578125 862.735351562 372.45703125 980 493.983398438 980 c 0
 545.569335938 980 640.694335938 967.875 714.15234375 844.57421875 c 0
 737.818981154 804.850412398 755.475199303 759.549124192 767.676374862 715.329034207 c 0
 773.240269877 694.976817092 791.876416837 680.000000145 813.983398438 680 c 0
 824.953531334 680 834.873693494 683.625866253 842.8115738 689.628476465 c 0
 851.513197349 696.178809258 857.919135446 705.618430479 860.598703803 716.51665707 c 0
 861.639373686 720.691081425 862.125495918 725.04924551 861.983398438 729.492443846 c 2
 861.983398438 1008 l 2
EndSplineSet
EndChar

StartChar: K
Encoding: 75 75 40
Width: 1008
VWidth: 4000
Flags: HW
LayerCount: 2
Fore
SplineSet
684 96 m 2
 657.5078125 96 636 74.4921875 636 48 c 0
 636 21.5078125 657.5078125 0 684 0 c 2
 884 0 l 2
 910.4921875 0 932 21.5078125 932 48 c 0
 932 74.4921875 910.4921875 96 884 96 c 2
 843.202112269 96 l 1
 530.382027585 623.883892903 l 1
 844.813224547 960 l 1
 864 960 l 2
 890.4921875 960 912 981.5078125 912 1008 c 0
 912 1034.4921875 890.4921875 1056 864 1056 c 2
 824 1056 l 1
 664 1056 l 2
 637.5078125 1056 616 1034.4921875 616 1008 c 0
 616 981.5078125 637.5078125 960 664 960 c 2
 713.380323839 960 l 1
 272 488.179653826 l 1
 272 960 l 1
 324 960 l 2
 350.4921875 960 372 981.5078125 372 1008 c 0
 372 1034.4921875 350.4921875 1056 324 1056 c 2
 224 1056 l 1
 124 1056 l 2
 97.5078125 1056 76 1034.4921875 76 1008 c 0
 76 981.5078125 97.5078125 960 124 960 c 2
 176 960 l 1
 176 96 l 1
 124 96 l 2
 97.5078125 96 76 74.4921875 76 48 c 0
 76 21.5078125 97.5078125 0 124 0 c 2
 324 0 l 2
 350.4921875 0 372 21.5078125 372 48 c 0
 372 74.4921875 350.4921875 96 324 96 c 2
 272 96 l 1
 272 349.01880696 l 2
 274.550110829 350.854590433 276.913105535 352.934297923 279.0546875 355.223632812 c 2
 462.067322494 550.85782884 l 1
 731.612702546 96 l 1
 684 96 l 2
EndSplineSet
EndChar

StartChar: S
Encoding: 83 83 41
Width: 1008
VWidth: 4000
Flags: HW
LayerCount: 2
Fore
SplineSet
802.296875 285.703125 m 0
 802.296875 146.22265625 683.811523438 76 542.296875 76 c 0
 385.619442839 76 306.317211266 176.734948748 195.532966944 317.534109587 c 0
 195.410192684 317.691095024 195.286463226 317.847298071 195.161788186 318.00271059 c 0
 186.447027617 328.886236679 174.953356833 334.480645859 163.231766802 335.684442686 c 0
 161.417583302 335.892878113 159.572766714 335.999999797 157.703125 336 c 0
 144.673803113 336 132.850124133 330.797594163 124.197767401 322.358459122 c 0
 115.449506254 314.051751221 109.703123681 302.276710724 109.703125 288 c 2
 109.703125 48 l 2
 109.703125 21.5078125 131.2109375 0 157.703125 0 c 0
 184.1953125 0 205.703125 21.5078125 205.703125 48 c 2
 205.703125 152.896804541 l 1
 288.272295221 59.284099944 387.871249592 -20 542.296875 -20 c 0
 760.668945312 -20 898.296875 111.813476562 898.296875 285.703125 c 0
 898.296875 344.819335938 890.108398438 421.751953125 816.325195312 490.918945312 c 0
 762.375976562 541.493164062 679.84375 583.474609375 551.856445312 620.963867188 c 0
 328.494140625 686.377929688 290.458984375 739.759765625 276.791992188 776.794921875 c 0
 269.791992188 795.766601562 267.610351562 817.76171875 268.161132812 843.828125 c 0
 269.028320312 884.897460938 288.341796875 933.521484375 363.265625 961.504882812 c 0
 462.264529074 998.481212164 681.860214766 996.310232089 796.263559567 803.775884283 c 0
 804.599368968 789.556623028 820.043885815 779.999999031 837.703125 780 c 0
 849.841247501 780 860.471204988 784.342009476 868.624585266 791.297167111 c 0
 877.653896076 798.913758243 883.838207153 809.798618046 885.345901917 822.120134391 c 0
 885.685580871 824.739234293 885.809467868 827.399169351 885.703125 830.074167759 c 2
 885.703125 1008 l 2
 885.703125 1034.4921875 864.1953125 1056 837.703125 1056 c 0
 811.2109375 1056 789.703125 1034.4921875 789.703125 1008 c 2
 789.703125 961.336333101 l 1
 646.447766902 1088.55618013 448.624906604 1095.88263365 329.716796875 1051.47070312 c 0
 290.428710938 1036.796875 255.358398438 1015.16601562 228.020507812 985.754882812 c 0
 193.6640625 948.791992188 173.334960938 900.446289062 172.182617188 845.890625 c 0
 170.684570312 774.96484375 184.642578125 702.93359375 266.250976562 641.129882812 c 0
 322.163085938 598.787109375 403.158203125 564.459960938 524.862304688 528.817382812 c 0
 735.9140625 466.997070312 775.97265625 400.521484375 790.11328125 364.9296875 c 0
 799.3828125 341.59765625 802.296875 315.896484375 802.296875 285.703125 c 0
EndSplineSet
EndChar

StartChar: bracketleft
Encoding: 91 91 42
Width: 1008
VWidth: 4000
Flags: HW
LayerCount: 2
Fore
SplineSet
604 960 m 2
 630.4921875 960 652 981.5078125 652 1008 c 0
 652 1034.4921875 630.4921875 1056 604 1056 c 2
 404 1056 l 2
 377.5078125 1056 356 1034.4921875 356 1008 c 2
 356 -252 l 2
 356 -278.4921875 377.5078125 -300 404 -300 c 2
 604 -300 l 2
 630.4921875 -300 652 -278.4921875 652 -252 c 0
 652 -225.5078125 630.4921875 -204 604 -204 c 2
 452 -204 l 1
 452 960 l 1
 604 960 l 2
EndSplineSet
EndChar

StartChar: c
Encoding: 99 99 43
Width: 1008
VWidth: 4000
Flags: HW
LayerCount: 2
Fore
SplineSet
753.1953125 568 m 1025
530.0390625 -20 m 0
 681.959960938 -16.4248046875 832.381835938 84.32421875 846.21484375 268.421875 c 0
 847.990234375 299.887695312 823.330078125 320.0625 798.3515625 320.0625 c 0
 773.083984375 320.0625 752.350585938 300.497070312 750.48828125 275.703125 c 0
 739.90234375 134.831054688 621.282226562 78.1474609375 530.0390625 76 c 0
 381.01171875 76 254.8046875 213.348632812 254.8046875 385.84375 c 0
 254.8046875 551.416992188 365.462890625 679.513671875 521.346679688 680 c 0
 561.116210938 680.001953125 606.538085938 672.5234375 646.348632812 658.838867188 c 0
 657.009961682 655.174538007 690.023708652 642.943750501 716.562250924 623.647874411 c 1
 702.141990485 609.487328965 693.1953125 589.774896055 693.1953125 568 c 0
 693.1953125 524.953125 728.1484375 490 771.1953125 490 c 0
 814.221679688 490 849.1953125 524.931640625 849.1953125 568 c 0
 849.1953125 701.840820312 666.89453125 776.001953125 522.31640625 776.001953125 c 0
 314.625 775.356445312 158.8046875 607.317382812 158.8046875 385.84375 c 0
 158.8046875 169.338867188 318.91015625 -20 530.0390625 -20 c 0
EndSplineSet
EndChar

StartChar: cedilla
Encoding: 184 184 44
Width: 1008
VWidth: 4000
Flags: HW
LayerCount: 2
Fore
SplineSet
624.677734375 -244.681640625 m 4
 664.783203125 -195.552734375 669.302734375 -85.462890625 534.315429688 -53.1005859375 c 5
 564.15625 6.580078125 l 6
 579.995117188 38.259765625 556.870117188 76 521.1953125 76 c 4
 502.3984375 76 486.111328125 65.1728515625 478.234375 49.419921875 c 6
 418.234375 -70.580078125 l 6
 402.395507812 -102.259765625 425.520507812 -140 461.1953125 -140 c 4
 488.064453125 -140.126953125 539.970703125 -149.095703125 551.522460938 -165.844726562 c 4
 554.432617188 -170.065429688 553.70703125 -179.836914062 550.278320312 -184.037109375 c 4
 548.134765625 -186.663085938 537.786132812 -193.975585938 514.044921875 -198.3359375 c 4
 485.516601562 -203.575195312 444.34375 -204 401.1953125 -204 c 4
 374.703125 -204 353.1953125 -225.5078125 353.1953125 -252 c 4
 353.1953125 -278.4921875 374.703125 -300 401.1953125 -300 c 4
 492.877929688 -300 579.51953125 -300 624.677734375 -244.681640625 c 4
EndSplineSet
EndChar

StartChar: k
Encoding: 107 107 45
Width: 1008
VWidth: 4000
Flags: HW
LayerCount: 2
Fore
SplineSet
577.125 756 m 6
 550.6328125 756 529.125 734.4921875 529.125 708 c 4
 529.125 681.5078125 550.6328125 660 577.125 660 c 6
 617.677819293 660 l 5
 285.125 341.303548177 l 5
 285.125 1008 l 6
 285.125 1034.4921875 263.6171875 1056 237.125 1056 c 6
 137.125 1056 l 6
 110.6328125 1056 89.125 1034.4921875 89.125 1008 c 4
 89.125 981.5078125 110.6328125 960 137.125 960 c 6
 189.125 960 l 5
 189.125 96 l 5
 137.125 96 l 6
 110.6328125 96 89.125 74.4921875 89.125 48 c 4
 89.125 21.5078125 110.6328125 0 137.125 0 c 6
 337.125 0 l 6
 363.6171875 0 385.125 21.5078125 385.125 48 c 4
 385.125 74.4921875 363.6171875 96 337.125 96 c 6
 285.125 96 l 5
 285.125 209.018898893 l 6
 286.959119281 210.339242169 288.696447451 211.785763311 290.32421875 213.345703125 c 6
 486.374626421 401.22734381 l 5
 708.618286133 96 l 5
 670.875 96 l 6
 644.3828125 96 622.875 74.4921875 622.875 48 c 4
 622.875 21.5078125 644.3828125 0 670.875 0 c 6
 870.875 0 l 6
 897.3671875 0 918.875 21.5078125 918.875 48 c 4
 918.875 74.4921875 897.3671875 96 870.875 96 c 6
 827.355848185 96 l 6
 827.305126403 96.0704556364 827.254218433 96.1407683778 827.203125 96.2109375 c 6
 556.311824443 468.250491914 l 5
 756.398267663 660 l 5
 797.125 660 l 6
 823.6171875 660 845.125 681.5078125 845.125 708 c 4
 845.125 734.4921875 823.6171875 756 797.125 756 c 6
 737.125 756 l 5
 577.125 756 l 6
EndSplineSet
EndChar

StartChar: s
Encoding: 115 115 46
Width: 1008
VWidth: 4000
Flags: HW
LayerCount: 2
Fore
SplineSet
126.016601562 48 m 2
 126.016601562 21.5078125 147.524414062 0 174.016601562 0 c 0
 200.508789062 0 222.016601562 21.5078125 222.016601562 48 c 2
 222.016601562 85.3341099152 l 1
 295.133035708 16.9960803146 390.069293371 -20 554.016601562 -20 c 0
 615.76171875 -20 792.461914062 -16.1943359375 858.416992188 107.55859375 c 0
 874.42578125 137.596679688 882.016601562 171.688476562 882.016601562 208 c 0
 882.016601562 240.538085938 878.096679688 412.342773438 522.78125 447.653320312 c 0
 440.3515625 455.840820312 305.08203125 477.928710938 270.514648438 535.854492188 c 0
 264.834960938 545.373046875 262.016601562 555.24609375 262.016601562 568 c 0
 262.016601562 624.176757812 287.40234375 645.2421875 310.185546875 657.26171875 c 0
 337.1484375 671.486328125 379.666992188 680 434.016601562 680 c 0
 639.823242188 680 713.46484375 610.083984375 775.592773438 527.241210938 c 0
 784.151617461 515.8292169 795.719638053 509.861401119 807.605434111 508.425245957 c 0
 809.702850558 508.144791106 811.842948647 508.000000291 814.016601562 508 c 0
 826.927819356 508 838.655152245 513.108519032 847.285895068 521.412847076 c 0
 856.164343741 529.717039298 862.016599214 541.565482483 862.016601562 556 c 2
 862.016601562 708 l 2
 862.016601562 734.4921875 840.508789062 756 814.016601562 756 c 0
 787.524414062 756 766.016601562 734.4921875 766.016601562 708 c 2
 766.016601562 677.650712391 l 1
 693.710060079 736.984317772 594.95689589 776 434.016601562 776 c 0
 387.73828125 776 241.568359375 774.466796875 186.352539062 662.755859375 c 0
 172.524414062 634.779296875 166.016601562 602.845703125 166.016601562 568 c 0
 166.016601562 515.58203125 189.5234375 447.205078125 293.657226562 401.490234375 c 0
 350.74609375 376.427734375 423.555664062 361.030273438 513.189453125 352.127929688 c 0
 581.807617188 345.30859375 708.26953125 324.776367188 762.896484375 264.321289062 c 0
 779.44921875 246.001953125 786.016601562 228.211914062 786.016601562 208 c 0
 786.016601562 154.188476562 760.362304688 125.286132812 723.153320312 106.375 c 0
 686.461914062 87.7265625 629.4140625 76 554.016601562 76 c 0
 350.830078125 76 287.059570312 136.62109375 214.022460938 246.51953125 c 0
 213.135139761 247.854491809 212.182819809 249.142594235 211.170033706 250.379302556 c 0
 202.364460004 261.132718506 188.986267054 267.999999578 174.016601562 268 c 0
 161.61754074 268 150.833237861 263.49093836 142.641864961 256.31566262 c 0
 133.575147173 248.4740354 127.470936771 237.297356432 126.244292265 224.700684207 c 0
 126.009151136 222.469466456 125.930409484 220.212873967 126.016601562 217.946985168 c 2
 126.016601562 48 l 2
EndSplineSet
EndChar

StartChar: braceleft
Encoding: 123 123 47
Width: 1008
VWidth: 4000
Flags: HW
LayerCount: 2
Fore
SplineSet
704 -203.328125 m 0
 610.345703125 -203.328125 552 -143.97265625 552 -91.328125 c 2
 552 189.34375 l 2
 552 249.297851562 512.629882812 282.185546875 492.767578125 297.088867188 c 2
 383.990234375 378.671875 l 1
 492.767578125 460.254882812 l 2
 512.58203125 475.122070312 552 508.012695312 552 568 c 2
 552 848.671875 l 2
 552 901.313476562 610.342773438 960.671875 704 960.671875 c 0
 730.4921875 960.671875 752 982.1796875 752 1008.671875 c 0
 752 1035.1640625 730.4921875 1056.671875 704 1056.671875 c 0
 557.459960938 1056.671875 456 955.595703125 456 848.671875 c 2
 456 568 l 2
 456 561.052734375 456 552.670898438 435.232421875 537.088867188 c 2
 275.240234375 417.094726562 l 2
 264.418758286 408.978547661 258.492790999 398.156497677 256.684230031 386.923554507 c 0
 256.23546149 384.267586569 256.000000103 381.513343389 256 378.671875 c 0
 256 365.765635969 261.104656157 354.042110762 269.40349393 345.412315893 c 0
 271.927512035 342.712255195 274.779194382 340.291837618 277.931611696 338.230490447 c 2
 435.232421875 220.254882812 l 2
 443.71484375 213.890625 448.772460938 208.590820312 451.478515625 204.686523438 c 0
 454.717773438 200.014648438 456 196.848632812 456 189.34375 c 2
 456 -91.328125 l 2
 456 -198.256835938 557.46484375 -299.328125 704 -299.328125 c 0
 730.4921875 -299.328125 752 -277.8203125 752 -251.328125 c 0
 752 -224.8359375 730.4921875 -203.328125 704 -203.328125 c 0
EndSplineSet
EndChar

StartChar: dollar
Encoding: 36 36 48
Width: 1008
VWidth: 4000
Flags: HW
LayerCount: 2
Fore
SplineSet
569.140625 -152 m 2
 569.140625 -178.4921875 590.6484375 -200 617.140625 -200 c 0
 643.6328125 -200 665.140625 -178.4921875 665.140625 -152 c 2
 665.140625 -1.05514598985 l 1
 822.670523011 40.5269474765 909.859375 146.1327863 909.859375 271.34375 c 0
 909.859375 410.028313273 829.915150494 494.494658621 665.140625 554.4322424 c 1
 665.140625 945.666957508 l 1
 728.235369355 914.224416926 773.587849933 862.236257559 808.438476562 794.084960938 c 0
 816.38671875 778.541015625 832.560546875 767.890625 851.203125 767.890625 c 0
 887.0625 767.890625 910.180664062 805.993164062 893.967773438 837.696289062 c 0
 833.493060281 955.958750395 751.633126534 1018.85906241 665.140625 1049.78234449 c 1
 665.140625 1130.265625 l 2
 665.140625 1156.7578125 643.6328125 1178.265625 617.140625 1178.265625 c 0
 590.6484375 1178.265625 569.140625 1156.7578125 569.140625 1130.265625 c 2
 569.140625 1072.03098056 l 1
 546.219484589 1074.81644622 523.400833337 1076 500.984375 1076 c 0
 485.702986057 1076 465.031925745 1075.63303822 441.140625 1073.75620405 c 1
 441.140625 1130.265625 l 2
 441.140625 1156.7578125 419.6328125 1178.265625 393.140625 1178.265625 c 0
 366.6484375 1178.265625 345.140625 1156.7578125 345.140625 1130.265625 c 2
 345.140625 1058.54494043 l 1
 288.237249439 1044.29629181 228.856060253 1018.56505184 184.276367188 972.248046875 c 0
 141.79296875 928.109375 118.171875 869.40625 118.171875 801.890625 c 0
 118.171875 738.859375 131.096679688 667.364257812 214.465820312 608.538085938 c 0
 247.941448816 584.917226144 290.339494266 564.374172769 345.140625 545.4115074 c 1
 345.140625 106.964528515 l 1
 254.93603981 145.636285507 194.140625 219.728165928 194.140625 324.703125 c 0
 194.140625 351.1953125 172.6328125 372.703125 146.140625 372.703125 c 0
 119.6484375 372.703125 98.140625 351.1953125 98.140625 324.703125 c 0
 98.140625 170.891608174 195.067603858 53.1779680572 345.140625 4.48102486576 c 1
 345.140625 -152 l 2
 345.140625 -178.4921875 366.6484375 -200 393.140625 -200 c 0
 419.6328125 -200 441.140625 -178.4921875 441.140625 -152 c 2
 441.140625 -16.1834928061 l 1
 462.741986497 -18.7051460664 485.063823285 -20 508.015625 -20 c 0
 529.145710414 -20 549.527586122 -19.1175065036 569.140625 -17.4069021668 c 1
 569.140625 -152 l 2
441.140625 80.6664505786 m 1
 441.140625 516.911683814 l 1
 456.921729687 512.836430815 473.454176561 508.803577251 490.780273438 504.794921875 c 0
 519.506440528 498.150197282 545.538307422 491.371472692 569.140625 484.513743519 c 1
 569.140625 79.0757874809 l 1
 549.530387108 77.0380139613 529.108282748 76 508.015625 76 c 0
 485.103288401 76 462.72326653 77.5682557303 441.140625 80.6664505786 c 1
665.140625 99.1758368838 m 1
 665.140625 451.095398506 l 1
 763.546446676 409.484479012 790.505295915 368.205162226 802.358398438 338.9609375 c 0
 810.26171875 319.462890625 813.859375 297.485351562 813.859375 271.34375 c 0
 813.859375 189.327829636 756.078449949 129.716562103 665.140625 99.1758368838 c 1
569.140625 975.140769225 m 1
 569.140625 584.253345679 l 1
 550.993074637 589.104153361 532.104085804 593.788433581 512.469726562 598.330078125 c 0
 486.366176153 604.369524727 462.666542451 610.408105836 441.140625 616.41630642 c 1
 441.140625 977.354830075 l 1
 460.148714613 979.102733313 480.140733731 980 500.984375 980 c 0
 525.251753834 980 547.926202815 978.353441849 569.140625 975.140769225 c 1
345.140625 958.752755571 m 1
 345.140625 648.211004945 l 1
 249.669848797 686.476152376 230.751340137 721.12613939 222.44921875 743.70703125 c 0
 216.666015625 759.434570312 214.171875 778.209960938 214.171875 801.890625 c 0
 214.171875 836.928710938 220.365234375 917.02734375 341.791015625 957.65234375 c 0
 342.900440359 958.023510573 344.016995981 958.390321267 345.140625 958.752755571 c 1
EndSplineSet
EndChar

StartChar: comma
Encoding: 44 44 49
Width: 1008
VWidth: 4000
Flags: HW
LayerCount: 2
Fore
SplineSet
601.946289062 78 m 0
 601.946289062 132.110351562 558.025390625 176 503.946289062 176 c 0
 449.8671875 176 405.946289062 132.110351562 405.946289062 78 c 0
 405.946289062 36.306840795 432.032587336 0.66385547895 468.76163473 -13.485406795 c 1
 434.966713298 -59.549809316 387.34663772 -98.4108562786 366.799804688 -112.418945312 c 0
 328.106445312 -139.020507812 347.190429688 -200 393.946289062 -200 c 0
 404.018554688 -200 413.370117188 -196.891601562 421.092773438 -191.581054688 c 0
 434.55078125 -182.329101562 601.946289062 -64.3828125 601.946289062 78 c 0
EndSplineSet
EndChar

StartChar: period
Encoding: 46 46 50
Width: 1008
VWidth: 4000
Flags: HW
LayerCount: 2
Fore
SplineSet
406 78.015625 m 4
 406 23.9052734375 449.920898438 -19.984375 504 -19.984375 c 4
 558.079101562 -19.984375 602 23.9052734375 602 78.015625 c 4
 602 132.107421875 558.091796875 176.015625 504 176.015625 c 4
 449.908203125 176.015625 406 132.107421875 406 78.015625 c 4
EndSplineSet
EndChar

StartChar: four
Encoding: 52 52 51
Width: 1008
VWidth: 4000
Flags: HW
LayerCount: 2
Fore
SplineSet
766.255859375 272 m 1
 890.255859375 272 l 2
 916.748046875 272 938.255859375 293.5078125 938.255859375 320 c 0
 938.255859375 346.4921875 916.748046875 368 890.255859375 368 c 2
 766.255859375 368 l 1
 766.255859375 1008 l 2
 766.255859375 1052.03613281 711.16015625 1072.85253906 682.083984375 1039.54003906 c 2
 81.583984375 351.540039062 l 2
 54.5927734375 320.615234375 76.7578125 272 117.755859375 272 c 2
 670.255859375 272 l 1
 670.255859375 96 l 1
 534.255859375 96 l 2
 507.763671875 96 486.255859375 74.4921875 486.255859375 48 c 0
 486.255859375 21.5078125 507.763671875 0 534.255859375 0 c 2
 718.255859375 0 l 1
 870.255859375 0 l 2
 896.748046875 0 918.255859375 21.5078125 918.255859375 48 c 0
 918.255859375 74.4921875 896.748046875 96 870.255859375 96 c 2
 766.255859375 96 l 1
 766.255859375 272 l 1
670.255859375 368 m 1
 223.3515625 368 l 1
 670.255859375 880.0234375 l 1
 670.255859375 368 l 1
EndSplineSet
EndChar

StartChar: greater
Encoding: 62 62 52
Width: 1008
VWidth: 4000
Flags: HW
LayerCount: 2
Fore
SplineSet
144.560546875 831.405273438 m 6
 112.951171875 846.37890625 76.0556640625 823.241210938 76.0556640625 788 c 4
 76.0556640625 768.841796875 87.3037109375 752.290039062 103.55078125 744.594726562 c 6
 771.916015625 428 l 5
 103.55078125 111.405273438 l 6
 87.3037109375 103.709960938 76.0556640625 87.158203125 76.0556640625 68 c 4
 76.0556640625 32.7578125 112.951171875 9.6220703125 144.560546875 24.5947265625 c 6
 904.560546875 384.594726562 l 6
 941.071289062 401.888671875 941.071289062 454.111328125 904.560546875 471.405273438 c 6
 144.560546875 831.405273438 l 6
EndSplineSet
EndChar

StartChar: less
Encoding: 60 60 53
Width: 1008
VWidth: 4000
Flags: HW
LayerCount: 2
Fore
SplineSet
863.439453125 4.5947265625 m 6
 895.048828125 -10.37890625 931.944335938 12.7587890625 931.944335938 48 c 4
 931.944335938 67.158203125 920.696289062 83.7099609375 904.44921875 91.4052734375 c 6
 236.083984375 408 l 5
 904.44921875 724.594726562 l 6
 920.696289062 732.290039062 931.944335938 748.841796875 931.944335938 768 c 4
 931.944335938 803.2421875 895.048828125 826.377929688 863.439453125 811.405273438 c 6
 103.439453125 451.405273438 l 6
 66.9287109375 434.111328125 66.9287109375 381.888671875 103.439453125 364.594726562 c 6
 863.439453125 4.5947265625 l 6
EndSplineSet
EndChar

StartChar: D
Encoding: 68 68 54
Width: 1008
VWidth: 4000
Flags: HW
LayerCount: 2
Fore
SplineSet
134 1056 m 2
 107.5078125 1056 86 1034.4921875 86 1008 c 0
 86 981.5078125 107.5078125 960 134 960 c 2
 186 960 l 1
 186 96 l 1
 134 96 l 2
 107.5078125 96 86 74.4921875 86 48 c 0
 86 21.5078125 107.5078125 0 134 0 c 2
 439.6875 0 l 2
 759.880859375 0 922 210.677734375 922 528 c 0
 922 652.073242188 897.43359375 769.206054688 836.719726562 863.2421875 c 0
 775.948242188 957.368164062 659.756835938 1056 439.6875 1056 c 2
 134 1056 l 2
282 96 m 1
 282 960 l 1
 439.6875 960 l 2
 599.262695312 960 698.059570312 901.026367188 756.009765625 811.270507812 c 0
 803.159179688 738.244140625 826 639.565429688 826 528 c 0
 826 345.954101562 766.495117188 96 439.6875 96 c 2
 282 96 l 1
EndSplineSet
EndChar

StartChar: L
Encoding: 76 76 55
Width: 1008
VWidth: 4000
Flags: HW
LayerCount: 2
Fore
SplineSet
134 1056 m 2
 107.5078125 1056 86 1034.4921875 86 1008 c 0
 86 981.5078125 107.5078125 960 134 960 c 2
 206 960 l 1
 206 96 l 1
 134 96 l 2
 107.5078125 96 86 74.4921875 86 48 c 0
 86 21.5078125 107.5078125 0 134 0 c 2
 874 0 l 2
 900.4921875 0 922 21.5078125 922 48 c 2
 922 268 l 2
 922 294.4921875 900.4921875 316 874 316 c 0
 847.5078125 316 826 294.4921875 826 268 c 2
 826 96 l 1
 302 96 l 1
 302 960 l 1
 394 960 l 2
 420.4921875 960 442 981.5078125 442 1008 c 0
 442 1034.4921875 420.4921875 1056 394 1056 c 2
 134 1056 l 2
EndSplineSet
EndChar

StartChar: T
Encoding: 84 84 56
Width: 1008
VWidth: 4000
Flags: HW
LayerCount: 2
Fore
SplineSet
324 96 m 2
 297.5078125 96 276 74.4921875 276 48 c 0
 276 21.5078125 297.5078125 0 324 0 c 2
 684 0 l 2
 710.4921875 0 732 21.5078125 732 48 c 0
 732 74.4921875 710.4921875 96 684 96 c 2
 552 96 l 1
 552 960 l 1
 816 960 l 1
 816 748 l 2
 816 721.5078125 837.5078125 700 864 700 c 0
 890.4921875 700 912 721.5078125 912 748 c 2
 912 1008 l 2
 912 1034.4921875 890.4921875 1056 864 1056 c 2
 144 1056 l 2
 117.5078125 1056 96 1034.4921875 96 1008 c 2
 96 748 l 2
 96 721.5078125 117.5078125 700 144 700 c 0
 170.4921875 700 192 721.5078125 192 748 c 2
 192 960 l 1
 456 960 l 1
 456 96 l 1
 324 96 l 2
EndSplineSet
EndChar

StartChar: backslash
Encoding: 92 92 57
Width: 1008
VWidth: 4000
Flags: HW
LayerCount: 2
Fore
SplineSet
906.020507812 -248.794921875 m 2
 923.61328125 -280.559570312 900.53515625 -320 864 -320 c 0
 845.922851562 -320 830.166015625 -309.985351562 821.979492188 -295.205078125 c 2
 101.979492188 1004.79492188 l 2
 84.38671875 1036.55957031 107.46484375 1076 144 1076 c 0
 162.077148438 1076 177.833984375 1065.98535156 186.020507812 1051.20507812 c 2
 906.020507812 -248.794921875 l 2
EndSplineSet
EndChar

StartChar: d
Encoding: 100 100 58
Width: 1008
VWidth: 4000
Flags: HW
LayerCount: 2
Fore
SplineSet
604 1056 m 2
 577.5078125 1056 556 1034.4921875 556 1008 c 0
 556 981.5078125 577.5078125 960 604 960 c 2
 716 960 l 1
 716 649.38523555 l 1
 651.418684847 726.751770948 559.063673165 776 454 776 c 0
 251.346679688 776 96 592.796875 96 378 c 0
 96 163.21875 251.344726562 -20 454 -20 c 0
 559.064303842 -20 651.41898853 29.2523337838 716 106.620367461 c 1
 716 48 l 2
 716 21.5078125 737.5078125 0 764 0 c 2
 864 0 l 2
 890.4921875 0 912 21.5078125 912 48 c 0
 912 74.4921875 890.4921875 96 864 96 c 2
 812 96 l 1
 812 378 l 1
 812 1008 l 2
 812 1034.4921875 790.4921875 1056 764 1056 c 2
 604 1056 l 2
192 378 m 0
 192 549.828125 314.215820312 680 454 680 c 0
 593.768554688 680 716 549.825195312 716 378 c 0
 716 206.189453125 593.766601562 76 454 76 c 0
 314.217773438 76 192 206.1875 192 378 c 0
EndSplineSet
EndChar

StartChar: t
Encoding: 116 116 59
Width: 1008
VWidth: 4000
Flags: HW
LayerCount: 2
Fore
SplineSet
224 756 m 2
 197.5078125 756 176 734.4921875 176 708 c 0
 176 681.5078125 197.5078125 660 224 660 c 2
 376 660 l 1
 376 248 l 6
 376 74.4287109375 484.455078125 -20 624 -20 c 4
 667.09765625 -20 750.461914062 -4.70703125 807.810546875 101.926757812 c 4
 823.145507812 130.439453125 830.16015625 152.567382812 830.16015625 154.8046875 c 4
 830.16015625 158.998046875 832 163.424804688 832 168 c 4
 832 194.4921875 810.4921875 216 784 216 c 4
 762.083984375 216 743.578125 201.279296875 737.83984375 181.1953125 c 5
 737.83984375 181.1953125 723.372070312 132.053710938 687.23046875 100.428710938 c 4
 670.338867188 85.6494140625 650.828125 76 624 76 c 4
 569.368164062 76 530.974609375 95.1435546875 506.055664062 127.750976562 c 4
 485.725585938 154.35546875 472 193.868164062 472 248 c 6
 472 660 l 1
 624 660 l 2
 650.4921875 660 672 681.5078125 672 708 c 0
 672 734.4921875 650.4921875 756 624 756 c 2
 472 756 l 1
 472 1008 l 2
 472 1034.4921875 450.4921875 1056 424 1056 c 0
 397.5078125 1056 376 1034.4921875 376 1008 c 2
 376 756 l 1
 224 756 l 2
EndSplineSet
EndChar

StartChar: bar
Encoding: 124 124 60
Width: 1008
VWidth: 4000
Flags: HW
LayerCount: 2
Fore
SplineSet
552 1008 m 6
 552 1034.4921875 530.4921875 1056 504 1056 c 4
 477.5078125 1056 456 1034.4921875 456 1008 c 6
 456 -232 l 6
 456 -258.4921875 477.5078125 -280 504 -280 c 4
 530.4921875 -280 552 -258.4921875 552 -232 c 6
 552 1008 l 6
EndSplineSet
EndChar

StartChar: percent
Encoding: 37 37 61
Width: 1008
VWidth: 4000
Flags: HW
LayerCount: 2
Fore
SplineSet
121.301757812 -250.06640625 m 2
 104.965820312 -281.77734375 128.081054688 -320 164.000976562 -320 c 0
 182.592773438 -320 198.729492188 -309.407226562 206.700195312 -293.93359375 c 2
 886.627907193 1025.92608225 l 2
 886.768397346 1026.19659909 886.906387588 1026.46861873 887.04184558 1026.74211131 c 0
 891.457609789 1035.64241807 892.797976661 1045.02793354 891.647101779 1053.91796872 c 0
 890.298950895 1065.07186584 885.186762718 1074.75247828 877.827302109 1082.01074188 c 0
 870.708619976 1089.16116499 861.282296411 1094.16390585 850.401538612 1095.58659206 c 0
 841.954627753 1096.76089436 833.024482369 1095.68407714 824.437284819 1091.83918442 c 0
 824.312184998 1091.78321623 824.187367828 1091.72672808 824.06283616 1091.6697225 c 0
 750.777260893 1058.2623453 608.770348844 1033.65820207 486.581054688 1033.65820312 c 0
 426.48738674 1033.65820312 394.665446458 1039.53254015 377.902015035 1042.35207859 c 0
 246.694725197 1077.08244567 106.061247222 983.471121847 64.4521484375 828.181640625 c 0
 22.775390625 672.641601562 98.072265625 521.013671875 229.461914062 485.80859375 c 0
 360.850585938 450.602539062 501.874023438 544.266601562 543.551757812 699.807617188 c 0
 566.929680522 787.055906938 553.501860339 873.072647563 514.014069947 938.000781818 c 1
 591.562914514 939.977391362 675.62349613 950.321646062 748.343565081 967.132396096 c 1
 121.301757812 -250.06640625 l 2
254.30859375 578.537109375 m 0
 172.876953125 600.356445312 130.197265625 702.629882812 157.180664062 803.334960938 c 0
 184.130175198 903.910189299 272.031714903 971.092849636 353.370826053 949.539586519 c 0
 353.575944298 949.483178299 353.781610273 949.428098435 353.987813842 949.374355688 c 0
 435.229114687 927.387767406 477.774313003 825.239704437 450.822265625 724.654296875 c 0
 423.837890625 623.9453125 335.73828125 556.717773438 254.30859375 578.537109375 c 0
778.537109375 290.171875 m 0
 647.155273438 325.375 506.130859375 231.736328125 464.447265625 76.171875 c 0
 422.770507812 -79.3681640625 498.067382812 -230.99609375 629.45703125 -266.201171875 c 0
 760.845703125 -301.407226562 901.869140625 -207.743164062 943.546875 -52.2021484375 c 0
 985.227539062 103.353515625 909.92578125 254.965820312 778.537109375 290.171875 c 0
654.303710938 -173.47265625 m 0
 572.87109375 -151.653320312 530.192382812 -49.3798828125 557.17578125 51.3251953125 c 0
 584.166015625 152.051757812 672.260742188 219.26171875 753.690429688 197.443359375 c 0
 835.122070312 175.623046875 877.805664062 73.3671875 850.817382812 -27.35546875 c 0
 823.833007812 -128.064453125 735.733398438 -195.291992188 654.303710938 -173.47265625 c 0
EndSplineSet
EndChar

StartChar: hyphen
Encoding: 45 45 62
Width: 1008
VWidth: 4000
Flags: HW
LayerCount: 2
Fore
SplineSet
804 400 m 2
 830.4921875 400 852 421.5078125 852 448 c 0
 852 474.4921875 830.4921875 496 804 496 c 2
 204 496 l 2
 177.5078125 496 156 474.4921875 156 448 c 0
 156 421.5078125 177.5078125 400 204 400 c 2
 804 400 l 2
EndSplineSet
EndChar

StartChar: five
Encoding: 53 53 63
Width: 1008
VWidth: 4000
Flags: HW
LayerCount: 2
Fore
SplineSet
231.99609375 268 m 1029
257.240630893 539.44594673 m 0
 282.304825286 581.1890647 339.7431204 652.000000236 503.99609375 652 c 0
 658.782226562 652 775.029296875 537.234375 775.997070312 387.68359375 c 0
 776.006835938 223.38671875 656.493164062 76 503.99609375 76 c 0
 395.97956956 76 291.262247962 124.581527893 250.198168961 198.904692551 c 1
 275.038356264 211.957419426 291.99609375 238.014284466 291.99609375 268 c 0
 291.99609375 311.068359375 257.022460938 346 213.99609375 346 c 0
 170.969726562 346 135.99609375 311.068359375 135.99609375 268 c 0
 135.99609375 101.092773438 309.513671875 -20 503.99609375 -20 c 0
 708.68359375 -20 872.00390625 168.564453125 872.00390625 385.563476562 c 0
 872.00390625 590.750976562 709.337890625 748 503.99609375 748 c 0
 443.048711918 748 347.443093052 740.014402634 266.191580918 685.39677995 c 1
 271.139648438 960 l 1
 791.99609375 960 l 2
 818.48828125 960 839.99609375 981.5078125 839.99609375 1008 c 0
 839.99609375 1034.4921875 818.48828125 1056 791.99609375 1056 c 2
 223.99609375 1056 l 2
 197.797851562 1056 176.473632812 1034.96679688 176.00390625 1008.87988281 c 2
 168.042294579 567.010435081 l 2
 166.486096284 540.944368474 186.895531614 516 215.99609375 516 c 0
 220.552762246 516 224.9619345 516.636276507 229.139563415 517.824764444 c 0
 241.026873375 521.206534192 251.039602586 529.059262656 257.240630893 539.44594673 c 0
EndSplineSet
EndChar

StartChar: equal
Encoding: 61 61 64
Width: 1008
VWidth: 4000
Flags: HW
LayerCount: 2
Fore
SplineSet
184 556 m 6
 157.5078125 556 136 534.4921875 136 508 c 4
 136 481.5078125 157.5078125 460 184 460 c 6
 824 460 l 6
 850.4921875 460 872 481.5078125 872 508 c 4
 872 534.4921875 850.4921875 556 824 556 c 6
 184 556 l 6
184 336 m 6
 157.5078125 336 136 314.4921875 136 288 c 4
 136 261.5078125 157.5078125 240 184 240 c 6
 824 240 l 6
 850.4921875 240 872 261.5078125 872 288 c 4
 872 314.4921875 850.4921875 336 824 336 c 6
 184 336 l 6
EndSplineSet
EndChar

StartChar: E
Encoding: 69 69 65
Width: 1008
VWidth: 4000
Flags: HW
LayerCount: 2
Fore
SplineSet
612 668 m 2
 612 694.4921875 590.4921875 716 564 716 c 0
 537.5078125 716 516 694.4921875 516 668 c 2
 516 596 l 1
 272 596 l 1
 272 960 l 1
 796 960 l 1
 796 776 l 2
 796 749.5078125 817.5078125 728 844 728 c 0
 870.4921875 728 892 749.5078125 892 776 c 2
 892 1008 l 2
 892 1034.4921875 870.4921875 1056 844 1056 c 2
 144 1056 l 2
 117.5078125 1056 96 1034.4921875 96 1008 c 0
 96 981.5078125 117.5078125 960 144 960 c 2
 176 960 l 1
 176 96 l 1
 144 96 l 2
 117.5078125 96 96 74.4921875 96 48 c 0
 96 21.5078125 117.5078125 0 144 0 c 2
 864 0 l 2
 890.4921875 0 912 21.5078125 912 48 c 2
 912 288 l 2
 912 314.4921875 890.4921875 336 864 336 c 0
 837.5078125 336 816 314.4921875 816 288 c 2
 816 96 l 1
 272 96 l 1
 272 500 l 1
 516 500 l 1
 516 408 l 2
 516 381.5078125 537.5078125 360 564 360 c 0
 590.4921875 360 612 381.5078125 612 408 c 2
 612 548 l 1
 612 668 l 2
EndSplineSet
EndChar

StartChar: M
Encoding: 77 77 66
Width: 1008
VWidth: 4000
Flags: HW
LayerCount: 2
Fore
SplineSet
104 1056 m 2
 77.5078125 1056 56 1034.4921875 56 1008 c 0
 56 981.5078125 77.5078125 960 104 960 c 2
 136 960 l 1
 136 96 l 1
 104 96 l 2
 77.5078125 96 56 74.4921875 56 48 c 0
 56 21.5078125 77.5078125 0 104 0 c 2
 264 0 l 2
 290.4921875 0 312 21.5078125 312 48 c 0
 312 74.4921875 290.4921875 96 264 96 c 2
 232 96 l 1
 232 960 l 1
 245.747070312 960 l 1
 457.2109375 37.25 l 2
 462.09765625 15.9267578125 481.203125 0 504 0 c 0
 526.796875 0 545.90234375 15.9267578125 550.7890625 37.25 c 2
 762.252929688 960 l 1
 776 960 l 1
 776 96 l 1
 744 96 l 2
 717.5078125 96 696 74.4921875 696 48 c 0
 696 21.5078125 717.5078125 0 744 0 c 2
 904 0 l 2
 930.4921875 0 952 21.5078125 952 48 c 0
 952 74.4921875 930.4921875 96 904 96 c 2
 872 96 l 1
 872 960 l 1
 904 960 l 2
 930.4921875 960 952 981.5078125 952 1008 c 0
 952 1034.4921875 930.4921875 1056 904 1056 c 2
 724 1056 l 2
 701.203125 1056 682.09765625 1040.07324219 677.2109375 1018.75 c 2
 504 262.921875 l 1
 330.7890625 1018.75 l 2
 325.90234375 1040.07324219 306.796875 1056 284 1056 c 2
 104 1056 l 2
EndSplineSet
EndChar

StartChar: U
Encoding: 85 85 67
Width: 1008
VWidth: 4000
Flags: HW
LayerCount: 2
Fore
SplineSet
684 1056 m 2
 657.5078125 1056 636 1034.4921875 636 1008 c 0
 636 981.5078125 657.5078125 960 684 960 c 2
 746 960 l 1
 746 318 l 2
 746 183.65234375 637.198242188 76.1875 504.3125 76.1875 c 0
 370.307617188 76.1875 262 183.942382812 262 318 c 2
 262 960 l 1
 324 960 l 2
 350.4921875 960 372 981.5078125 372 1008 c 0
 372 1034.4921875 350.4921875 1056 324 1056 c 2
 214 1056 l 1
 104 1056 l 2
 77.5078125 1056 56 1034.4921875 56 1008 c 0
 56 981.5078125 77.5078125 960 104 960 c 2
 166 960 l 1
 166 318 l 2
 166 131.548828125 316.736328125 -19.8125 504.3125 -19.8125 c 0
 690.379882812 -19.8125 842 130.901367188 842 318 c 2
 842 960 l 1
 904 960 l 2
 930.4921875 960 952 981.5078125 952 1008 c 0
 952 1034.4921875 930.4921875 1056 904 1056 c 2
 794 1056 l 1
 684 1056 l 2
EndSplineSet
EndChar

StartChar: bracketright
Encoding: 93 93 68
Width: 1008
VWidth: 4000
Flags: HW
LayerCount: 2
Fore
SplineSet
404 1056 m 6
 377.5078125 1056 356 1034.4921875 356 1008 c 4
 356 981.5078125 377.5078125 960 404 960 c 6
 556 960 l 5
 556 -144 l 5
 404 -144 l 6
 377.5078125 -144 356 -165.5078125 356 -192 c 4
 356 -218.4921875 377.5078125 -240 404 -240 c 6
 604 -240 l 6
 630.4921875 -240 652 -218.4921875 652 -192 c 6
 652 1008 l 6
 652 1034.4921875 630.4921875 1056 604 1056 c 6
 404 1056 l 6
EndSplineSet
EndChar

StartChar: e
Encoding: 101 101 69
Width: 1008
VWidth: 4000
Flags: HW
LayerCount: 2
Fore
SplineSet
756.264648438 226.067382812 m 0
 754.849609375 223.59375 663.32421875 76 514.006835938 76 c 0
 367.82421875 76 260.357421875 199.120117188 248.995117188 362 c 1
 808.006835938 362 l 2
 834.499023438 362 856.006835938 383.5078125 856.006835938 410 c 0
 856.006835938 586.744140625 722.822265625 776 498.006835938 776 c 0
 320.078125 776 152.0078125 625.200195312 152.0078125 394.845703125 c 0
 150.2421875 155.780273438 311.06640625 -20 514.006835938 -20 c 0
 608.0390625 -20 683.065429688 20.404296875 735.986328125 62.8505859375 c 0
 802.32421875 116.056640625 836.938476562 173.9375 838.624023438 176.745117188 c 0
 857.708007812 208.522460938 834.700195312 249.40625 797.444335938 249.40625 c 0
 779.966796875 249.40625 764.658203125 240.044921875 756.264648438 226.067382812 c 0
498.006835938 680 m 0
 641.643554688 680 735.350585938 574.329101562 755.791015625 458 c 1
 253.641601562 458 l 1
 279.586914062 599.822265625 390.853515625 680 498.006835938 680 c 0
EndSplineSet
EndChar

StartChar: m
Encoding: 109 109 70
Width: 1008
VWidth: 4000
Flags: HW
LayerCount: 2
Fore
SplineSet
131.6171875 96 m 2
 105.125 96 83.6171875 74.4921875 83.6171875 48 c 0
 83.6171875 21.5078125 105.125 0 131.6171875 0 c 2
 195.6171875 0 l 1
 259.6171875 0 l 2
 286.109375 0 307.6171875 21.5078125 307.6171875 48 c 0
 307.6171875 74.4921875 286.109375 96 259.6171875 96 c 2
 243.6171875 96 l 1
 243.6171875 560.140927635 l 1
 303.620368473 646.968699483 346.945895423 680 393.9921875 680 c 0
 409.6953125 680 434.051757812 677.049804688 447.755859375 641.688476562 c 0
 452.970703125 628.232421875 456.0078125 610.970703125 456.0078125 592.5625 c 2
 456.0078125 576.960488342 l 2
 455.96329713 575.777873643 456.0078125 574.597764582 456.0078125 573.422452175 c 2
 456.0078125 96 l 1
 440.0078125 96 l 2
 413.515625 96 392.0078125 74.4921875 392.0078125 48 c 0
 392.0078125 21.5078125 413.515625 0 440.0078125 0 c 2
 504.0078125 0 l 1
 568.0078125 0 l 2
 594.5 0 616.0078125 21.5078125 616.0078125 48 c 0
 616.0078125 74.4921875 594.5 96 568.0078125 96 c 2
 552.0078125 96 l 1
 552.0078125 560.144239578 l 1
 611.994686253 646.966720763 655.336654866 680 702.3671875 680 c 0
 718.0703125 680 742.426757812 677.049804688 756.130859375 641.688476562 c 0
 761.345703125 628.232421875 764.3828125 610.970703125 764.3828125 592.5625 c 2
 764.3828125 96 l 1
 748.3828125 96 l 2
 721.890625 96 700.3828125 74.4921875 700.3828125 48 c 0
 700.3828125 21.5078125 721.890625 0 748.3828125 0 c 2
 812.3828125 0 l 1
 876.3828125 0 l 2
 902.875 0 924.3828125 21.5078125 924.3828125 48 c 0
 924.3828125 74.4921875 902.875 96 876.3828125 96 c 2
 860.3828125 96 l 1
 860.3828125 592.5625 l 2
 860.3828125 701.41796875 797.151367188 776 702.3671875 776 c 0
 632.779230612 776 578.946914817 741.521190151 531.496207224 689.770142789 c 1
 505.578836211 743.368168044 456.688136446 776 393.9921875 776 c 0
 334.188424992 776 286.026952748 750.541661095 243.55080227 710.543790571 c 1
 242.226529357 735.855362217 221.256090081 755.999999707 195.6171875 756 c 2
 132.0078125 756 l 2
 105.515625 756 84.0078125 734.4921875 84.0078125 708 c 0
 84.0078125 681.5078125 105.515625 660 132.0078125 660 c 2
 147.6171875 660 l 1
 147.6171875 576.960191996 l 2
 147.572715619 575.778147454 147.6171875 574.598605757 147.6171875 573.423854691 c 2
 147.6171875 96 l 1
 131.6171875 96 l 2
EndSplineSet
EndChar

StartChar: u
Encoding: 117 117 71
Width: 1008
VWidth: 4000
Flags: HW
LayerCount: 2
Fore
SplineSet
856 0 m 2
 882.4921875 0 904 21.5078125 904 48 c 0
 904 74.4921875 882.4921875 96 856 96 c 2
 788 96 l 1
 788 273.71875 l 1
 788 708 l 2
 788 734.4921875 766.4921875 756 740 756 c 2
 632 756 l 2
 605.5078125 756 584 734.4921875 584 708 c 0
 584 681.5078125 605.5078125 660 632 660 c 2
 692 660 l 1
 692 288.563635148 l 1
 595.256992634 147.247809411 544.09688814 76 456.53125 76 c 0
 362.482421875 76 308 174.103515625 308 268 c 2
 308 708 l 2
 308 734.4921875 286.4921875 756 260 756 c 2
 152 756 l 2
 125.5078125 756 104 734.4921875 104 708 c 0
 104 681.5078125 125.5078125 660 152 660 c 2
 212 660 l 1
 212 268 l 2
 212 113.525390625 312.317382812 -20 456.53125 -20 c 0
 558.135295261 -20 625.69234872 37.3910926181 692 122.867753018 c 1
 692 48 l 2
 692 21.5078125 713.5078125 0 740 0 c 2
 856 0 l 2
EndSplineSet
EndChar

StartChar: asciitilde
Encoding: 126 126 72
Width: 1008
VWidth: 4000
Flags: HW
LayerCount: 2
Fore
SplineSet
344 416 m 0
 200.264648438 416 136 292.252929688 136 208 c 0
 136 181.5078125 157.5078125 160 184 160 c 0
 210.4921875 160 232 181.5078125 232 208 c 0
 232 224.841796875 246.368164062 320 344 320 c 0
 439.341796875 320 523.510742188 160 664 160 c 0
 807.796875 160 872 286.517578125 872 368 c 0
 872 394.4921875 850.4921875 416 824 416 c 0
 797.5078125 416 776 394.4921875 776 368 c 0
 776 366.974609375 773.579101562 310.032226562 729.696289062 276.4765625 c 0
 714.080078125 264.53515625 693.877929688 256 664 256 c 0
 568.658203125 256 484.489257812 416 344 416 c 0
EndSplineSet
EndChar

StartChar: ampersand
Encoding: 38 38 73
Width: 1008
VWidth: 4000
Flags: HW
LayerCount: 2
Fore
SplineSet
583.823242188 130.803710938 m 1
 664.668945312 26.35546875 724.168945312 -20 790.48046875 -20 c 0
 842.3515625 -20 896.669921875 2.6103515625 934.375976562 77.4501953125 c 0
 950.340820312 109.137695312 927.216796875 147 891.48046875 147 c 0
 872.736328125 147 856.486328125 136.232421875 848.584960938 120.549804688 c 0
 827.487304688 78.6728515625 807.333007812 76 790.48046875 76 c 0
 746.389648438 76 677.721679688 163.791015625 627.934570312 232.5625 c 1
 647.154296875 281.169921875 684.088867188 360.356445312 731.75390625 394.791992188 c 0
 783.069335938 431.865234375 802.48046875 382.200195312 802.48046875 367 c 0
 802.48046875 340.5078125 823.98828125 319 850.48046875 319 c 0
 876.97265625 319 898.48046875 340.5078125 898.48046875 367 c 0
 898.48046875 432.172851562 846.474609375 504.21875 764.69921875 504.21875 c 0
 667.188476562 504.21875 598.748046875 397.265625 563.635742188 325.014648438 c 1
 561.956054688 327.50390625 465.1875 472.122070312 399.8203125 576.681640625 c 1
 514.395507812 689.7421875 586.48046875 769.463867188 586.48046875 878 c 0
 586.48046875 994.766601562 498.099609375 1076 382.48046875 1076 c 0
 267.87109375 1076 174.48046875 992.413085938 174.48046875 865 c 0
 174.48046875 795.750976562 203.618164062 718.03515625 278.060546875 591.853515625 c 1
 270.013671875 584.051757812 262.2109375 576.520507812 254.643554688 569.217773438 c 0
 189.637695312 506.478515625 140.193359375 460.165039062 107.33203125 401.34375 c 0
 80.892578125 354.016601562 68.48046875 301.024414062 68.48046875 236 c 0
 68.48046875 65.8642578125 207.856445312 -20 330.48046875 -20 c 0
 415.465820312 -20 512.600585938 3.0078125 583.823242188 130.803710938 c 1
348.768554688 661.314453125 m 1
 314.83984375 720.356445312 270.48046875 804.569335938 270.48046875 865 c 0
 270.48046875 950.796875 333.033203125 980 382.48046875 980 c 0
 428.802734375 980 490.48046875 955.659179688 490.48046875 878 c 0
 490.48046875 817.35546875 456.1953125 768.67578125 348.768554688 661.314453125 c 1
519.826171875 218.766601562 m 1
 469.069335938 96.4404296875 404.169921875 76 330.48046875 76 c 0
 273.392578125 76 164.48046875 110.756835938 164.48046875 236 c 0
 164.48046875 344.538085938 199.997070312 383.084960938 321.288085938 500.145507812 c 0
 323.979492188 502.743164062 326.70703125 508.044921875 329.471679688 508.044921875 c 0
 341.331054688 489.276367188 451.112304688 317.750976562 519.826171875 218.766601562 c 1
EndSplineSet
EndChar

StartChar: six
Encoding: 54 54 74
Width: 1008
VWidth: 4000
Flags: HW
LayerCount: 2
Fore
SplineSet
562.109375 980 m 0
 713.10546875 980 787.030273438 855.731445312 788.221679688 853.4296875 c 0
 796.493164062 838.961914062 812.077148438 829.203125 829.921875 829.203125 c 0
 866.736328125 829.203125 889.790039062 869.201171875 871.622070312 900.9765625 c 0
 869.469726562 904.7421875 827.10546875 979.3203125 735.75 1030.76074219 c 0
 690.008789062 1056.515625 631.779296875 1076 562.109375 1076 c 0
 353.39453125 1076 110.921875 903.583007812 110.921875 524.3125 c 0
 110.921875 448.600899719 112.835474714 341.329903864 172.725070827 203.729205302 c 1
 224.902140543 71.8040587004 365.464828823 -18.9218754691 524.125 -18.921875 c 0
 725.124023438 -18.921875 897.078125 126.685546875 897.078125 317.203125 c 0
 897.078125 507.720703125 725.124023438 653.328125 524.125 653.328125 c 0
 392.713219125 653.328125 273.71655819 591.088893834 207.072545812 494.751380435 c 1
 206.933432131 504.87123757 206.921875 514.709368878 206.921875 524.3125 c 0
 206.921875 851.588867188 407.521484375 980 562.109375 980 c 0
247.171875 317.203125 m 0
 247.171875 444.935546875 366.186523438 557.328125 524.125 557.328125 c 0
 682.063476562 557.328125 801.078125 444.935546875 801.078125 317.203125 c 0
 801.078125 189.470703125 682.063476562 77.078125 524.125 77.078125 c 0
 366.186523438 77.078125 247.171875 189.470703125 247.171875 317.203125 c 0
EndSplineSet
EndChar

StartChar: nine
Encoding: 57 57 75
Width: 1008
VWidth: 4000
Flags: HW
LayerCount: 2
Fore
SplineSet
445.890625 77.078125 m 0
 294.89453125 77.078125 220.969726562 201.346679688 219.778320312 203.6484375 c 0
 211.506835938 218.116210938 195.922851562 227.875 178.078125 227.875 c 0
 141.263671875 227.875 118.209960938 187.876953125 136.377929688 156.1015625 c 0
 138.530273438 152.3359375 180.89453125 77.7578125 272.25 26.3173828125 c 0
 317.991210938 0.5625 376.220703125 -18.921875 445.890625 -18.921875 c 0
 654.60546875 -18.921875 897.078125 153.495117188 897.078125 532.765625 c 0
 897.078125 608.477225281 895.164525286 715.748221136 835.274929173 853.348919698 c 1
 783.097859457 985.2740663 642.535171177 1076.00000047 483.875 1076 c 0
 282.875976562 1076 110.921875 930.392578125 110.921875 739.875 c 0
 110.921875 549.357421875 282.875976562 403.75 483.875 403.75 c 0
 615.286780875 403.75 734.28344181 465.989231166 800.927454188 562.326744565 c 1
 801.066567869 552.20688743 801.078125 542.368756122 801.078125 532.765625 c 0
 801.078125 205.489257812 600.478515625 77.078125 445.890625 77.078125 c 0
760.828125 739.875 m 0
 760.828125 612.142578125 641.813476562 499.75 483.875 499.75 c 0
 325.936523438 499.75 206.921875 612.142578125 206.921875 739.875 c 0
 206.921875 867.607421875 325.936523438 980 483.875 980 c 0
 641.813476562 980 760.828125 867.607421875 760.828125 739.875 c 0
EndSplineSet
EndChar

StartChar: F
Encoding: 70 70 76
Width: 1008
VWidth: 4000
Flags: HW
LayerCount: 2
Fore
SplineSet
630 668 m 2
 630 694.4921875 608.4921875 716 582 716 c 0
 555.5078125 716 534 694.4921875 534 668 c 2
 534 596 l 1
 298 596 l 1
 298 960 l 1
 810 960 l 1
 810 788 l 2
 810 761.5078125 831.5078125 740 858 740 c 0
 884.4921875 740 906 761.5078125 906 788 c 2
 906 1008 l 2
 906 1034.4921875 884.4921875 1056 858 1056 c 2
 250 1056 l 1
 150 1056 l 2
 123.5078125 1056 102 1034.4921875 102 1008 c 0
 102 981.5078125 123.5078125 960 150 960 c 2
 202 960 l 1
 202 96 l 1
 150 96 l 2
 123.5078125 96 102 74.4921875 102 48 c 0
 102 21.5078125 123.5078125 0 150 0 c 2
 250 0 l 1
 350 0 l 2
 376.4921875 0 398 21.5078125 398 48 c 0
 398 74.4921875 376.4921875 96 350 96 c 2
 298 96 l 1
 298 500 l 1
 534 500 l 1
 534 408 l 2
 534 381.5078125 555.5078125 360 582 360 c 0
 608.4921875 360 630 381.5078125 630 408 c 2
 630 668 l 2
EndSplineSet
EndChar

StartChar: N
Encoding: 78 78 77
Width: 1008
VWidth: 4000
Flags: HW
LayerCount: 2
Fore
SplineSet
684 1056 m 2
 657.5078125 1056 636 1034.4921875 636 1008 c 0
 636 981.5078125 657.5078125 960 684 960 c 2
 736 960 l 1
 736 225.548828125 l 1
 265.4921875 1032.13476562 l 2
 257.168945312 1046.40332031 241.696289062 1056 224 1056 c 2
 124 1056 l 2
 97.5078125 1056 76 1034.4921875 76 1008 c 0
 76 981.5078125 97.5078125 960 124 960 c 2
 176 960 l 1
 176 96 l 1
 124 96 l 2
 97.5078125 96 76 74.4921875 76 48 c 0
 76 21.5078125 97.5078125 0 124 0 c 2
 324 0 l 2
 350.4921875 0 372 21.5078125 372 48 c 0
 372 74.4921875 350.4921875 96 324 96 c 2
 272 96 l 1
 272 830.45077702 l 1
 742.5078125 23.865234375 l 2
 750.831054688 9.5966796875 766.303710938 0 784 0 c 0
 810.4921875 0 832 21.5078125 832 48 c 2
 832 960 l 1
 884 960 l 2
 910.4921875 960 932 981.5078125 932 1008 c 0
 932 1034.4921875 910.4921875 1056 884 1056 c 2
 784 1056 l 1
 684 1056 l 2
EndSplineSet
EndChar

StartChar: V
Encoding: 86 86 78
Width: 1008
VWidth: 4000
Flags: HW
LayerCount: 2
Fore
SplineSet
664 1056 m 2
 637.5078125 1056 616 1034.4921875 616 1008 c 0
 616 981.5078125 637.5078125 960 664 960 c 2
 721.261037962 960 l 1
 503.029296875 154.219726562 l 1
 268.009747999 960 l 1
 344 960 l 2
 370.4921875 960 392 981.5078125 392 1008 c 0
 392 1034.4921875 370.4921875 1056 344 1056 c 2
 204 1056 l 1
 124 1056 l 2
 97.5078125 1056 76 1034.4921875 76 1008 c 0
 76 981.5078125 97.5078125 960 124 960 c 2
 167.990275065 960 l 1
 437.912109375 34.5537109375 l 2
 443.732421875 14.59765625 462.174804688 0 484 0 c 2
 524 0 l 2
 546.146484375 0 564.809570312 15.0302734375 570.336914062 35.4384765625 c 2
 820.738993327 960 l 1
 884 960 l 2
 910.4921875 960 932 981.5078125 932 1008 c 0
 932 1034.4921875 910.4921875 1056 884 1056 c 2
 784 1056 l 1
 664 1056 l 2
EndSplineSet
EndChar

StartChar: asciicircum
Encoding: 94 94 79
Width: 1008
VWidth: 4000
Flags: HW
LayerCount: 2
Fore
SplineSet
262.009765625 671.259765625 m 6
 244.362304688 639.494140625 267.4375 600 304 600 c 4
 322.055664062 600 337.795898438 609.990234375 345.990234375 624.740234375 c 6
 504 909.158203125 l 5
 662.009765625 624.740234375 l 6
 670.204101562 609.990234375 685.944335938 600 704 600 c 4
 740.561523438 600 763.637695312 639.494140625 745.990234375 671.259765625 c 6
 545.990234375 1031.25976562 l 6
 527.717773438 1064.1484375 480.282226562 1064.1484375 462.009765625 1031.25976562 c 6
 262.009765625 671.259765625 l 6
EndSplineSet
EndChar

StartChar: f
Encoding: 102 102 80
Width: 1008
VWidth: 4000
Flags: HW
LayerCount: 2
Fore
SplineSet
249 756 m 2
 222.5078125 756 201 734.4921875 201 708 c 0
 201 681.5078125 222.5078125 660 249 660 c 2
 341 660 l 1
 341 96 l 1
 209 96 l 2
 182.5078125 96 161 74.4921875 161 48 c 0
 161 21.5078125 182.5078125 0 209 0 c 2
 569 0 l 2
 595.4921875 0 617 21.5078125 617 48 c 0
 617 74.4921875 595.4921875 96 569 96 c 2
 437 96 l 1
 437 660 l 1
 509 660 l 2
 535.4921875 660 557 681.5078125 557 708 c 0
 557 734.4921875 535.4921875 756 509 756 c 2
 437 756 l 1
 437 808 l 2
 437 895.831054688 490.783203125 980 589 980 c 0
 634.887466194 980 701.337480242 971.543398825 732.422032347 926.89563288 c 1
 707.787366168 913.777750636 691 887.832517624 691 858 c 0
 691 814.973632812 725.931640625 780 769 780 c 0
 811.685942664 780 846.410174075 814.364404938 846.992565436 856.913085925 c 0
 846.99751491 857.196676045 847 857.480862578 847 857.765625 c 0
 847 857.815679543 846.999957608 857.865728376 846.999957608 857.915771497 c 0
 846.999957608 857.943844214 847 857.971920383 847 858 c 0
 847 858.08890194 846.999552811 858.17776921 846.999552811 858.266601574 c 0
 846.77177518 985.702536792 759.601724243 1076 589 1076 c 0
 446.458007812 1076 341 958.577148438 341 808 c 2
 341 756 l 1
 249 756 l 2
EndSplineSet
EndChar

StartChar: n
Encoding: 110 110 81
Width: 1008
VWidth: 4000
Flags: HW
LayerCount: 2
Fore
SplineSet
545.09375 680 m 0
 638.32421875 680 686 598.573242188 686 523.78125 c 2
 686 96 l 1
 622 96 l 2
 595.5078125 96 574 74.4921875 574 48 c 0
 574 21.5078125 595.5078125 0 622 0 c 2
 734 0 l 1
 846 0 l 2
 872.4921875 0 894 21.5078125 894 48 c 0
 894 74.4921875 872.4921875 96 846 96 c 2
 782 96 l 1
 782 523.78125 l 2
 782 660.2421875 683.733398438 776 545.09375 776 c 0
 486.357421875 776 436.733398438 762.047851562 392.52734375 734.330078125 c 0
 365.905454867 717.637431721 341.711914383 697.095982174 317 672.742679682 c 1
 317 708 l 2
 317 734.4921875 295.4921875 756 269 756 c 2
 169 756 l 2
 142.5078125 756 121 734.4921875 121 708 c 0
 121 681.5078125 142.5078125 660 169 660 c 2
 221 660 l 1
 221 551.877210181 l 2
 220.989549266 551.301973862 221 550.727193777 221 550.15315153 c 2
 221 96 l 1
 162 96 l 2
 135.5078125 96 114 74.4921875 114 48 c 0
 114 21.5078125 135.5078125 0 162 0 c 2
 366 0 l 2
 392.4921875 0 414 21.5078125 414 48 c 0
 414 74.4921875 392.4921875 96 366 96 c 2
 317 96 l 1
 317 532.155959202 l 1
 421.22178126 647.502935572 459.14589485 680 545.09375 680 c 0
EndSplineSet
EndChar

StartChar: v
Encoding: 118 118 82
Width: 1008
VWidth: 4000
Flags: HW
LayerCount: 2
Fore
SplineSet
624 756 m 2
 597.5078125 756 576 734.4921875 576 708 c 0
 576 681.5078125 597.5078125 660 624 660 c 2
 711.487618501 660 l 1
 505.646484375 174.802734375 l 1
 314.507932985 660 l 1
 384 660 l 2
 410.4921875 660 432 681.5078125 432 708 c 0
 432 734.4921875 410.4921875 756 384 756 c 2
 244 756 l 1
 124 756 l 2
 97.5078125 756 76 734.4921875 76 708 c 0
 76 681.5078125 97.5078125 660 124 660 c 2
 211.31028054 660 l 1
 459.321289062 30.43359375 l 2
 474.998046875 -9.3603515625 531.490234375 -10.1240234375 548.209960938 29.287109375 c 2
 815.785126657 660 l 1
 884 660 l 2
 910.4921875 660 932 681.5078125 932 708 c 0
 932 734.4921875 910.4921875 756 884 756 c 2
 784 756 l 1
 624 756 l 2
EndSplineSet
EndChar

StartChar: quotesingle
Encoding: 39 39 83
Width: 1008
VWidth: 4000
Flags: HW
LayerCount: 2
Fore
SplineSet
503.962890625 560 m 0
 528.826171875 560 549.299804688 578.9453125 551.72265625 603.174804688 c 0
 591.962890625 1005.57421875 591.962890625 1005.57421875 591.962890625 1008 c 0
 591.962890625 1034.4921875 570.455078125 1056 543.962890625 1056 c 0
 463.962890625 1056 463.962890625 1056 463.962890625 1056 c 2
 439.493164062 1056 413.721679688 1036.22753906 416.203125 1003.17480469 c 2
 456.203125 603.174804688 l 2
 458.625976562 578.9453125 479.099609375 560 503.962890625 560 c 0
EndSplineSet
EndChar

StartChar: seven
Encoding: 55 55 84
Width: 1008
VWidth: 4000
Flags: HW
LayerCount: 2
Fore
SplineSet
166.850585938 1008 m 2
 166.850585938 1034.4921875 145.342773438 1056 118.850585938 1056 c 0
 92.3583984375 1056 70.8505859375 1034.4921875 70.8505859375 1008 c 2
 70.8505859375 748 l 2
 70.8505859375 721.5078125 92.3583984375 700 118.850585938 700 c 0
 145.342773438 700 166.850585938 721.5078125 166.850585938 748 c 0
 166.850585938 895.487304688 305.986328125 980 425.131835938 980 c 0
 568.112304688 980 629.180664062 921.296875 741.288085938 921.296875 c 0
 744.481862949 921.296875 747.632909381 921.338383095 750.741277099 921.419230797 c 1
 580.278860971 702.001244098 417.131835935 429.777399535 417.131835938 48 c 0
 417.131835938 21.5078125 438.639648438 0 465.131835938 0 c 0
 491.624023438 0 513.131835938 21.5078125 513.131835938 48 c 0
 513.131835938 469.70943691 726.045432635 745.286873426 925.357947491 984.505639077 c 0
 931.178416223 991.128327374 934.704885319 998.650870898 936.229874877 1006.36412914 c 0
 939.157154957 1020.88173706 934.944231027 1035.92297415 925.701605536 1046.99829462 c 0
 917.268660475 1057.15508508 904.592943364 1063.9999982 889.131835938 1064 c 0
 876.109375 1064 864.291015625 1058.80273438 855.639648438 1050.37109375 c 1
 856.375976562 1051.30761719 819.920898438 1017.296875 741.288085938 1017.296875 c 0
 654.274414062 1017.296875 580.15625 1076 425.131835938 1076 c 0
 328.849766052 1076 234.102548385 1038.177456 166.850585938 972.93607794 c 1
 166.850585938 1008 l 2
EndSplineSet
EndChar

StartChar: question
Encoding: 63 63 85
Width: 1008
VWidth: 4000
Flags: HW
LayerCount: 2
Fore
SplineSet
405.737304688 78.015625 m 0
 405.737304688 23.9052734375 449.658203125 -19.984375 503.737304688 -19.984375 c 0
 557.81640625 -19.984375 601.737304688 23.9052734375 601.737304688 78.015625 c 0
 601.737304688 132.107421875 557.829101562 176.015625 503.737304688 176.015625 c 0
 449.645507812 176.015625 405.737304688 132.107421875 405.737304688 78.015625 c 0
545.737304688 982 m 0
 643.545898438 982 736.784179688 912.20703125 736.784179688 851.8125 c 0
 736.784179688 785.952148438 714.319335938 740.229492188 660.294921875 698.962890625 c 0
 571.689453125 631.284179688 445.737304688 521.880859375 445.737304688 325 c 0
 445.737304688 298.5078125 467.245117188 277 493.737304688 277 c 0
 520.229492188 277 541.737304688 298.5078125 541.737304688 325 c 0
 541.737304688 464.317382812 620.083007812 547.463867188 718.4921875 622.630859375 c 0
 816.754882812 697.688476562 832.784179688 785.975585938 832.784179688 851.8125 c 0
 832.784179688 973.642578125 690.419921875 1078 545.737304688 1078 c 0
 352.226558281 1078 162.533398732 890.218367319 270.753414113 693.629749345 c 0
 283.945665731 669.239536119 309.756373976 652.656249184 339.409179688 652.65625 c 0
 382.458007812 652.65625 417.409179688 687.607421875 417.409179688 730.65625 c 0
 417.409179688 773.705078125 382.458007812 808.65625 339.409179688 808.65625 c 0
 338.040437478 808.65625 336.679881423 808.620916847 335.328374666 808.551113682 c 1
 335.320373968 809.13033527 335.31640625 809.708022425 335.31640625 810.284179688 c 0
 335.31640625 905.334960938 446.266601562 982 545.737304688 982 c 0
EndSplineSet
EndChar

StartChar: G
Encoding: 71 71 86
Width: 1008
VWidth: 4000
Flags: HW
LayerCount: 2
Fore
SplineSet
874 340 m 2
 900.4921875 340 922 361.5078125 922 388 c 0
 922 414.4921875 900.4921875 436 874 436 c 2
 794 436 l 1
 614 436 l 2
 587.5078125 436 566 414.4921875 566 388 c 0
 566 361.5078125 587.5078125 340 614 340 c 2
 746 340 l 1
 746 297.178290366 l 1
 699.786886177 184.003840787 597.824317245 76 474 76 c 0
 306.466796875 76 182 277.811523438 182 528 c 0
 182 776.354492188 293.099609375 980 454 980 c 0
 545.337890625 980 613.329101562 945.033203125 663.326171875 892.604492188 c 0
 703.479564524 850.497158407 732.043909313 796.024336898 747.693397108 739.327493175 c 0
 753.257811491 718.976061003 771.893575723 703.999999983 794 704 c 0
 804.970132919 704 814.890295098 707.625866268 822.828175411 713.628476502 c 0
 831.529798935 720.178809293 837.935737012 729.618430498 840.615305365 740.516657068 c 0
 841.655975251 744.691081434 842.142097483 749.04924553 842 753.492443877 c 2
 842 1008 l 2
 842 1034.4921875 820.4921875 1056 794 1056 c 0
 767.5078125 1056 746 1034.4921875 746 1008 c 2
 746 944.275936826 l 1
 676.722833631 1024.14319853 577.549532483 1076 454 1076 c 0
 240.028320312 1076 86 840.823242188 86 528 c 0
 86 217.588867188 252.862304688 -20 474 -20 c 0
 579.662515116 -20 675.034264097 34.1332657441 746 115.559847083 c 1
 746 48 l 2
 746 21.5078125 767.5078125 0 794 0 c 0
 820.4921875 0 842 21.5078125 842 48 c 2
 842 288 l 1
 842 340 l 1
 874 340 l 2
EndSplineSet
EndChar

StartChar: W
Encoding: 87 87 87
Width: 1008
VWidth: 4000
Flags: HW
LayerCount: 2
Fore
SplineSet
240 960 m 2
 266.4921875 960 288 981.5078125 288 1008 c 0
 288 1034.4921875 266.4921875 1056 240 1056 c 2
 144 1056 l 1
 116 1056 l 2
 89.5078125 1056 68 1034.4921875 68 1008 c 0
 68 985.99930586 82.8331493073 967.436152315 103.035854105 961.774133182 c 1
 256.654296875 40.0634765625 l 2
 260.44140625 17.3427734375 280.2109375 0 304 0 c 2
 324 0 l 2
 347.732421875 0 367.46484375 17.259765625 371.318359375 39.9013671875 c 2
 504 819.406005859 l 1
 636.681640625 39.9013671875 l 2
 640.53515625 17.259765625 660.267578125 0 684 0 c 2
 704 0 l 2
 727.7890625 0 747.55859375 17.3427734375 751.345703125 40.0634765625 c 2
 904.964145895 961.774133182 l 1
 925.166850693 967.436152315 940 985.99930586 940 1008 c 0
 940 1034.4921875 918.4921875 1056 892 1056 c 2
 864 1056 l 1
 768 1056 l 2
 741.5078125 1056 720 1034.4921875 720 1008 c 0
 720 981.5078125 741.5078125 960 768 960 c 2
 807.331567632 960 l 1
 693.607421875 277.653320312 l 1
 577.462832569 960 l 1
 584 960 l 2
 610.4921875 960 632 981.5078125 632 1008 c 0
 632 1034.4921875 610.4921875 1056 584 1056 c 2
 424 1056 l 2
 397.5078125 1056 376 1034.4921875 376 1008 c 0
 376 981.5078125 397.5078125 960 424 960 c 2
 430.537167431 960 l 1
 314.392578125 277.653320312 l 1
 200.668432368 960 l 1
 240 960 l 2
EndSplineSet
EndChar

StartChar: underscore
Encoding: 95 95 88
Width: 1008
VWidth: 4000
Flags: HW
LayerCount: 2
Fore
SplineSet
64 -204 m 2
 37.5078125 -204 16 -225.5078125 16 -252 c 0
 16 -278.4921875 37.5078125 -300 64 -300 c 2
 944 -300 l 2
 970.4921875 -300 992 -278.4921875 992 -252 c 0
 992 -225.5078125 970.4921875 -204 944 -204 c 2
 64 -204 l 2
EndSplineSet
EndChar

StartChar: g
Encoding: 103 103 89
Width: 1008
VWidth: 4000
Flags: HW
LayerCount: 2
Fore
SplineSet
222 498.015625 m 0
 222 598.553710938 303.450195312 680.015625 404 680.015625 c 0
 504.53515625 680.015625 586 598.55078125 586 498.015625 c 0
 586 397.465820312 504.538085938 316.015625 404 316.015625 c 0
 303.447265625 316.015625 222 397.462890625 222 498.015625 c 0
786 -112 m 0
 786 -135.4609375 779.39453125 -166.209960938 725.635742188 -190.645507812 c 0
 683.6328125 -209.737304688 612.229492188 -224 504 -224 c 0
 465.8515625 -224 288.4375 -223.552734375 236.813476562 -157.8125 c 0
 226.436523438 -144.598632812 222 -130.408203125 222 -112 c 0
 222 -88.4951171875 228.631835938 -57.7685546875 282.356445312 -33.349609375 c 0
 324.357421875 -14.2607421875 395.762695312 0 504 0 c 0
 542.162109375 0 719.5625 -0.44921875 771.184570312 -66.1826171875 c 0
 781.561523438 -79.3955078125 786 -93.5869140625 786 -112 c 0
846.723632812 -217.032226562 m 0
 893.94140625 -156.91015625 893.920898438 -67.0576171875 846.724609375 -6.9609375 c 0
 778.083007812 80.4423828125 628.172851562 96 504 96 c 0
 406.475585938 96 340.109375 103.627929688 300.590820312 115.30859375 c 0
 250.140625 130.220703125 250.140625 147.262695312 250.140625 157.125 c 0
 250.140625 177.962890625 258.184570312 190.489257812 281.297851562 201.225585938 c 0
 304.03125 211.787109375 344.548828125 220 404 220 c 0
 404.454084225 220 404.906704091 220.006318783 405.357776389 220.018873162 c 0
 558.213731435 220.750356033 681.978940612 344.934700725 681.999995851 497.976562505 c 0
 681.999995851 497.984374569 682 497.992187068 682 498 c 0
 682 630.275390625 711.921875 644.747070312 734.65625 652.518554688 c 0
 748.020507812 657.086914062 767.64453125 660 794 660 c 0
 820.4921875 660 842 681.5078125 842 708 c 0
 842 734.4921875 820.4921875 756 794 756 c 0
 755.376953125 756 665.754882812 754.013671875 619.783203125 675.653320312 c 0
 619.512152101 675.191278079 619.243039289 674.727511286 618.975854224 674.262017193 c 1
 567.98476317 736.37892613 490.607315503 776.015624968 404 776.015625 c 0
 250.487304688 776.015625 126 651.508789062 126 498.015625 c 0
 126 410.892289925 166.098880781 333.116280203 228.843823905 282.14041427 c 1
 205.460231573 269.21788138 185.163272204 251.395596069 171.416015625 226.830078125 c 0
 150.088867188 188.717773438 145.920898438 131.729492188 173.173828125 89.2705078125 c 0
 184.905843669 70.9927370574 201.375103706 56.0716158647 222.708848896 44.0284990705 c 1
 198.585427915 30.6027442522 177.622389694 13.8600544964 161.271484375 -6.9619140625 c 0
 114.073242188 -67.06640625 114.067382812 -156.919921875 161.271484375 -217.03125 c 0
 229.916015625 -304.4453125 379.845703125 -320 504 -320 c 0
 627.6953125 -320 777.969726562 -304.578125 846.723632812 -217.032226562 c 0
EndSplineSet
EndChar

StartChar: o
Encoding: 111 111 90
Width: 1008
VWidth: 4000
Flags: HW
LayerCount: 2
Fore
SplineSet
231.9921875 378.015625 m 0
 231.9921875 548.516601562 357.416992188 680.015625 504.0078125 680.015625 c 0
 650.581054688 680.015625 776.0078125 548.517578125 776.0078125 378.015625 c 0
 776.0078125 207.498046875 650.583007812 76.015625 504.0078125 76.015625 c 0
 357.415039062 76.015625 231.9921875 207.499023438 231.9921875 378.015625 c 0
135.9921875 378.015625 m 0
 135.9921875 161.907226562 297.131835938 -19.984375 504.0078125 -19.984375 c 0
 710.870117188 -19.984375 872.0078125 161.908203125 872.0078125 378.015625 c 0
 872.0078125 594.107421875 710.872070312 776.015625 504.0078125 776.015625 c 4
 297.129882812 776.015625 135.9921875 594.108398438 135.9921875 378.015625 c 0
EndSplineSet
EndChar

StartChar: w
Encoding: 119 119 91
Width: 1008
VWidth: 4000
Flags: HW
LayerCount: 2
Fore
SplineSet
664 0 m 0
 686.1171875 0 704.759765625 14.9912109375 710.314453125 35.357421875 c 2
 880.671519886 660 l 1
 884 660 l 2
 910.4921875 660 932 681.5078125 932 708 c 0
 932 734.4921875 910.4921875 756 884 756 c 2
 844 756 l 1
 752 756 l 2
 725.5078125 756 704 734.4921875 704 708 c 0
 704 681.5078125 725.5078125 660 752 660 c 2
 781.146628477 660 l 1
 666.01953125 237.868164062 l 1
 560.486125922 660 l 1
 574 660 l 2
 600.4921875 660 622 681.5078125 622 708 c 0
 622 734.4921875 600.4921875 756 574 756 c 2
 434 756 l 2
 407.5078125 756 386 734.4921875 386 708 c 0
 386 681.5078125 407.5078125 660 434 660 c 2
 447.513874078 660 l 1
 341.98046875 237.868164062 l 1
 226.853371523 660 l 1
 256 660 l 2
 282.4921875 660 304 681.5078125 304 708 c 0
 304 734.4921875 282.4921875 756 256 756 c 2
 164 756 l 1
 124 756 l 2
 97.5078125 756 76 734.4921875 76 708 c 0
 76 681.5078125 97.5078125 660 124 660 c 2
 127.328480114 660 l 1
 297.685546875 35.357421875 l 2
 303.240234375 14.9912109375 321.8828125 0 344 0 c 0
 366.469726562 0 385.354492188 15.4736328125 390.5703125 36.3369140625 c 2
 504 490.053710938 l 1
 617.4296875 36.3369140625 l 2
 622.645507812 15.4736328125 641.530273438 0 664 0 c 0
EndSplineSet
EndChar

StartChar: braceright
Encoding: 125 125 92
Width: 1008
VWidth: 4000
Flags: HW
LayerCount: 2
Fore
SplineSet
304 960.671875 m 0
 397.654296875 960.671875 456 901.31640625 456 848.671875 c 2
 456 568 l 2
 456 508.045898438 495.370117188 475.158203125 515.232421875 460.254882812 c 2
 624.009765625 378.671875 l 1
 515.232421875 297.088867188 l 2
 495.41796875 282.221679688 456 249.331054688 456 189.34375 c 2
 456 -91.328125 l 2
 456 -143.969726562 397.657226562 -203.328125 304 -203.328125 c 0
 277.5078125 -203.328125 256 -224.8359375 256 -251.328125 c 0
 256 -277.8203125 277.5078125 -299.328125 304 -299.328125 c 0
 450.540039062 -299.328125 552 -198.251953125 552 -91.328125 c 2
 552 189.34375 l 2
 552 196.291015625 552 204.672851562 572.767578125 220.254882812 c 2
 732.759765625 340.249023438 l 2
 743.581241714 348.365202339 749.507209001 359.187252323 751.315769969 370.420195493 c 0
 751.76453851 373.076163431 751.999999897 375.830406611 752 378.671875 c 0
 752 391.578114031 746.895343843 403.301639238 738.59650607 411.931434107 c 0
 736.072487965 414.631494805 733.220805618 417.051912382 730.068388304 419.113259553 c 2
 572.767578125 537.088867188 l 2
 564.28515625 543.453125 559.227539062 548.752929688 556.521484375 552.657226562 c 0
 553.282226562 557.329101562 552 560.495117188 552 568 c 2
 552 848.671875 l 2
 552 955.600585938 450.53515625 1056.671875 304 1056.671875 c 0
 277.5078125 1056.671875 256 1035.1640625 256 1008.671875 c 0
 256 982.1796875 277.5078125 960.671875 304 960.671875 c 0
EndSplineSet
EndChar

StartChar: NameMe.65536
Encoding: 65536 -1 93
Width: 1008
VWidth: 4000
Flags: HW
LayerCount: 2
Fore
SplineSet
416 1208 m 0
 416 1159.42871094 455.428710938 1120 504 1120 c 0
 552.571289062 1120 592 1159.42871094 592 1208 c 0
 592 1256.57128906 552.571289062 1296 504 1296 c 0
 455.428710938 1296 416 1256.57128906 416 1208 c 0
EndSplineSet
EndChar

StartChar: NameMe.65537
Encoding: 65537 -1 94
Width: 1008
VWidth: 4000
Flags: HW
LayerCount: 2
Fore
SplineSet
182.5078125 72.134765625 m 6
 163.970703125 40.35546875 187.006835938 0 224 0 c 4
 241.696289062 0 257.168945312 9.5966796875 265.4921875 23.865234375 c 6
 825.4921875 983.865234375 l 6
 844.029296875 1015.64453125 820.993164062 1056 784 1056 c 4
 766.303710938 1056 750.831054688 1046.40332031 742.5078125 1032.13476562 c 6
 182.5078125 72.134765625 l 6
EndSplineSet
EndChar

StartChar: NameMe.65538
Encoding: 65538 -1 95
Width: 1008
VWidth: 4000
Flags: HW
LayerCount: 2
Fore
SplineSet
101.979492188 -248.794921875 m 2
 84.38671875 -280.559570312 107.46484375 -320 144 -320 c 0
 162.077148438 -320 177.833984375 -309.985351562 186.020507812 -295.205078125 c 2
 906.020507812 1004.79492188 l 2
 923.61328125 1036.55957031 900.53515625 1076 864 1076 c 0
 845.922851562 1076 830.166015625 1065.98535156 821.979492188 1051.20507812 c 2
 101.979492188 -248.794921875 l 2
EndSplineSet
EndChar

StartChar: tilde.generic
Encoding: 65539 -1 96
Width: 1008
VWidth: 4000
Flags: HW
LayerCount: 2
Fore
SplineSet
785.592773438 1276.78027344 m 0
 784.642578125 1275.56738281 737.174804688 1216 644 1216 c 0
 595.4296875 1216 565.661132812 1230.83984375 525.419921875 1250.9609375 c 0
 485.661132812 1270.83984375 435.4296875 1296 364 1296 c 0
 221.034179688 1296 149.194335938 1201.58300781 145.577148438 1196.75976562 c 0
 121.966796875 1165.27929688 144.596679688 1120 184 1120 c 0
 199.69921875 1120 213.647460938 1127.55273438 222.407226562 1139.21972656 c 0
 223.357421875 1140.43261719 270.825195312 1200 364 1200 c 0
 412.5703125 1200 442.338867188 1185.16015625 482.580078125 1165.0390625 c 0
 522.338867188 1145.16015625 572.5703125 1120 644 1120 c 0
 786.965820312 1120 858.805664062 1214.41699219 862.422851562 1219.24023438 c 0
 886.033203125 1250.72070312 863.403320312 1296 824 1296 c 0
 808.30078125 1296 794.352539062 1288.44726562 785.592773438 1276.78027344 c 0
EndSplineSet
EndChar

StartChar: NameMe.65540
Encoding: 65540 -1 97
Width: 1008
VWidth: 4000
Flags: HW
LayerCount: 2
Fore
SplineSet
143.983398438 296 m 6
 117.491210938 296 95.9833984375 274.4921875 95.9833984375 248 c 4
 95.9833984375 221.5078125 117.491210938 200 143.983398438 200 c 6
 863.983398438 200 l 6
 890.475585938 200 911.983398438 221.5078125 911.983398438 248 c 4
 911.983398438 274.4921875 890.475585938 296 863.983398438 296 c 6
 143.983398438 296 l 6
143.978515625 248.001953125 m 5
 863.978515625 248.001953125 l 1029
143.983398438 556 m 6
 117.491210938 556 95.9833984375 534.4921875 95.9833984375 508 c 4
 95.9833984375 481.5078125 117.491210938 460 143.983398438 460 c 6
 863.983398438 460 l 6
 890.475585938 460 911.983398438 481.5078125 911.983398438 508 c 4
 911.983398438 534.4921875 890.475585938 556 863.983398438 556 c 6
 143.983398438 556 l 6
143.978515625 508 m 5
 863.978515625 508 l 1029
95.9833984375 -272 m 4
 95.9833984375 -298.4921875 117.491210938 -320 143.983398438 -320 c 4
 164.638671875 -320 182.264648438 -306.924804688 189.028320312 -288.606445312 c 6
 669.028320312 1011.39355469 l 6
 680.525390625 1042.53027344 657.426757812 1076 623.983398438 1076 c 4
 603.328125 1076 585.702148438 1062.92480469 578.938476562 1044.60644531 c 6
 98.9384765625 -255.393554688 l 6
 98.9384765625 -260.569335938 95.9833984375 -266.1640625 95.9833984375 -272 c 4
143.978515625 -272.000976562 m 5
 623.978515625 1027.99902344 l 1029
335.983398438 -272 m 4
 335.983398438 -298.4921875 357.491210938 -320 383.983398438 -320 c 4
 404.638671875 -320 422.264648438 -306.924804688 429.028320312 -288.606445312 c 6
 909.028320312 1011.39355469 l 6
 920.525390625 1042.53027344 897.426757812 1076 863.983398438 1076 c 4
 843.328125 1076 825.702148438 1062.92480469 818.938476562 1044.60644531 c 6
 338.938476562 -255.393554688 l 6
 338.938476562 -260.569335938 335.983398438 -266.1640625 335.983398438 -272 c 4
383.978515625 -272.000976562 m 5
 863.978515625 1027.99902344 l 1029
EndSplineSet
EndChar

StartChar: diaeresis.generic
Encoding: 65541 -1 98
Width: 1008
VWidth: 4000
Flags: HW
LayerCount: 2
Fore
SplineSet
656 1208 m 0
 656 1159.42871094 695.428710938 1120 744 1120 c 0
 792.571289062 1120 832 1159.42871094 832 1208 c 0
 832 1256.57128906 792.571289062 1296 744 1296 c 0
 695.428710938 1296 656 1256.57128906 656 1208 c 0
176 1208 m 0
 176 1159.42871094 215.428710938 1120 264 1120 c 0
 312.571289062 1120 352 1159.42871094 352 1208 c 0
 352 1256.57128906 312.571289062 1296 264 1296 c 0
 215.428710938 1296 176 1256.57128906 176 1208 c 0
EndSplineSet
EndChar

StartChar: multiply.huge
Encoding: 65542 -1 99
Width: 1008
VWidth: 4000
Flags: HW
LayerCount: 2
Fore
SplineSet
177.934570312 801.934570312 m 6
 147.794921875 832.073242188 96 810.49609375 96 768 c 4
 96 754.75390625 101.376953125 742.75390625 110.065429688 734.065429688 c 6
 830.065429688 14.0654296875 l 6
 860.205078125 -16.0732421875 912 5.50390625 912 48 c 4
 912 61.24609375 906.623046875 73.24609375 897.934570312 81.9345703125 c 6
 177.934570312 801.934570312 l 6
110.065429688 81.9345703125 m 6
 79.9267578125 51.794921875 101.50390625 0 144 0 c 4
 157.24609375 0 169.24609375 5.376953125 177.934570312 14.0654296875 c 6
 897.918945312 734.065429688 l 6
 928.057617188 764.205078125 906.48046875 816 863.984375 816 c 4
 850.73828125 816 838.73828125 810.623046875 830.049804688 801.934570312 c 6
 110.065429688 81.9345703125 l 6
EndSplineSet
EndChar

StartChar: NameMe.65543
Encoding: 65543 -1 100
Width: 1008
VWidth: 4000
Flags: HW
LayerCount: 2
Fore
SplineSet
371.568359375 -265.590820312 m 6
 354.766601562 -297.326171875 377.87109375 -336 414.01953125 -336 c 4
 432.419921875 -336 448.416015625 -325.624023438 456.470703125 -310.409179688 c 4
 459.870117188 -303.98828125 642.01953125 41.72265625 642.01953125 392 c 4
 642.01953125 550.669921875 605.103515625 706.048828125 564.608398438 830.34765625 c 4
 513.986328125 985.729492188 457.333984375 1092.77832031 456.470703125 1094.40917969 c 4
 448.416015625 1109.62402344 432.419921875 1120 414.01953125 1120 c 4
 377.87109375 1120 354.766601562 1081.32617188 371.568359375 1049.59082031 c 6
 371.568359375 1049.59082031 546.01953125 718.211914062 546.01953125 392 c 4
 546.01953125 65.7880859375 371.568359375 -265.590820312 371.568359375 -265.590820312 c 6
EndSplineSet
EndChar

StartChar: one.coding
Encoding: 65544 -1 101
Width: 1008
VWidth: 4000
Flags: HW
LayerCount: 2
Fore
SplineSet
224 96 m 2
 197.5078125 96 176 74.4921875 176 48 c 0
 176 21.5078125 197.5078125 0 224 0 c 2
 504 0 l 1
 784 0 l 2
 810.4921875 0 832 21.5078125 832 48 c 0
 832 74.4921875 810.4921875 96 784 96 c 2
 552 96 l 1
 552 1008 l 2
 552 1034.4921875 530.4921875 1056 504 1056 c 0
 486.2265625 1056 470.697265625 1046.31933594 462.400390625 1031.94824219 c 0
 419.290039062 957.278320312 331.663085938 866.547851562 211.5625 834.370117188 c 0
 191.091796875 828.885742188 176 810.19140625 176 788 c 0
 176 756.420898438 206.065429688 733.4921875 236.4375 741.629882812 c 0
 326.672851562 765.805664062 400.137695312 814.478515625 456 869.217773438 c 1
 456 96 l 1
 224 96 l 2
EndSplineSet
EndChar

StartChar: ringabove.generic
Encoding: 65545 -1 102
Width: 1008
VWidth: 4000
Flags: HW
LayerCount: 2
Fore
SplineSet
472 1208 m 0
 472 1225.70996094 486.290039062 1240 504 1240 c 0
 521.709960938 1240 536 1225.70996094 536 1208 c 0
 536 1190.29003906 521.709960938 1176 504 1176 c 0
 486.290039062 1176 472 1190.29003906 472 1208 c 0
376 1208 m 0
 376 1137.33496094 433.334960938 1080 504 1080 c 0
 574.665039062 1080 632 1137.33496094 632 1208 c 0
 632 1278.66503906 574.665039062 1336 504 1336 c 0
 433.334960938 1336 376 1278.66503906 376 1208 c 0
EndSplineSet
EndChar

StartChar: grave.huge
Encoding: 65546 -1 103
Width: 1008
VWidth: 4000
Flags: HW
LayerCount: 2
Fore
SplineSet
337.934570312 1041.93457031 m 2
 307.794921875 1072.07324219 256 1050.49609375 256 1008 c 0
 256 994.75390625 261.376953125 982.75390625 270.065429688 974.065429688 c 2
 670.065429688 574.065429688 l 2
 700.205078125 543.926757812 752 565.50390625 752 608 c 0
 752 621.24609375 746.623046875 633.24609375 737.934570312 641.934570312 c 2
 337.934570312 1041.93457031 l 2
EndSplineSet
EndChar

StartChar: multiply.dflt
Encoding: 65547 -1 104
Width: 1008
VWidth: 4000
Flags: HW
LayerCount: 2
Fore
SplineSet
311.653320312 668.215820312 m 6
 281.513671875 698.354492188 229.71875 676.77734375 229.71875 634.28125 c 4
 229.71875 621.03515625 235.095703125 609.03515625 243.784179688 600.346679688 c 6
 696.346679688 147.784179688 l 6
 726.486328125 117.645507812 778.28125 139.22265625 778.28125 181.71875 c 4
 778.28125 194.96484375 772.904296875 206.96484375 764.215820312 215.653320312 c 6
 311.653320312 668.215820312 l 6
243.784179688 215.653320312 m 6
 213.645507812 185.513671875 235.22265625 133.71875 277.71875 133.71875 c 4
 290.96484375 133.71875 302.96484375 139.095703125 311.653320312 147.784179688 c 6
 764.215820312 600.346679688 l 6
 794.354492188 630.486328125 772.77734375 682.28125 730.28125 682.28125 c 4
 717.03515625 682.28125 705.03515625 676.904296875 696.346679688 668.215820312 c 6
 243.784179688 215.653320312 l 6
EndSplineSet
EndChar

StartChar: circumflex.generic
Encoding: 65548 -1 105
Width: 1008
VWidth: 4000
Flags: HW
LayerCount: 2
Fore
SplineSet
356.7421875 1207.54199219 m 6
 318.116210938 1180.90332031 337.225585938 1120 383.946289062 1120 c 4
 394.04296875 1120 403.416992188 1123.12402344 411.150390625 1128.45800781 c 6
 500.833007812 1190.30761719 l 5
 597.973632812 1127.63574219 l 6
 629.713867188 1107.15917969 671.946289062 1130.078125 671.946289062 1168 c 4
 671.946289062 1184.92480469 663.166992188 1199.81640625 649.918945312 1208.36425781 c 6
 525.918945312 1288.36425781 l 6
 509.720703125 1298.81347656 488.706054688 1298.55175781 472.7421875 1287.54199219 c 6
 356.7421875 1207.54199219 l 6
EndSplineSet
EndChar

StartChar: NameMe.65549
Encoding: 65549 -1 106
Width: 1008
VWidth: 4000
Flags: HW
LayerCount: 2
Fore
SplineSet
63.060546875 365.232421875 m 0
 63.060546875 52.6455078125 267.912109375 -194.890625 510.236328125 -194.890625 c 0
 740.557617188 -194.890625 831.502929688 -53.4033203125 849.423828125 -6.98046875 c 0
 861.481445312 24.2529296875 838.369140625 58.28125 804.626953125 58.28125 c 0
 784.21875 58.28125 766.767578125 45.5166015625 759.829101562 27.54296875 c 1
 760.1640625 28.4052734375 744.879882812 -9.1259765625 700.169921875 -43.115234375 c 0
 662.880859375 -71.462890625 604.180664062 -98.890625 510.236328125 -98.890625 c 0
 320.193359375 -98.890625 159.060546875 110.3515625 159.060546875 365.232421875 c 0
 159.060546875 676.895507812 328.966796875 910.328125 532.689453125 910.328125 c 0
 650.966796875 910.328125 736.395507812 865.185546875 789.219726562 774.977539062 c 0
 828.984375 707.07421875 848.939453125 614.333984375 848.939453125 509.25 c 0
 848.939453125 502.513671875 848.192382812 382.139648438 795.401367188 275.890625 c 0
 785.627929688 256.21875 753.633789062 198 717.298828125 198 c 0
 709.943359375 198 686.548828125 198 677.728515625 210.869140625 c 0
 673.033203125 217.71875 663.859375 239.416992188 674.501953125 297.407226562 c 2
 764.086914062 688.103515625 l 2
 770.963867188 718.099609375 748.138671875 746.859375 717.298828125 746.859375 c 0
 694.502929688 746.859375 675.399414062 730.935546875 670.509765625 709.615234375 c 0
 580.477539062 316.963867188 580.477539062 316.963867188 580.294921875 315.991210938 c 0
 565.865234375 238.416992188 575.59375 190.09375 598.486328125 156.69140625 c 0
 616.0546875 131.057617188 650.6640625 102 717.298828125 102 c 0
 872.153320312 102 944.939453125 359.767578125 944.939453125 509.25 c 0
 944.939453125 625.916015625 923.747070312 735.228515625 872.122070312 823.385742188 c 0
 827.095703125 900.276367188 731.197265625 1006.328125 532.689453125 1006.328125 c 0
 277.907226562 1006.328125 63.060546875 738.76953125 63.060546875 365.232421875 c 0
545.158203125 673.3125 m 0
 594.018554688 673.3125 636.625976562 620.734375 636.625976562 575.23046875 c 0
 636.625976562 574.671875 633.298828125 547.500976562 633.298828125 547.21875 c 0
 633.298828125 520.7265625 654.806640625 499.21875 681.298828125 499.21875 c 0
 703.852539062 499.21875 722.794921875 514.807617188 727.927734375 535.790039062 c 0
 755.1796875 647.192382812 660.982421875 769.3125 545.158203125 769.3125 c 0
 388.875976562 769.3125 262.642578125 550.4140625 262.642578125 327.125 c 0
 262.642578125 177.280273438 341.512695312 82.046875 440.376953125 82.046875 c 0
 477.372070312 82.046875 614.049804688 88.0703125 673.6015625 293.819335938 c 0
 682.446289062 324.379882812 659.470703125 355.171875 627.486328125 355.171875 c 0
 605.626953125 355.171875 587.161132812 340.528320312 581.370117188 320.524414062 c 0
 568.752929688 276.930664062 544.240234375 219.201171875 499.220703125 193.060546875 c 0
 482.987304688 183.634765625 464.291015625 178.046875 440.376953125 178.046875 c 0
 390.806640625 178.046875 358.642578125 246.508789062 358.642578125 327.125 c 0
 358.642578125 510.90234375 459.6171875 673.3125 545.158203125 673.3125 c 0
EndSplineSet
EndChar

StartChar: NameMe.65550
Encoding: 65550 -1 107
Width: 1008
VWidth: 4000
Flags: HW
LayerCount: 2
Fore
SplineSet
634 -124 m 0
 626.899414062 -124 599.140625 -128.65234375 557.850585938 -128.65234375 c 0
 383.997070312 -128.65234375 302.114257812 -42.7412109375 257.864257812 35.890625 c 0
 208.583007812 123.461914062 182 249.125976562 182 408 c 0
 182 644.006835938 225.060546875 866.252929688 369.88671875 946.327148438 c 0
 409.345703125 968.143554688 456.58203125 980 514 980 c 0
 650.353515625 980 724.03125 912.145507812 766.8125 829.45703125 c 0
 806.538085938 752.674804688 826 647.87890625 826 530.015625 c 0
 826 413.069335938 816.2734375 337.153320312 802.596679688 293.0703125 c 0
 791.5 257.302734375 779.40625 245.844726562 773.248046875 242.076171875 c 0
 744.943359375 224.755859375 702 267.440429688 702 303.8125 c 0
 702 330.3046875 680.4921875 351.8125 654 351.8125 c 0
 627.5078125 351.8125 606 330.3046875 606 303.8125 c 0
 606 254.004882812 630.291992188 211.317382812 661.743164062 182.404296875 c 0
 686.860351562 159.3125 719.1796875 142.0625 756.25 142.0625 c 0
 809.477539062 142.0625 864.700195312 169.197265625 894.305664062 264.625 c 0
 912.88671875 324.516601562 922 407.998046875 922 530.015625 c 0
 922 608.674804688 918.831054688 915.196289062 700.903320312 1032.30761719 c 0
 647.663085938 1060.91894531 585.040039062 1076 514 1076 c 0
 390.53125 1076 248.536132812 1030.16601562 163.509765625 851.762695312 c 0
 109.647460938 738.748046875 86 589.911132812 86 408 c 0
 86 272.381835938 100.084960938 -60.6416015625 351.44140625 -181.419921875 c 0
 424.497070312 -216.522460938 518.631835938 -233.908203125 639.658203125 -219.668945312 c 0
 663.487304688 -216.866210938 682 -196.578125 682 -172 c 0
 682 -145.5078125 660.4921875 -124 634 -124 c 0
653.296875 266.5 m 0
 679.7890625 266.5 701.296875 288.0078125 701.296875 314.5 c 2
 700.609375 643.883789062 l 2
 700.553710938 670.328125 679.067382812 691.78125 652.609375 691.78125 c 0
 626.1171875 691.78125 604.609375 670.2734375 604.609375 643.78125 c 2
 605.296875 314.397460938 l 2
 605.296875 287.953125 626.838867188 266.5 653.296875 266.5 c 0
513.296875 826.671875 m 0
 397.903320312 826.671875 325.296875 758.146484375 325.296875 658.671875 c 0
 325.296875 632.1796875 346.8046875 610.671875 373.296875 610.671875 c 0
 399.7890625 610.671875 421.296875 632.1796875 421.296875 658.671875 c 0
 421.296875 694.275390625 438.212890625 708.219726562 448.232421875 714.77734375 c 0
 462.391601562 724.045898438 484.755859375 730.671875 513.296875 730.671875 c 0
 547.28125 730.671875 604.609375 719.423828125 604.609375 643.53125 c 0
 604.609375 592.0234375 560.751953125 559.614257812 476.028320312 534.20703125 c 0
 426.426757812 519.340820312 305.296875 477.013671875 305.296875 338.671875 c 0
 305.296875 222.888671875 372.930664062 138.984375 473.296875 138.984375 c 0
 579.559570312 138.984375 701.296875 231.62890625 701.296875 358.671875 c 0
 701.296875 385.1640625 679.7890625 406.671875 653.296875 406.671875 c 0
 626.8046875 406.671875 605.296875 385.1640625 605.296875 358.671875 c 0
 605.296875 286.36328125 527.5625 234.984375 473.296875 234.984375 c 0
 404.685546875 234.984375 401.296875 321.567382812 401.296875 338.671875 c 0
 401.296875 376.094726562 413.711914062 415.291992188 503.596679688 442.23046875 c 0
 589.873046875 468.104492188 700.609375 520.0078125 700.609375 643.53125 c 0
 700.609375 750.6640625 626.6953125 826.671875 513.296875 826.671875 c 0
EndSplineSet
EndChar

StartChar: NameMe.65551
Encoding: 65551 -1 108
Width: 1008
VWidth: 4000
Flags: HW
LayerCount: 2
Fore
SplineSet
176 48 m 4
 176 21.5078125 197.5078125 0 224 0 c 4
 247.125 0 266.453125 16.388671875 270.9921875 38.17578125 c 6
 470.9921875 998.17578125 l 6
 477.194335938 1027.94824219 454.43359375 1056 424 1056 c 4
 400.875 1056 381.546875 1039.61132812 377.0078125 1017.82421875 c 6
 177.0078125 57.82421875 l 6
 177.0078125 54.65234375 176 51.3662109375 176 48 c 4
536 48 m 4
 536 21.5078125 557.5078125 0 584 0 c 4
 607.125 0 626.453125 16.388671875 630.9921875 38.17578125 c 6
 830.9921875 998.17578125 l 6
 837.194335938 1027.94824219 814.43359375 1056 784 1056 c 4
 760.875 1056 741.546875 1039.61132812 737.0078125 1017.82421875 c 6
 537.0078125 57.82421875 l 6
 537.0078125 54.65234375 536 51.3662109375 536 48 c 4
124 736 m 6
 97.5078125 736 76 714.4921875 76 688 c 4
 76 661.5078125 97.5078125 640 124 640 c 6
 884 640 l 6
 910.4921875 640 932 661.5078125 932 688 c 4
 932 714.4921875 910.4921875 736 884 736 c 6
 124 736 l 6
124 416 m 6
 97.5078125 416 76 394.4921875 76 368 c 4
 76 341.5078125 97.5078125 320 124 320 c 6
 884 320 l 6
 910.4921875 320 932 341.5078125 932 368 c 4
 932 394.4921875 910.4921875 416 884 416 c 6
 124 416 l 6
EndSplineSet
EndChar

StartChar: numbersign
Encoding: 35 35 110
Width: 1008
VWidth: 4000
Flags: HW
LayerCount: 2
Fore
SplineSet
335.983398438 -272 m 0
 335.983398438 -298.4921875 357.491210938 -320 383.983398438 -320 c 0
 404.638671875 -320 422.264648438 -306.924804688 429.028320312 -288.606445312 c 2
 609.436853966 200 l 1
 863.983398438 200 l 2
 890.475585938 200 911.983398438 221.5078125 911.983398438 248 c 0
 911.983398438 274.4921875 890.475585938 296 863.983398438 296 c 2
 644.883007812 296 l 1
 705.436853966 460 l 1
 863.983398438 460 l 2
 890.475585938 460 911.983398438 481.5078125 911.983398438 508 c 0
 911.983398438 534.4921875 890.475585938 556 863.983398438 556 c 2
 740.883007812 556 l 1
 909.028320312 1011.39355469 l 2
 920.525390625 1042.53027344 897.426757812 1076 863.983398438 1076 c 0
 843.328125 1076 825.702148438 1062.92480469 818.938476562 1044.60644531 c 2
 638.529942909 556 l 1
 500.883007812 556 l 1
 669.028320312 1011.39355469 l 2
 680.525390625 1042.53027344 657.426757812 1076 623.983398438 1076 c 0
 603.328125 1076 585.702148438 1062.92480469 578.938476562 1044.60644531 c 2
 398.529942909 556 l 1
 143.983398438 556 l 2
 117.491210938 556 95.9833984375 534.4921875 95.9833984375 508 c 0
 95.9833984375 481.5078125 117.491210938 460 143.983398438 460 c 2
 363.083789062 460 l 1
 302.529942909 296 l 1
 143.983398438 296 l 2
 117.491210938 296 95.9833984375 274.4921875 95.9833984375 248 c 0
 95.9833984375 221.5078125 117.491210938 200 143.983398438 200 c 2
 267.083789063 200 l 1
 98.9384765625 -255.393554688 l 2
 98.9384765625 -260.569335938 95.9833984375 -266.1640625 95.9833984375 -272 c 0
 95.9833984375 -298.4921875 117.491210938 -320 143.983398438 -320 c 0
 164.638671875 -320 182.264648438 -306.924804688 189.028320312 -288.606445312 c 2
 369.436853966 200 l 1
 507.083789063 200 l 1
 338.938476562 -255.393554688 l 2
 338.938476562 -260.569335938 335.983398438 -266.1640625 335.983398438 -272 c 0
465.436853966 460 m 1
 603.083789063 460 l 1
 542.529942909 296 l 1
 404.883007813 296 l 1
 465.436853966 460 l 1
EndSplineSet
EndChar

StartChar: slash
Encoding: 47 47 111
Width: 1008
VWidth: 4000
Flags: HW
LayerCount: 2
Fore
SplineSet
101.979492188 -248.794921875 m 6
 84.38671875 -280.559570312 107.46484375 -320 144 -320 c 4
 162.077148438 -320 177.833984375 -309.985351562 186.020507812 -295.205078125 c 6
 906.020507812 1004.79492188 l 6
 923.61328125 1036.55957031 900.53515625 1076 864 1076 c 4
 845.922851562 1076 830.166015625 1065.98535156 821.979492188 1051.20507812 c 6
 101.979492188 -248.794921875 l 6
EndSplineSet
EndChar

StartChar: NameMe.65552
Encoding: 65552 -1 112
Width: 1008
VWidth: 4000
Flags: HW
LayerCount: 2
Fore
SplineSet
224 1056 m 4
 187.0078125 1056 163.969726562 1015.64453125 182.5078125 983.865234375 c 6
 742.5078125 23.865234375 l 6
 750.831054688 9.5966796875 766.303710938 0 784 0 c 4
 820.9921875 0 844.030273438 40.35546875 825.4921875 72.134765625 c 6
 265.4921875 1032.13476562 l 6
 257.168945312 1046.40332031 241.696289062 1056 224 1056 c 4
EndSplineSet
EndChar

StartChar: sterling
Encoding: 163 163 113
Width: 1008
VWidth: 4000
Flags: HW
LayerCount: 2
Fore
SplineSet
165.125 128 m 0
 165.125 147.541992188 190.521484375 180 237.125 180 c 0
 276.041015625 180 308.177734375 174.548828125 336.216796875 165.638671875 c 0
 336.216796875 162.444335938 333.72265625 159.328125 332.413085938 156.293945312 c 0
 299.913085938 81.044921875 252.625976562 75.478515625 226.87109375 75.990234375 c 0
 167.661132812 77.16015625 165.125 108.637695312 165.125 128 c 0
456.796875 321.40625 m 0
 456.796875 465.692382812 382.875 551.989257812 382.875 757.4375 c 0
 382.875 884.3046875 430.63671875 927.266601562 454.484375 944.401367188 c 0
 475.7265625 959.665039062 517.321289062 980.665039062 594.517578125 980.001953125 c 0
 651.385742188 979.509765625 696.390625 964.631835938 727.87890625 941.930664062 c 0
 766.662109375 913.969726562 789.125976562 872.774414062 789.125976562 817.748046875 c 0
 789.125976562 791.357421875 810.70703125 769.96875 837.125 769.96875 c 0
 863.6171875 769.96875 885.125 791.4765625 885.124023438 818.189453125 c 0
 884.482421875 960.428710938 777.083984375 1076.01757812 590.904296875 1076.01757812 c 0
 539.803710938 1076.01757812 286.875 1075.24414062 286.875 757.4375 c 0
 286.875 541.931640625 360.796875 441.751953125 360.796875 321.40625 c 0
 360.796875 299.9453125 359.677734375 279.173828125 357.510742188 259.450195312 c 1
 322.098632812 269.819335938 282.235351562 276 237.125 276 c 0
 139.377929688 276 69.125 202.805664062 69.125 128 c 0
 69.125 46.2626953125 123.158203125 -20.0341796875 229.360351562 -20.0341796875 c 0
 308.158203125 -20.0341796875 380.861328125 22.908203125 422.326171875 122.39453125 c 1
 442.793945312 108.349609375 462.209960938 92.6494140625 482.153320312 76.390625 c 0
 535.87890625 32.59375 598.204101562 -20 693.125 -20 c 0
 857.844726562 -20 938.875 141.79296875 938.875 308.609375 c 0
 938.875 335.1015625 917.3671875 356.609375 890.875 356.609375 c 0
 864.3828125 356.609375 842.875 335.1015625 842.875 308.609375 c 0
 842.875 232.399414062 815.901367188 76 693.125 76 c 0
 636.734375 76 598.862304688 105.086914062 542.748046875 150.83203125 c 0
 515.891601562 172.724609375 485.752929688 197.52734375 449.083007812 219.266601562 c 0
 454.362304688 251.883789062 456.796875 286.188476562 456.796875 321.40625 c 0
825.125 818 m 1
 807.125 800 l 1
 789.125 818 l 1
 807.125 836 l 1
 825.125 818 l 1
729.125 818 m 0
 729.125 774.951171875 764.076171875 740 807.125 740 c 0
 850.173828125 740 885.125 774.951171875 885.125 818 c 0
 885.125 861.048828125 850.173828125 896 807.125 896 c 0
 764.076171875 896 729.125 861.048828125 729.125 818 c 0
777.125 817.998046875 m 0
 777.125 834.56640625 790.556640625 847.998046875 807.125 847.998046875 c 0
 823.693359375 847.998046875 837.125 834.56640625 837.125 817.998046875 c 0
 837.125 801.4296875 823.693359375 787.998046875 807.125 787.998046875 c 0
 790.556640625 787.998046875 777.125 801.4296875 777.125 817.998046875 c 0
166.25 549.203125 m 2
 139.7578125 549.203125 118.25 527.6953125 118.25 501.203125 c 0
 118.25 474.7109375 139.7578125 453.203125 166.25 453.203125 c 2
 602 453.203125 l 2
 628.4921875 453.203125 650 474.7109375 650 501.203125 c 0
 650 527.6953125 628.4921875 549.203125 602 549.203125 c 2
 166.25 549.203125 l 2
EndSplineSet
EndChar

StartChar: degree
Encoding: 176 176 114
Width: 1008
VWidth: 4000
Flags: HW
LayerCount: 2
Fore
SplineSet
342 797.859375 m 0
 342 887.438476562 414.569335938 960 504.15625 960 c 0
 593.725585938 960 666.296875 887.440429688 666.296875 797.859375 c 0
 666.296875 708.275390625 593.720703125 635.703125 504.15625 635.703125 c 0
 414.573242188 635.703125 342 708.276367188 342 797.859375 c 0
246 797.859375 m 0
 246 655.317382812 361.614257812 539.703125 504.15625 539.703125 c 0
 646.685546875 539.703125 762.296875 655.318359375 762.296875 797.859375 c 0
 762.296875 940.403320312 646.680664062 1056 504.15625 1056 c 0
 361.618164062 1056 246 940.405273438 246 797.859375 c 0
EndSplineSet
EndChar

StartChar: cent
Encoding: 162 162 115
Width: 1008
VWidth: 4000
Flags: HW
LayerCount: 2
Fore
SplineSet
753.1953125 568 m 1029
530.0390625 -20 m 0
 681.959960938 -16.4248046875 832.381835938 84.32421875 846.21484375 268.421875 c 0
 847.990234375 299.887695312 823.330078125 320.0625 798.3515625 320.0625 c 0
 773.083984375 320.0625 752.350585938 300.497070312 750.48828125 275.703125 c 0
 739.90234375 134.831054688 621.282226562 78.1474609375 530.0390625 76 c 0
 487.04754176 76 445.955153588 87.4303106776 409.243975227 107.837293596 c 1
 700.671118154 634.025190548 l 1
 706.071232617 630.836752099 711.437472962 627.374042923 716.562250924 623.647874411 c 1
 702.141990485 609.487328965 693.1953125 589.774896055 693.1953125 568 c 0
 693.1953125 524.953125 728.1484375 490 771.1953125 490 c 0
 814.221679688 490 849.1953125 524.931640625 849.1953125 568 c 0
 849.1953125 632.354199797 807.048460777 682.910812318 747.213484904 718.0600194 c 1
 906.020507812 1004.79492188 l 2
 923.61328125 1036.55957031 900.53515625 1076 864 1076 c 0
 845.922851562 1076 830.166015625 1065.98535156 821.979492188 1051.20507812 c 2
 658.404302301 755.860985275 l 1
 613.674669791 769.152815692 566.253603619 776.001953125 522.31640625 776.001953125 c 0
 314.625 775.356445312 158.8046875 607.317382812 158.8046875 385.84375 c 0
 158.8046875 267.337148591 206.773157056 156.96963327 284.821438198 81.3363695326 c 1
 101.979492188 -248.794921875 l 2
 84.38671875 -280.559570312 107.46484375 -320 144 -320 c 0
 162.077148438 -320 177.833984375 -309.985351562 186.020507812 -295.205078125 c 2
 362.515761709 23.4669080769 l 1
 412.349957524 -4.20903256072 469.066818397 -20 530.0390625 -20 c 0
333.650040751 169.499124143 m 1
 285.149441868 225.130672394 254.8046875 301.261965485 254.8046875 385.84375 c 0
 254.8046875 551.416992188 365.462890625 679.513671875 521.346679688 680 c 0
 549.529061849 680 580.549905595 676.246269216 610.400897501 669.188171052 c 1
 333.650040751 169.499124143 l 1
EndSplineSet
EndChar

StartChar: exclamdown
Encoding: 161 161 116
Width: 1008
VWidth: 4000
Flags: HW
LayerCount: 2
Fore
SplineSet
602 678 m 4
 602 732.091796875 558.091796875 776 504 776 c 4
 449.908203125 776 406 732.091796875 406 678 c 4
 406 623.908203125 449.908203125 580 504 580 c 4
 558.091796875 580 602 623.908203125 602 678 c 4
504 476 m 4
 478.467773438 476 457.564453125 456.021484375 456.083984375 430.857421875 c 4
 416 -250.567382812 416 -250.567382812 416 -252 c 4
 416 -278.4921875 437.5078125 -300 464 -300 c 6
 544 -300 l 6
 570.4921875 -300 592 -278.4921875 592 -252 c 4
 592 -250.567382812 592 -250.567382812 551.916015625 430.857421875 c 4
 550.435546875 456.021484375 529.532226562 476 504 476 c 4
EndSplineSet
EndChar

StartChar: questiondown
Encoding: 191 191 117
Width: 1008
VWidth: 4000
Flags: HW
LayerCount: 2
Fore
SplineSet
602.799804688 680 m 0
 602.799804688 734.110351562 558.87890625 778 504.799804688 778 c 0
 450.720703125 778 406.799804688 734.110351562 406.799804688 680 c 0
 406.799804688 625.908203125 450.708007812 582 504.799804688 582 c 0
 558.891601562 582 602.799804688 625.908203125 602.799804688 680 c 0
462.799804688 -223.984375 m 0
 364.991210938 -223.984375 271.752929688 -154.19140625 271.752929688 -93.796875 c 0
 271.752929688 -27.9365234375 294.217773438 17.7861328125 348.2421875 59.052734375 c 0
 436.84765625 126.731445312 562.799804688 236.134765625 562.799804688 433.015625 c 0
 562.799804688 459.5078125 541.291992188 481.015625 514.799804688 481.015625 c 0
 488.307617188 481.015625 466.799804688 459.5078125 466.799804688 433.015625 c 0
 466.799804688 293.698242188 388.454101562 210.551757812 290.044921875 135.384765625 c 0
 191.782226562 60.3271484375 175.752929688 -27.9599609375 175.752929688 -93.796875 c 0
 175.752929688 -215.626953125 318.1171875 -319.984375 462.799804688 -319.984375 c 0
 656.310546875 -319.984375 846.00390625 -132.203125 737.784179688 64.3857421875 c 0
 724.591796875 88.7763671875 698.780273438 105.359375 669.127929688 105.359375 c 0
 626.079101562 105.359375 591.127929688 70.408203125 591.127929688 27.359375 c 0
 591.127929688 -15.689453125 626.079101562 -50.640625 669.127929688 -50.640625 c 0
 670.497070312 -50.640625 671.857421875 -50.60546875 673.208984375 -50.53515625 c 1
 673.216796875 -51.1142578125 673.220703125 -51.6923828125 673.220703125 -52.2685546875 c 0
 673.220703125 -147.319335938 562.270507812 -223.984375 462.799804688 -223.984375 c 0
EndSplineSet
EndChar

StartChar: dotlessi
Encoding: 305 305 157
Width: 1008
VWidth: 4000
Flags: HW
LayerCount: 2
Fore
SplineSet
244 96 m 2
 217.5078125 96 196 74.4921875 196 48 c 0
 196 21.5078125 217.5078125 0 244 0 c 2
 764 0 l 2
 790.4921875 0 812 21.5078125 812 48 c 0
 812 74.4921875 790.4921875 96 764 96 c 2
 552 96 l 1
 552 708 l 2
 552 734.4921875 530.4921875 756 504 756 c 2
 284 756 l 2
 257.5078125 756 236 734.4921875 236 708 c 0
 236 681.5078125 257.5078125 660 284 660 c 2
 456 660 l 1
 456 96 l 1
 244 96 l 2
EndSplineSet
EndChar

StartChar: grave.generic
Encoding: 65553 -1 174
Width: 1008
VWidth: 4000
Flags: HW
LayerCount: 2
Fore
SplineSet
672 1168 m 4
 672 1135.203125 639.73046875 1112.15039062 608.829101562 1122.45117188 c 6
 368.829101562 1202.45117188 l 6
 349.762695312 1208.80664062 336 1226.80859375 336 1248 c 4
 336 1280.796875 368.26953125 1303.84960938 399.170898438 1293.54882812 c 6
 639.170898438 1213.54882812 l 6
 658.237304688 1207.19335938 672 1189.19140625 672 1168 c 4
EndSplineSet
EndChar

StartChar: acute.generic
Encoding: 65554 -1 175
Width: 1008
VWidth: 4000
Flags: HW
LayerCount: 2
Fore
SplineSet
336 1168 m 4
 336 1135.203125 368.26953125 1112.15039062 399.170898438 1122.45117188 c 6
 639.170898438 1202.45117188 l 6
 658.237304688 1208.80664062 672 1226.80859375 672 1248 c 4
 672 1280.796875 639.73046875 1303.84960938 608.829101562 1293.54882812 c 6
 368.829101562 1213.54882812 l 6
 349.762695312 1207.19335938 336 1189.19140625 336 1168 c 4
EndSplineSet
EndChar

StartChar: l.dflt
Encoding: 65555 -1 176
Width: 1008
VWidth: 4000
Flags: HW
LayerCount: 2
Fore
SplineSet
224 96 m 2
 197.5078125 96 176 74.4921875 176 48 c 0
 176 21.5078125 197.5078125 0 224 0 c 2
 504 0 l 1
 784 0 l 2
 810.4921875 0 832 21.5078125 832 48 c 0
 832 74.4921875 810.4921875 96 784 96 c 2
 552 96 l 1
 552 1008 l 2
 552 1034.4921875 530.4921875 1056 504 1056 c 2
 268 1056 l 2
 241.5078125 1056 220 1034.4921875 220 1008 c 0
 220 981.5078125 241.5078125 960 268 960 c 2
 456 960 l 1
 456 96 l 1
 224 96 l 2
EndSplineSet
EndChar

StartChar: l.coding
Encoding: 65556 -1 177
Width: 1008
VWidth: 4000
Flags: HW
LayerCount: 2
Fore
SplineSet
257 518 m 1053
456 48 m 17
 456 21.5078125 477.5078125 0 504 0 c 2
 524 0 l 1
 784 0 l 2
 810.4921875 0 832 21.5078125 832 48 c 0
 832 74.4921875 810.4921875 96 784 96 c 2
 552 96 l 1
 552 1008 l 2
 552 1034.4921875 530.4921875 1056 504 1056 c 2
 268 1056 l 2
 241.5078125 1056 220 1034.4921875 220 1008 c 0
 220 981.5078125 241.5078125 960 268 960 c 2
 456 960 l 9
 456 48 l 17
EndSplineSet
EndChar

StartChar: l.coding2
Encoding: 65557 -1 178
Width: 1008
VWidth: 4000
Flags: HW
LayerCount: 2
Fore
SplineSet
492 248 m 17
 492 248 505.725585938 154.35546875 526.055664062 127.750976562 c 0
 550.974609375 95.1435546875 589.368164062 76 644 76 c 0
 670.828125 76 690.338867188 85.6494140625 707.23046875 100.428710938 c 0
 743.372070312 132.053710938 757.83984375 181.1953125 757.83984375 181.1953125 c 1
 763.578125 201.279296875 782.083984375 216 804 216 c 0
 830.4921875 216 852 194.4921875 852 168 c 0
 852 163.424804688 850.16015625 158.998046875 850.16015625 154.8046875 c 0
 850.16015625 152.567382812 843.145507812 130.439453125 827.810546875 101.926757812 c 0
 770.461914062 -4.70703125 687.09765625 -20 644 -20 c 0
 504.455078125 -20 396 74.4287109375 396 248 c 9
 396 960 l 17
 208 960 l 2
 181.5078125 960 160 981.5078125 160 1008 c 0
 160 1034.4921875 181.5078125 1056 208 1056 c 2
 444 1056 l 2
 470.4921875 1056 492 1033 492 1008 c 10
 492 248 l 17
EndSplineSet
EndChar

StartChar: multiply
Encoding: 215 215 179
Width: 1008
VWidth: 4000
Flags: HW
LayerCount: 2
Fore
SplineSet
311.653320312 668.215820312 m 6
 281.513671875 698.354492188 229.71875 676.77734375 229.71875 634.28125 c 4
 229.71875 621.03515625 235.095703125 609.03515625 243.784179688 600.346679688 c 6
 696.346679688 147.784179688 l 6
 726.486328125 117.645507812 778.28125 139.22265625 778.28125 181.71875 c 4
 778.28125 194.96484375 772.904296875 206.96484375 764.215820312 215.653320312 c 6
 311.653320312 668.215820312 l 6
243.784179688 215.653320312 m 6
 213.645507812 185.513671875 235.22265625 133.71875 277.71875 133.71875 c 4
 290.96484375 133.71875 302.96484375 139.095703125 311.653320312 147.784179688 c 6
 764.215820312 600.346679688 l 6
 794.354492188 630.486328125 772.77734375 682.28125 730.28125 682.28125 c 4
 717.03515625 682.28125 705.03515625 676.904296875 696.346679688 668.215820312 c 6
 243.784179688 215.653320312 l 6
EndSplineSet
EndChar

StartChar: oslash
Encoding: 248 248 180
Width: 1008
VWidth: 4000
Flags: HW
LayerCount: 2
Fore
SplineSet
1315 386 m 1053
EndSplineSet
Refer: 94 -1 N 1 0 0 1 0 -150 2
Refer: 90 111 N 1 0 0 1 0 0 2
EndChar

StartChar: zero.slash
Encoding: 65558 -1 182
Width: 1008
VWidth: 4000
Flags: HW
LayerCount: 2
Fore
SplineSet
182.5078125 72.134765625 m 2
 163.970703125 40.35546875 187.006835938 0 224 0 c 0
 241.696289062 0 257.168945312 9.5966796875 265.4921875 23.865234375 c 2
 295.392836902 75.1234904923 l 1
 354.407392745 15.0527249254 426.105654397 -20 504 -20 c 0
 709.565429688 -20 872 224.135742188 872 528 c 0
 872 671.425173678 835.809710057 801.550901584 775.972951262 898.97511511 c 1
 825.4921875 983.865234375 l 2
 844.029296875 1015.64453125 820.993164062 1056 784 1056 c 0
 766.303710938 1056 750.831054688 1046.40332031 742.5078125 1032.13476562 c 2
 712.6071631 980.876509506 l 1
 653.592607256 1040.94727507 581.894345604 1076 504 1076 c 0
 298.434570312 1076 136 831.864257812 136 528 c 0
 136 384.574826322 172.190289943 254.449098416 232.027048738 157.024884889 c 1
 182.5078125 72.134765625 l 2
719.294490806 801.812040042 m 1
 754.639649707 725.872556828 776 631.010277599 776 528 c 0
 776 278.008789062 650.193359375 76 504 76 c 0
 445.931336099 76 391.078583701 107.8714518 346.048780694 161.962251279 c 1
 719.294490806 801.812040042 l 1
661.951219307 894.037748719 m 1
 288.705509194 254.187959957 l 1
 253.360350293 330.127443172 232 424.989722401 232 528 c 0
 232 777.991210938 357.806640625 980 504 980 c 0
 562.068663901 980 616.9214163 948.128548199 661.951219307 894.037748719 c 1
EndSplineSet
EndChar

StartChar: zero.dflt
Encoding: 65559 -1 183
Width: 1008
VWidth: 4000
Flags: HW
LayerCount: 2
Fore
SplineSet
504 1076 m 4
 298.434570312 1076 136 831.864257812 136 528 c 0
 136 224.15625 298.420898438 -20 504 -20 c 0
 709.565429688 -20 872 224.135742188 872 528 c 0
 872 831.84375 709.579101562 1076 504 1076 c 4
504 76 m 0
 357.80859375 76 232 278.004882812 232 528 c 0
 232 777.991210938 357.806640625 980 504 980 c 0
 650.19140625 980 776 777.995117188 776 528 c 0
 776 278.008789062 650.193359375 76 504 76 c 0
EndSplineSet
EndChar

StartChar: one.default
Encoding: 65560 -1 184
Width: 1008
VWidth: 4000
Flags: HW
LayerCount: 2
Fore
SplineSet
224 96 m 2
 197.5078125 96 176 74.4921875 176 48 c 0
 176 21.5078125 197.5078125 0 224 0 c 2
 504 0 l 1
 784 0 l 2
 810.4921875 0 832 21.5078125 832 48 c 0
 832 74.4921875 810.4921875 96 784 96 c 2
 552 96 l 1
 552 1008 l 2
 552 1034.4921875 530.4921875 1056 504 1056 c 2
 268 1056 l 2
 241.5078125 1056 220 1034.4921875 220 1008 c 0
 220 981.5078125 241.5078125 960 268 960 c 2
 456 960 l 1
 456 96 l 1
 224 96 l 2
EndSplineSet
EndChar

StartChar: periodcentered
Encoding: 183 183 185
Width: 1008
VWidth: 4000
Flags: HW
LayerCount: 2
Fore
SplineSet
406 438.015625 m 4
 406 383.905273438 449.920898438 340.015625 504 340.015625 c 4
 558.079101562 340.015625 602 383.905273438 602 438.015625 c 4
 602 492.107421875 558.091796875 536.015625 504 536.015625 c 4
 449.908203125 536.015625 406 492.107421875 406 438.015625 c 4
EndSplineSet
EndChar

StartChar: SF100000
Encoding: 9472 9472 186
Width: 1008
Flags: HW
LayerCount: 2
Fore
SplineSet
0 486 m 0
 0 570 l 0
 1008 570 l 0
 1008 486 l 0
 0 486 l 0
EndSplineSet
EndChar

StartChar: uni2501
Encoding: 9473 9473 187
Width: 1008
Flags: HW
LayerCount: 2
Fore
SplineSet
0 402 m 0
 0 654 l 0
 1008 654 l 0
 1008 402 l 0
 0 402 l 0
EndSplineSet
EndChar

StartChar: SF110000
Encoding: 9474 9474 188
Width: 1008
Flags: HW
LayerCount: 2
Fore
SplineSet
462 -336 m 0
 462 1344 l 0
 546 1344 l 0
 546 -336 l 0
 462 -336 l 0
EndSplineSet
EndChar

StartChar: uni2503
Encoding: 9475 9475 189
Width: 1008
Flags: HW
LayerCount: 2
Fore
SplineSet
378 -336 m 0
 378 1344 l 0
 630 1344 l 0
 630 -336 l 0
 378 -336 l 0
EndSplineSet
EndChar

StartChar: uni2504
Encoding: 9476 9476 190
Width: 1008
Flags: HW
LayerCount: 2
Fore
SplineSet
756 486 m 0
 756 570 l 0
 924 570 l 0
 924 486 l 0
 756 486 l 0
420 486 m 0
 420 570 l 0
 588 570 l 0
 588 486 l 0
 420 486 l 0
84 486 m 0
 84 570 l 0
 252 570 l 0
 252 486 l 0
 84 486 l 0
EndSplineSet
EndChar

StartChar: uni2505
Encoding: 9477 9477 191
Width: 1008
Flags: HW
LayerCount: 2
Fore
SplineSet
756 402 m 0
 756 654 l 0
 924 654 l 0
 924 402 l 0
 756 402 l 0
420 402 m 0
 420 654 l 0
 588 654 l 0
 588 402 l 0
 420 402 l 0
84 402 m 0
 84 654 l 0
 252 654 l 0
 252 402 l 0
 84 402 l 0
EndSplineSet
EndChar

StartChar: uni2506
Encoding: 9478 9478 192
Width: 1008
Flags: HW
LayerCount: 2
Fore
SplineSet
462 924 m 0
 462 1204 l 0
 546 1204 l 0
 546 924 l 0
 462 924 l 0
462 364 m 0
 462 644 l 0
 546 644 l 0
 546 364 l 0
 462 364 l 0
462 -196 m 0
 462 84 l 0
 546 84 l 0
 546 -196 l 0
 462 -196 l 0
EndSplineSet
EndChar

StartChar: uni2507
Encoding: 9479 9479 193
Width: 1008
Flags: HW
LayerCount: 2
Fore
SplineSet
378 924 m 0
 378 1204 l 0
 630 1204 l 0
 630 924 l 0
 378 924 l 0
378 364 m 0
 378 644 l 0
 630 644 l 0
 630 364 l 0
 378 364 l 0
378 -196 m 0
 378 84 l 0
 630 84 l 0
 630 -196 l 0
 378 -196 l 0
EndSplineSet
EndChar

StartChar: uni2508
Encoding: 9480 9480 194
Width: 1008
Flags: HW
LayerCount: 2
Fore
SplineSet
819 486 m 0
 819 570 l 0
 945 570 l 0
 945 486 l 0
 819 486 l 0
567 486 m 0
 567 570 l 0
 693 570 l 0
 693 486 l 0
 567 486 l 0
315 486 m 0
 315 570 l 0
 441 570 l 0
 441 486 l 0
 315 486 l 0
63 486 m 0
 63 570 l 0
 189 570 l 0
 189 486 l 0
 63 486 l 0
EndSplineSet
EndChar

StartChar: uni2509
Encoding: 9481 9481 195
Width: 1008
Flags: HW
LayerCount: 2
Fore
SplineSet
819 402 m 0
 819 654 l 0
 945 654 l 0
 945 402 l 0
 819 402 l 0
567 402 m 0
 567 654 l 0
 693 654 l 0
 693 402 l 0
 567 402 l 0
315 402 m 0
 315 654 l 0
 441 654 l 0
 441 402 l 0
 315 402 l 0
63 402 m 0
 63 654 l 0
 189 654 l 0
 189 402 l 0
 63 402 l 0
EndSplineSet
EndChar

StartChar: uni250A
Encoding: 9482 9482 196
Width: 1008
Flags: HW
LayerCount: 2
Fore
SplineSet
462 1029 m 0
 462 1239 l 0
 546 1239 l 0
 546 1029 l 0
 462 1029 l 0
462 609 m 0
 462 819 l 0
 546 819 l 0
 546 609 l 0
 462 609 l 0
462 189 m 0
 462 399 l 0
 546 399 l 0
 546 189 l 0
 462 189 l 0
462 -231 m 0
 462 -21 l 0
 546 -21 l 0
 546 -231 l 0
 462 -231 l 0
EndSplineSet
EndChar

StartChar: uni250B
Encoding: 9483 9483 197
Width: 1008
Flags: HW
LayerCount: 2
Fore
SplineSet
378 1029 m 0
 378 1239 l 0
 630 1239 l 0
 630 1029 l 0
 378 1029 l 0
378 609 m 0
 378 819 l 0
 630 819 l 0
 630 609 l 0
 378 609 l 0
378 189 m 0
 378 399 l 0
 630 399 l 0
 630 189 l 0
 378 189 l 0
378 -231 m 0
 378 -21 l 0
 630 -21 l 0
 630 -231 l 0
 378 -231 l 0
EndSplineSet
EndChar

StartChar: SF010000
Encoding: 9484 9484 198
Width: 1008
Flags: HW
LayerCount: 2
Fore
SplineSet
462 570 m 0
 1008 570 l 0
 1008 486 l 0
 546 486 l 0
 546 -336 l 0
 462 -336 l 0
 462 570 l 0
EndSplineSet
EndChar

StartChar: uni250D
Encoding: 9485 9485 199
Width: 1008
Flags: HW
LayerCount: 2
Fore
SplineSet
462 612 m 0
 1008 612 l 0
 1008 444 l 0
 546 444 l 0
 546 -336 l 0
 462 -336 l 0
 462 612 l 0
EndSplineSet
EndChar

StartChar: uni250E
Encoding: 9486 9486 200
Width: 1008
Flags: HW
LayerCount: 2
Fore
SplineSet
420 570 m 0
 1008 570 l 0
 1008 486 l 0
 588 486 l 0
 588 -336 l 0
 420 -336 l 0
 420 570 l 0
EndSplineSet
EndChar

StartChar: uni250F
Encoding: 9487 9487 201
Width: 1008
Flags: HW
LayerCount: 2
Fore
SplineSet
420 612 m 0
 1008 612 l 0
 1008 444 l 0
 588 444 l 0
 588 -336 l 0
 420 -336 l 0
 420 612 l 0
EndSplineSet
EndChar

StartChar: SF030000
Encoding: 9488 9488 202
Width: 1008
Flags: HW
LayerCount: 2
Fore
SplineSet
546 570 m 0
 0 570 l 0
 0 486 l 0
 462 486 l 0
 462 -336 l 0
 546 -336 l 0
 546 570 l 0
EndSplineSet
EndChar

StartChar: uni2511
Encoding: 9489 9489 203
Width: 1008
Flags: HW
LayerCount: 2
Fore
SplineSet
546 612 m 0
 0 612 l 0
 0 444 l 0
 462 444 l 0
 462 -336 l 0
 546 -336 l 0
 546 612 l 0
EndSplineSet
EndChar

StartChar: uni2512
Encoding: 9490 9490 204
Width: 1008
Flags: HW
LayerCount: 2
Fore
SplineSet
588 570 m 0
 0 570 l 0
 0 486 l 0
 420 486 l 0
 420 -336 l 0
 588 -336 l 0
 588 570 l 0
EndSplineSet
EndChar

StartChar: uni2513
Encoding: 9491 9491 205
Width: 1008
Flags: HW
LayerCount: 2
Fore
SplineSet
588 612 m 0
 0 612 l 0
 0 444 l 0
 420 444 l 0
 420 -336 l 0
 588 -336 l 0
 588 612 l 0
EndSplineSet
EndChar

StartChar: SF020000
Encoding: 9492 9492 206
Width: 1008
Flags: HW
LayerCount: 2
Fore
SplineSet
462 486 m 0
 1008 486 l 0
 1008 570 l 0
 546 570 l 0
 546 1344 l 0
 462 1344 l 0
 462 486 l 0
EndSplineSet
EndChar

StartChar: uni2515
Encoding: 9493 9493 207
Width: 1008
Flags: HW
LayerCount: 2
Fore
SplineSet
462 444 m 0
 1008 444 l 0
 1008 612 l 0
 546 612 l 0
 546 1344 l 0
 462 1344 l 0
 462 444 l 0
EndSplineSet
EndChar

StartChar: uni2516
Encoding: 9494 9494 208
Width: 1008
Flags: HW
LayerCount: 2
Fore
SplineSet
420 486 m 0
 1008 486 l 0
 1008 570 l 0
 588 570 l 0
 588 1344 l 0
 420 1344 l 0
 420 486 l 0
EndSplineSet
EndChar

StartChar: uni2517
Encoding: 9495 9495 209
Width: 1008
Flags: HW
LayerCount: 2
Fore
SplineSet
420 444 m 0
 1008 444 l 0
 1008 612 l 0
 588 612 l 0
 588 1344 l 0
 420 1344 l 0
 420 444 l 0
EndSplineSet
EndChar

StartChar: SF040000
Encoding: 9496 9496 210
Width: 1008
Flags: HW
LayerCount: 2
Fore
SplineSet
546 486 m 0
 0 486 l 0
 0 570 l 0
 462 570 l 0
 462 1344 l 0
 546 1344 l 0
 546 486 l 0
EndSplineSet
EndChar

StartChar: uni2519
Encoding: 9497 9497 211
Width: 1008
Flags: HW
LayerCount: 2
Fore
SplineSet
546 444 m 0
 0 444 l 0
 0 612 l 0
 462 612 l 0
 462 1344 l 0
 546 1344 l 0
 546 444 l 0
EndSplineSet
EndChar

StartChar: uni251A
Encoding: 9498 9498 212
Width: 1008
Flags: HW
LayerCount: 2
Fore
SplineSet
588 486 m 0
 0 486 l 0
 0 570 l 0
 420 570 l 0
 420 1344 l 0
 588 1344 l 0
 588 486 l 0
EndSplineSet
EndChar

StartChar: uni251B
Encoding: 9499 9499 213
Width: 1008
Flags: HW
LayerCount: 2
Fore
SplineSet
588 444 m 0
 0 444 l 0
 0 612 l 0
 420 612 l 0
 420 1344 l 0
 588 1344 l 0
 588 444 l 0
EndSplineSet
EndChar

StartChar: SF080000
Encoding: 9500 9500 214
Width: 1008
Flags: HW
LayerCount: 2
Fore
SplineSet
462 1344 m 0
 546 1344 l 0
 546 570 l 0
 1008 570 l 0
 1008 486 l 0
 546 486 l 0
 546 -336 l 0
 462 -336 l 0
 462 1344 l 0
EndSplineSet
EndChar

StartChar: uni251D
Encoding: 9501 9501 215
Width: 1008
Flags: HW
LayerCount: 2
Fore
SplineSet
462 1344 m 0
 546 1344 l 0
 546 654 l 0
 1008 654 l 0
 1008 402 l 0
 546 402 l 0
 546 -336 l 0
 462 -336 l 0
 462 1344 l 0
EndSplineSet
EndChar

StartChar: uni251E
Encoding: 9502 9502 216
Width: 1008
Flags: HW
LayerCount: 2
Fore
SplineSet
378 1344 m 0
 630 1344 l 0
 630 570 l 0
 1008 570 l 0
 1008 486 l 0
 546 486 l 0
 546 -336 l 0
 462 -336 l 0
 462 486 l 0
 378 486 l 0
 378 1344 l 0
EndSplineSet
EndChar

StartChar: uni251F
Encoding: 9503 9503 217
Width: 1008
Flags: HW
LayerCount: 2
Fore
SplineSet
462 1344 m 0
 546 1344 l 0
 546 570 l 0
 1008 570 l 0
 1008 486 l 0
 630 486 l 0
 630 -336 l 0
 378 -336 l 0
 378 570 l 0
 462 570 l 0
 462 1344 l 0
EndSplineSet
EndChar

StartChar: uni2520
Encoding: 9504 9504 218
Width: 1008
Flags: HW
LayerCount: 2
Fore
SplineSet
378 1344 m 0
 630 1344 l 0
 630 570 l 0
 1008 570 l 0
 1008 486 l 0
 630 486 l 0
 630 -336 l 0
 378 -336 l 0
 378 1344 l 0
EndSplineSet
EndChar

StartChar: uni2521
Encoding: 9505 9505 219
Width: 1008
Flags: HW
LayerCount: 2
Fore
SplineSet
378 1344 m 0
 630 1344 l 0
 630 654 l 0
 1008 654 l 0
 1008 402 l 0
 546 402 l 0
 546 -336 l 0
 462 -336 l 0
 462 402 l 0
 378 402 l 0
 378 1344 l 0
EndSplineSet
EndChar

StartChar: uni2522
Encoding: 9506 9506 220
Width: 1008
Flags: HW
LayerCount: 2
Fore
SplineSet
462 1344 m 0
 546 1344 l 0
 546 654 l 0
 1008 654 l 0
 1008 402 l 0
 630 402 l 0
 630 -336 l 0
 378 -336 l 0
 378 654 l 0
 462 654 l 0
 462 1344 l 0
EndSplineSet
EndChar

StartChar: uni2523
Encoding: 9507 9507 221
Width: 1008
Flags: HW
LayerCount: 2
Fore
SplineSet
378 1344 m 0
 630 1344 l 0
 630 654 l 0
 1008 654 l 0
 1008 402 l 0
 630 402 l 0
 630 -336 l 0
 378 -336 l 0
 378 1344 l 0
EndSplineSet
EndChar

StartChar: SF090000
Encoding: 9508 9508 222
Width: 1008
Flags: HW
LayerCount: 2
Fore
SplineSet
546 1344 m 0
 462 1344 l 0
 462 570 l 0
 0 570 l 0
 0 486 l 0
 462 486 l 0
 462 -336 l 0
 546 -336 l 0
 546 1344 l 0
EndSplineSet
EndChar

StartChar: uni2525
Encoding: 9509 9509 223
Width: 1008
Flags: HW
LayerCount: 2
Fore
SplineSet
546 1344 m 0
 462 1344 l 0
 462 654 l 0
 0 654 l 0
 0 402 l 0
 462 402 l 0
 462 -336 l 0
 546 -336 l 0
 546 1344 l 0
EndSplineSet
EndChar

StartChar: uni2526
Encoding: 9510 9510 224
Width: 1008
Flags: HW
LayerCount: 2
Fore
SplineSet
630 1344 m 0
 378 1344 l 0
 378 570 l 0
 0 570 l 0
 0 486 l 0
 462 486 l 0
 462 -336 l 0
 546 -336 l 0
 546 486 l 0
 630 486 l 0
 630 1344 l 0
EndSplineSet
EndChar

StartChar: uni2527
Encoding: 9511 9511 225
Width: 1008
Flags: HW
LayerCount: 2
Fore
SplineSet
546 1344 m 0
 462 1344 l 0
 462 570 l 0
 0 570 l 0
 0 486 l 0
 378 486 l 0
 378 -336 l 0
 630 -336 l 0
 630 570 l 0
 546 570 l 0
 546 1344 l 0
EndSplineSet
EndChar

StartChar: uni2528
Encoding: 9512 9512 226
Width: 1008
Flags: HW
LayerCount: 2
Fore
SplineSet
630 1344 m 0
 378 1344 l 0
 378 570 l 0
 0 570 l 0
 0 486 l 0
 378 486 l 0
 378 -336 l 0
 630 -336 l 0
 630 1344 l 0
EndSplineSet
EndChar

StartChar: uni2529
Encoding: 9513 9513 227
Width: 1008
Flags: HW
LayerCount: 2
Fore
SplineSet
630 1344 m 0
 378 1344 l 0
 378 654 l 0
 0 654 l 0
 0 402 l 0
 462 402 l 0
 462 -336 l 0
 546 -336 l 0
 546 402 l 0
 630 402 l 0
 630 1344 l 0
EndSplineSet
EndChar

StartChar: uni252A
Encoding: 9514 9514 228
Width: 1008
Flags: HW
LayerCount: 2
Fore
SplineSet
546 1344 m 0
 462 1344 l 0
 462 654 l 0
 0 654 l 0
 0 402 l 0
 378 402 l 0
 378 -336 l 0
 630 -336 l 0
 630 654 l 0
 546 654 l 0
 546 1344 l 0
EndSplineSet
EndChar

StartChar: uni252B
Encoding: 9515 9515 229
Width: 1008
Flags: HW
LayerCount: 2
Fore
SplineSet
630 1344 m 0
 378 1344 l 0
 378 654 l 0
 0 654 l 0
 0 402 l 0
 378 402 l 0
 378 -336 l 0
 630 -336 l 0
 630 1344 l 0
EndSplineSet
EndChar

StartChar: SF060000
Encoding: 9516 9516 230
Width: 1008
Flags: HW
LayerCount: 2
Fore
SplineSet
0 570 m 0
 1008 570 l 0
 1008 486 l 0
 546 486 l 0
 546 -336 l 0
 462 -336 l 0
 462 486 l 0
 0 486 l 0
 0 570 l 0
EndSplineSet
EndChar

StartChar: uni252D
Encoding: 9517 9517 231
Width: 1008
Flags: HW
LayerCount: 2
Fore
SplineSet
0 654 m 0
 546 654 l 0
 546 570 l 0
 1008 570 l 0
 1008 486 l 0
 546 486 l 0
 546 -336 l 0
 462 -336 l 0
 462 402 l 0
 0 402 l 0
 0 654 l 0
EndSplineSet
EndChar

StartChar: uni252E
Encoding: 9518 9518 232
Width: 1008
Flags: HW
LayerCount: 2
Fore
SplineSet
0 570 m 0
 462 570 l 0
 462 654 l 0
 1008 654 l 0
 1008 402 l 0
 546 402 l 0
 546 -336 l 0
 462 -336 l 0
 462 486 l 0
 0 486 l 0
 0 570 l 0
EndSplineSet
EndChar

StartChar: uni252F
Encoding: 9519 9519 233
Width: 1008
Flags: HW
LayerCount: 2
Fore
SplineSet
0 654 m 0
 1008 654 l 0
 1008 402 l 0
 546 402 l 0
 546 -336 l 0
 462 -336 l 0
 462 402 l 0
 0 402 l 0
 0 654 l 0
EndSplineSet
EndChar

StartChar: uni2530
Encoding: 9520 9520 234
Width: 1008
Flags: HW
LayerCount: 2
Fore
SplineSet
0 570 m 0
 1008 570 l 0
 1008 486 l 0
 630 486 l 0
 630 -336 l 0
 378 -336 l 0
 378 486 l 0
 0 486 l 0
 0 570 l 0
EndSplineSet
EndChar

StartChar: uni2531
Encoding: 9521 9521 235
Width: 1008
Flags: HW
LayerCount: 2
Fore
SplineSet
0 654 m 0
 630 654 l 0
 630 570 l 0
 1008 570 l 0
 1008 486 l 0
 630 486 l 0
 630 -336 l 0
 378 -336 l 0
 378 402 l 0
 0 402 l 0
 0 654 l 0
EndSplineSet
EndChar

StartChar: uni2532
Encoding: 9522 9522 236
Width: 1008
Flags: HW
LayerCount: 2
Fore
SplineSet
0 570 m 0
 378 570 l 0
 378 654 l 0
 1008 654 l 0
 1008 402 l 0
 630 402 l 0
 630 -336 l 0
 378 -336 l 0
 378 486 l 0
 0 486 l 0
 0 570 l 0
EndSplineSet
EndChar

StartChar: uni2533
Encoding: 9523 9523 237
Width: 1008
Flags: HW
LayerCount: 2
Fore
SplineSet
0 654 m 0
 1008 654 l 0
 1008 402 l 0
 630 402 l 0
 630 -336 l 0
 378 -336 l 0
 378 402 l 0
 0 402 l 0
 0 654 l 0
EndSplineSet
EndChar

StartChar: SF070000
Encoding: 9524 9524 238
Width: 1008
Flags: HW
LayerCount: 2
Fore
SplineSet
0 486 m 0
 1008 486 l 0
 1008 570 l 0
 546 570 l 0
 546 1344 l 0
 462 1344 l 0
 462 570 l 0
 0 570 l 0
 0 486 l 0
EndSplineSet
EndChar

StartChar: uni2535
Encoding: 9525 9525 239
Width: 1008
Flags: HW
LayerCount: 2
Fore
SplineSet
0 402 m 0
 546 402 l 0
 546 486 l 0
 1008 486 l 0
 1008 570 l 0
 546 570 l 0
 546 1344 l 0
 462 1344 l 0
 462 654 l 0
 0 654 l 0
 0 402 l 0
EndSplineSet
EndChar

StartChar: uni2536
Encoding: 9526 9526 240
Width: 1008
Flags: HW
LayerCount: 2
Fore
SplineSet
0 486 m 0
 462 486 l 0
 462 402 l 0
 1008 402 l 0
 1008 654 l 0
 546 654 l 0
 546 1344 l 0
 462 1344 l 0
 462 570 l 0
 0 570 l 0
 0 486 l 0
EndSplineSet
EndChar

StartChar: uni2537
Encoding: 9527 9527 241
Width: 1008
Flags: HW
LayerCount: 2
Fore
SplineSet
0 402 m 0
 1008 402 l 0
 1008 654 l 0
 546 654 l 0
 546 1344 l 0
 462 1344 l 0
 462 654 l 0
 0 654 l 0
 0 402 l 0
EndSplineSet
EndChar

StartChar: uni2538
Encoding: 9528 9528 242
Width: 1008
Flags: HW
LayerCount: 2
Fore
SplineSet
0 486 m 0
 1008 486 l 0
 1008 570 l 0
 630 570 l 0
 630 1344 l 0
 378 1344 l 0
 378 570 l 0
 0 570 l 0
 0 486 l 0
EndSplineSet
EndChar

StartChar: uni2539
Encoding: 9529 9529 243
Width: 1008
Flags: HW
LayerCount: 2
Fore
SplineSet
0 402 m 0
 630 402 l 0
 630 486 l 0
 1008 486 l 0
 1008 570 l 0
 630 570 l 0
 630 1344 l 0
 378 1344 l 0
 378 654 l 0
 0 654 l 0
 0 402 l 0
EndSplineSet
EndChar

StartChar: uni253A
Encoding: 9530 9530 244
Width: 1008
Flags: HW
LayerCount: 2
Fore
SplineSet
0 486 m 0
 378 486 l 0
 378 402 l 0
 1008 402 l 0
 1008 654 l 0
 630 654 l 0
 630 1344 l 0
 378 1344 l 0
 378 570 l 0
 0 570 l 0
 0 486 l 0
EndSplineSet
EndChar

StartChar: uni253B
Encoding: 9531 9531 245
Width: 1008
Flags: HW
LayerCount: 2
Fore
SplineSet
0 402 m 0
 1008 402 l 0
 1008 654 l 0
 630 654 l 0
 630 1344 l 0
 378 1344 l 0
 378 654 l 0
 0 654 l 0
 0 402 l 0
EndSplineSet
EndChar

StartChar: SF050000
Encoding: 9532 9532 246
Width: 1008
Flags: HW
LayerCount: 2
Fore
SplineSet
462 1344 m 0
 546 1344 l 0
 546 570 l 0
 1008 570 l 0
 1008 486 l 0
 546 486 l 0
 546 -336 l 0
 462 -336 l 0
 462 486 l 0
 0 486 l 0
 0 570 l 0
 462 570 l 0
 462 1344 l 0
EndSplineSet
EndChar

StartChar: uni253D
Encoding: 9533 9533 247
Width: 1008
Flags: HW
LayerCount: 2
Fore
SplineSet
462 1344 m 0
 546 1344 l 0
 546 570 l 0
 1008 570 l 0
 1008 486 l 0
 546 486 l 0
 546 -336 l 0
 462 -336 l 0
 462 402 l 0
 0 402 l 0
 0 654 l 0
 462 654 l 0
 462 1344 l 0
EndSplineSet
EndChar

StartChar: uni253E
Encoding: 9534 9534 248
Width: 1008
Flags: HW
LayerCount: 2
Fore
SplineSet
462 1344 m 0
 546 1344 l 0
 546 654 l 0
 1008 654 l 0
 1008 402 l 0
 546 402 l 0
 546 -336 l 0
 462 -336 l 0
 462 486 l 0
 0 486 l 0
 0 570 l 0
 462 570 l 0
 462 1344 l 0
EndSplineSet
EndChar

StartChar: uni253F
Encoding: 9535 9535 249
Width: 1008
Flags: HW
LayerCount: 2
Fore
SplineSet
462 1344 m 0
 546 1344 l 0
 546 654 l 0
 1008 654 l 0
 1008 402 l 0
 546 402 l 0
 546 -336 l 0
 462 -336 l 0
 462 402 l 0
 0 402 l 0
 0 654 l 0
 462 654 l 0
 462 1344 l 0
EndSplineSet
EndChar

StartChar: uni2540
Encoding: 9536 9536 250
Width: 1008
Flags: HW
LayerCount: 2
Fore
SplineSet
378 1344 m 0
 630 1344 l 0
 630 570 l 0
 1008 570 l 0
 1008 486 l 0
 546 486 l 0
 546 -336 l 0
 462 -336 l 0
 462 486 l 0
 0 486 l 0
 0 570 l 0
 378 570 l 0
 378 1344 l 0
EndSplineSet
EndChar

StartChar: uni2541
Encoding: 9537 9537 251
Width: 1008
Flags: HW
LayerCount: 2
Fore
SplineSet
462 1344 m 0
 546 1344 l 0
 546 570 l 0
 1008 570 l 0
 1008 486 l 0
 630 486 l 0
 630 -336 l 0
 378 -336 l 0
 378 486 l 0
 0 486 l 0
 0 570 l 0
 462 570 l 0
 462 1344 l 0
EndSplineSet
EndChar

StartChar: uni2542
Encoding: 9538 9538 252
Width: 1008
Flags: HW
LayerCount: 2
Fore
SplineSet
378 1344 m 0
 630 1344 l 0
 630 570 l 0
 1008 570 l 0
 1008 486 l 0
 630 486 l 0
 630 -336 l 0
 378 -336 l 0
 378 486 l 0
 0 486 l 0
 0 570 l 0
 378 570 l 0
 378 1344 l 0
EndSplineSet
EndChar

StartChar: uni2543
Encoding: 9539 9539 253
Width: 1008
Flags: HW
LayerCount: 2
Fore
SplineSet
378 1344 m 0
 630 1344 l 0
 630 570 l 0
 1008 570 l 0
 1008 486 l 0
 546 486 l 0
 546 -336 l 0
 462 -336 l 0
 462 402 l 0
 0 402 l 0
 0 654 l 0
 378 654 l 0
 378 1344 l 0
EndSplineSet
EndChar

StartChar: uni2544
Encoding: 9540 9540 254
Width: 1008
Flags: HW
LayerCount: 2
Fore
SplineSet
378 1344 m 0
 630 1344 l 0
 630 654 l 0
 1008 654 l 0
 1008 402 l 0
 546 402 l 0
 546 -336 l 0
 462 -336 l 0
 462 486 l 0
 0 486 l 0
 0 570 l 0
 378 570 l 0
 378 1344 l 0
EndSplineSet
EndChar

StartChar: uni2545
Encoding: 9541 9541 255
Width: 1008
Flags: HW
LayerCount: 2
Fore
SplineSet
462 1344 m 0
 546 1344 l 0
 546 570 l 0
 1008 570 l 0
 1008 486 l 0
 630 486 l 0
 630 -336 l 0
 378 -336 l 0
 378 402 l 0
 0 402 l 0
 0 654 l 0
 462 654 l 0
 462 1344 l 0
EndSplineSet
EndChar

StartChar: uni2546
Encoding: 9542 9542 256
Width: 1008
Flags: HW
LayerCount: 2
Fore
SplineSet
462 1344 m 0
 546 1344 l 0
 546 654 l 0
 1008 654 l 0
 1008 402 l 0
 630 402 l 0
 630 -336 l 0
 378 -336 l 0
 378 486 l 0
 0 486 l 0
 0 570 l 0
 462 570 l 0
 462 1344 l 0
EndSplineSet
EndChar

StartChar: uni2547
Encoding: 9543 9543 257
Width: 1008
Flags: HW
LayerCount: 2
Fore
SplineSet
378 1344 m 0
 630 1344 l 0
 630 654 l 0
 1008 654 l 0
 1008 402 l 0
 546 402 l 0
 546 -336 l 0
 462 -336 l 0
 462 402 l 0
 0 402 l 0
 0 654 l 0
 378 654 l 0
 378 1344 l 0
EndSplineSet
EndChar

StartChar: uni2548
Encoding: 9544 9544 258
Width: 1008
Flags: HW
LayerCount: 2
Fore
SplineSet
462 1344 m 0
 546 1344 l 0
 546 654 l 0
 1008 654 l 0
 1008 402 l 0
 630 402 l 0
 630 -336 l 0
 378 -336 l 0
 378 402 l 0
 0 402 l 0
 0 654 l 0
 462 654 l 0
 462 1344 l 0
EndSplineSet
EndChar

StartChar: uni2549
Encoding: 9545 9545 259
Width: 1008
Flags: HW
LayerCount: 2
Fore
SplineSet
378 1344 m 0
 630 1344 l 0
 630 570 l 0
 1008 570 l 0
 1008 486 l 0
 630 486 l 0
 630 -336 l 0
 378 -336 l 0
 378 402 l 0
 0 402 l 0
 0 654 l 0
 378 654 l 0
 378 1344 l 0
EndSplineSet
EndChar

StartChar: uni254A
Encoding: 9546 9546 260
Width: 1008
Flags: HW
LayerCount: 2
Fore
SplineSet
378 1344 m 0
 630 1344 l 0
 630 654 l 0
 1008 654 l 0
 1008 402 l 0
 630 402 l 0
 630 -336 l 0
 378 -336 l 0
 378 486 l 0
 0 486 l 0
 0 570 l 0
 378 570 l 0
 378 1344 l 0
EndSplineSet
EndChar

StartChar: uni254B
Encoding: 9547 9547 261
Width: 1008
Flags: HW
LayerCount: 2
Fore
SplineSet
378 1344 m 0
 630 1344 l 0
 630 654 l 0
 1008 654 l 0
 1008 402 l 0
 630 402 l 0
 630 -336 l 0
 378 -336 l 0
 378 402 l 0
 0 402 l 0
 0 654 l 0
 378 654 l 0
 378 1344 l 0
EndSplineSet
EndChar

StartChar: uni254C
Encoding: 9548 9548 262
Width: 1008
Flags: HW
LayerCount: 2
Fore
SplineSet
630 486 m 0
 630 570 l 0
 882 570 l 0
 882 486 l 0
 630 486 l 0
126 486 m 0
 126 570 l 0
 378 570 l 0
 378 486 l 0
 126 486 l 0
EndSplineSet
EndChar

StartChar: uni254D
Encoding: 9549 9549 263
Width: 1008
Flags: HW
LayerCount: 2
Fore
SplineSet
630 402 m 0
 630 654 l 0
 882 654 l 0
 882 402 l 0
 630 402 l 0
126 402 m 0
 126 654 l 0
 378 654 l 0
 378 402 l 0
 126 402 l 0
EndSplineSet
EndChar

StartChar: uni254E
Encoding: 9550 9550 264
Width: 1008
Flags: HW
LayerCount: 2
Fore
SplineSet
462 714 m 0
 462 1134 l 0
 546 1134 l 0
 546 714 l 0
 462 714 l 0
462 -126 m 0
 462 294 l 0
 546 294 l 0
 546 -126 l 0
 462 -126 l 0
EndSplineSet
EndChar

StartChar: uni254F
Encoding: 9551 9551 265
Width: 1008
Flags: HW
LayerCount: 2
Fore
SplineSet
378 714 m 0
 378 1134 l 0
 630 1134 l 0
 630 714 l 0
 378 714 l 0
378 -126 m 0
 378 294 l 0
 630 294 l 0
 630 -126 l 0
 378 -126 l 0
EndSplineSet
EndChar

StartChar: SF430000
Encoding: 9552 9552 266
Width: 1008
Flags: HW
LayerCount: 2
Fore
SplineSet
1008 612 m 1
 0 612 l 1
 0 696 l 1
 1008 696 l 1
 1008 612 l 1
1008 360 m 1
 0 360 l 1
 0 444 l 1
 1008 444 l 1
 1008 360 l 1
EndSplineSet
EndChar

StartChar: SF240000
Encoding: 9553 9553 267
Width: 1008
Flags: HW
LayerCount: 2
Fore
SplineSet
672 1344 m 1
 672 -336 l 1
 588 -336 l 1
 588 1344 l 1
 672 1344 l 1
420 1344 m 1
 420 -336 l 1
 336 -336 l 1
 336 1344 l 1
 420 1344 l 1
EndSplineSet
EndChar

StartChar: SF510000
Encoding: 9554 9554 268
Width: 1008
Flags: HW
LayerCount: 2
Fore
SplineSet
1008 570 m 1
 1008 486 l 2
 1008 486 672 486 672 486 c 1
 672 -336 l 1
 588 -336 l 1
 588 486 l 1
 420 486 l 1
 420 -336 l 1
 336 -336 l 1
 336 528 l 2
 336 551.18043 354.81957 570 378 570 c 0
 1008 570 1008 570 1008 570 c 1
EndSplineSet
EndChar

StartChar: SF520000
Encoding: 9555 9555 269
Width: 1008
Flags: HW
LayerCount: 2
Fore
SplineSet
1008 612 m 1
 546 612 l 1
 546 444 l 1
 1008 444 l 1
 1008 360 l 1
 546 360 l 1
 546 -336 l 1
 462 -336 l 1
 462 654 l 2
 462 677.18043 480.81957 696 504 696 c 2
 1008 696 l 1
 1008 612 l 1
EndSplineSet
EndChar

StartChar: SF390000
Encoding: 9556 9556 270
Width: 1008
Flags: HW
LayerCount: 2
Fore
SplineSet
336 -336 m 1
 336 654 l 2
 336 677.18043 354.81957 696 378 696 c 2
 1008 696 l 1
 1008 612 l 1
 420 612 l 1
 420 -336 l 1
 336 -336 l 1
588 -336 m 1
 588 402 l 2
 588 425.18043 606.81957 444 630 444 c 2
 1008 444 l 1
 1008 360 l 1
 672 360 l 1
 672 -336 l 1
 588 -336 l 1
EndSplineSet
EndChar

StartChar: SF220000
Encoding: 9557 9557 271
Width: 1008
Flags: HW
LayerCount: 2
Fore
SplineSet
0 486 m 1
 0 570 l 1
 630 570 l 2
 653.18043 570 672 551.18043 672 528 c 2
 672 -336 l 1
 588 -336 l 1
 588 486 l 1
 420 486 l 1
 420 -336 l 1
 336 -336 l 1
 336 486 l 1
 0 486 l 1
EndSplineSet
EndChar

StartChar: SF210000
Encoding: 9558 9558 272
Width: 1008
Flags: HW
LayerCount: 2
Fore
SplineSet
462 -336 m 1
 462 360 l 1
 0 360 l 1
 0 444 l 1
 462 444 l 1
 462 612 l 1
 0 612 l 1
 0 696 l 1
 504 696 l 2
 527.18043 696 546 677.18043 546 654 c 0
 546 -336 546 -336 546 -336 c 1
 462 -336 l 1
EndSplineSet
EndChar

StartChar: SF250000
Encoding: 9559 9559 273
Width: 1008
Flags: HW
LayerCount: 2
Fore
SplineSet
588 -336 m 1
 588 612 l 1
 0 612 l 1
 0 696 l 1
 630 696 l 2
 653.18043 696 672 677.18043 672 654 c 2
 672 -336 l 1
 588 -336 l 1
336 -336 m 1
 336 360 l 1
 0 360 l 1
 0 444 l 1
 378 444 l 2
 401.18043 444 420 425.18043 420 402 c 2
 420 -336 l 1
 336 -336 l 1
EndSplineSet
EndChar

StartChar: SF500000
Encoding: 9560 9560 274
Width: 1008
Flags: HW
LayerCount: 2
Fore
SplineSet
1008 570 m 1
 1008 486 l 2
 1008 486 378 486 378 486 c 2
 354.81957 486 336 504.81957 336 528 c 2
 336 1344 l 1
 420 1344 l 1
 420 570 l 1
 588 570 l 1
 588 1344 l 1
 672 1344 l 1
 672 570 l 1
 1008 570 l 1
EndSplineSet
EndChar

StartChar: SF490000
Encoding: 9561 9561 275
Width: 1008
Flags: HW
LayerCount: 2
Fore
SplineSet
546 1344 m 1
 546 696 l 1
 1008 696 l 1
 1008 612 l 1
 546 612 l 1
 546 444 l 1
 1008 444 l 1
 1008 360 l 1
 504 360 l 2
 480.81957 360 462 378.81957 462 402 c 0
 462 1344 462 1344 462 1344 c 1
 546 1344 l 1
EndSplineSet
EndChar

StartChar: SF380000
Encoding: 9562 9562 276
Width: 1008
Flags: HW
LayerCount: 2
Fore
SplineSet
420 1344 m 1
 420 444 l 1
 1008 444 l 1
 1008 360 l 1
 378 360 l 2
 354.81957 360 336 378.81957 336 402 c 2
 336 1344 l 1
 420 1344 l 1
672 1344 m 1
 672 696 l 1
 1008 696 l 1
 1008 612 l 1
 630 612 l 2
 606.81957 612 588 630.81957 588 654 c 2
 588 1344 l 1
 672 1344 l 1
EndSplineSet
EndChar

StartChar: SF280000
Encoding: 9563 9563 277
Width: 1008
Flags: HW
LayerCount: 2
Fore
SplineSet
0 486 m 1
 0 570 l 1
 336 570 l 1
 336 1344 l 1
 420 1344 l 1
 420 570 l 1
 588 570 l 1
 588 1344 l 1
 672 1344 l 1
 672 528 l 2
 672 504.81957 653.18043 486 630 486 c 0
 0 486 0 486 0 486 c 1
EndSplineSet
EndChar

StartChar: SF270000
Encoding: 9564 9564 278
Width: 1008
Flags: HW
LayerCount: 2
Fore
SplineSet
0 444 m 1
 462 444 l 1
 462 612 l 1
 0 612 l 1
 0 696 l 1
 462 696 l 1
 462 1344 l 1
 546 1344 l 1
 546 402 l 2
 546 378.81957 527.18043 360 504 360 c 2
 0 360 l 1
 0 444 l 1
EndSplineSet
EndChar

StartChar: SF260000
Encoding: 9565 9565 279
Width: 1008
Flags: HW
LayerCount: 2
Fore
SplineSet
672 1344 m 1
 672 402 l 2
 672 378.81957 653.18043 360 630 360 c 2
 0 360 l 1
 0 444 l 1
 588 444 l 1
 588 1344 l 1
 672 1344 l 1
420 1344 m 1
 420 654 l 2
 420 630.81957 401.18043 612 378 612 c 2
 0 612 l 1
 0 696 l 1
 336 696 l 1
 336 1344 l 1
 420 1344 l 1
EndSplineSet
EndChar

StartChar: SF360000
Encoding: 9566 9566 280
Width: 1008
Flags: HW
LayerCount: 2
Fore
SplineSet
1008 360 m 1
 546 360 l 1
 546 -336 l 1
 462 -336 l 1
 462 1344 l 1
 546 1344 l 1
 546 696 l 1
 1008 696 l 1
 1008 612 l 1
 546 612 l 1
 546 444 l 1
 1008 444 l 1
 1008 360 l 1
EndSplineSet
EndChar

StartChar: SF370000
Encoding: 9567 9567 281
Width: 1008
Flags: HW
LayerCount: 2
Fore
SplineSet
588 -336 m 1
 588 1344 l 1
 672 1344 l 1
 672 570 l 1
 1008 570 l 1
 1008 486 l 2
 1008 486 672 486 672 486 c 1
 672 -336 l 1
 588 -336 l 1
336 -336 m 1
 336 1344 l 1
 420 1344 l 1
 420 -336 l 1
 336 -336 l 1
EndSplineSet
EndChar

StartChar: SF420000
Encoding: 9568 9568 282
Width: 1008
Flags: HW
LayerCount: 2
Fore
SplineSet
1008 360 m 1
 672 360 l 1
 672 -336 l 1
 588 -336 l 1
 588 402 l 2
 588 425.18043 606.81957 444 630 444 c 2
 1008 444 l 1
 1008 360 l 1
672 1344 m 1
 672 696 l 1
 1008 696 l 1
 1008 612 l 1
 630 612 l 2
 606.81957 612 588 630.81957 588 654 c 2
 588 1344 l 1
 672 1344 l 1
420 1344 m 1
 420 -336 l 1
 336 -336 l 1
 336 1344 l 1
 420 1344 l 1
EndSplineSet
EndChar

StartChar: SF190000
Encoding: 9569 9569 283
Width: 1008
Flags: HW
LayerCount: 2
Fore
SplineSet
546 1344 m 1
 546 -336 l 1
 462 -336 l 1
 462 360 l 1
 0 360 l 1
 0 444 l 1
 462 444 l 1
 462 612 l 1
 0 612 l 1
 0 696 l 1
 462 696 l 1
 462 1344 l 1
 546 1344 l 1
EndSplineSet
EndChar

StartChar: SF200000
Encoding: 9570 9570 284
Width: 1008
Flags: HW
LayerCount: 2
Fore
SplineSet
588 -336 m 1
 588 1344 l 1
 672 1344 l 1
 672 -336 l 1
 588 -336 l 1
0 570 m 1
 336 570 l 1
 336 1344 l 1
 420 1344 l 1
 420 -336 420 -336 420 -336 c 1
 336 -336 l 1
 336 486 l 1
 0 486 l 1
 0 570 l 1
EndSplineSet
EndChar

StartChar: SF230000
Encoding: 9571 9571 285
Width: 1008
Flags: HW
LayerCount: 2
Fore
SplineSet
672 1344 m 1
 672 -336 l 1
 588 -336 l 1
 588 1344 l 1
 672 1344 l 1
336 -336 m 1
 336 360 l 1
 0 360 l 1
 0 444 l 1
 378 444 l 2
 401.18043 444 420 425.18043 420 402 c 2
 420 -336 l 1
 336 -336 l 1
420 1344 m 1
 420 654 l 2
 420 630.81957 401.18043 612 378 612 c 2
 0 612 l 1
 0 696 l 1
 336 696 l 1
 336 1344 l 1
 420 1344 l 1
EndSplineSet
EndChar

StartChar: SF470000
Encoding: 9572 9572 286
Width: 1008
Flags: HW
LayerCount: 2
Fore
SplineSet
462 -336 m 1
 462 360 l 1
 0 360 l 1
 0 444 l 1
 1008 444 1008 444 1008 444 c 1
 1008 360 l 1
 546 360 l 1
 546 -336 l 1
 462 -336 l 1
1008 612 m 1
 0 612 l 1
 0 696 l 1
 1008 696 l 1
 1008 612 l 1
EndSplineSet
EndChar

StartChar: SF480000
Encoding: 9573 9573 287
Width: 1008
Flags: HW
LayerCount: 2
Fore
SplineSet
336 -336 m 1
 336 486 l 1
 0 486 l 1
 0 570 l 1
 1008 570 l 1
 1008 486 l 2
 1008 486 672 486 672 486 c 1
 672 -336 l 1
 588 -336 l 1
 588 486 l 1
 420 486 l 1
 420 -336 l 1
 336 -336 l 1
EndSplineSet
EndChar

StartChar: SF410000
Encoding: 9574 9574 288
Width: 1008
Flags: HW
LayerCount: 2
Fore
SplineSet
1008 360 m 1
 672 360 l 1
 672 -336 l 1
 588 -336 l 1
 588 402 l 2
 588 425.18043 606.81957 444 630 444 c 2
 1008 444 l 1
 1008 360 l 1
336 -336 m 1
 336 360 l 1
 0 360 l 1
 0 444 l 1
 378 444 l 2
 401.18043 444 420 425.18043 420 402 c 2
 420 -336 l 1
 336 -336 l 1
1008 612 m 1
 0 612 l 1
 0 696 l 1
 1008 696 l 1
 1008 612 l 1
EndSplineSet
EndChar

StartChar: SF450000
Encoding: 9575 9575 289
Width: 1008
Flags: HW
LayerCount: 2
Fore
SplineSet
1008 360 m 1
 0 360 l 1
 0 444 l 1
 1008 444 l 1
 1008 360 l 1
1008 612 m 1
 0 612 0 612 0 612 c 1
 0 696 l 1
 462 696 l 1
 462 1344 l 1
 546 1344 l 1
 546 696 l 1
 1008 696 l 1
 1008 612 l 1
EndSplineSet
EndChar

StartChar: SF460000
Encoding: 9576 9576 290
Width: 1008
Flags: HW
LayerCount: 2
Fore
SplineSet
1008 486 m 2
 1008 486 0 486 0 486 c 1
 0 570 l 1
 336 570 l 1
 336 1344 l 1
 420 1344 l 1
 420 570 l 1
 588 570 l 1
 588 1344 l 1
 672 1344 l 1
 672 570 l 1
 1008 570 l 1
 1008 486 l 2
EndSplineSet
EndChar

StartChar: SF400000
Encoding: 9577 9577 291
Width: 1008
Flags: HW
LayerCount: 2
Fore
SplineSet
672 1344 m 1
 672 696 l 1
 1008 696 l 1
 1008 612 l 1
 630 612 l 2
 606.81957 612 588 630.81957 588 654 c 2
 588 1344 l 1
 672 1344 l 1
1008 360 m 1
 0 360 l 1
 0 444 l 1
 1008 444 l 1
 1008 360 l 1
420 1344 m 1
 420 654 l 2
 420 630.81957 401.18043 612 378 612 c 2
 0 612 l 1
 0 696 l 1
 336 696 l 1
 336 1344 l 1
 420 1344 l 1
EndSplineSet
EndChar

StartChar: SF540000
Encoding: 9578 9578 292
Width: 1008
Flags: HW
LayerCount: 2
Fore
SplineSet
1008 360 m 1
 546 360 l 1
 546 -336 l 1
 462 -336 l 1
 462 360 l 1
 0 360 l 1
 0 444 l 1
 462 444 l 1
 462 612 l 1
 0 612 l 1
 0 696 l 1
 462 696 l 1
 462 1344 l 1
 546 1344 l 1
 546 696 l 1
 1008 696 l 1
 1008 612 l 1
 546 612 l 1
 546 444 l 1
 1008 444 l 1
 1008 360 l 1
EndSplineSet
EndChar

StartChar: SF530000
Encoding: 9579 9579 293
Width: 1008
Flags: HW
LayerCount: 2
Fore
SplineSet
336 -336 m 1
 336 486 l 1
 0 486 l 1
 0 570 l 1
 336 570 l 1
 336 1344 l 1
 420 1344 l 1
 420 570 l 1
 588 570 l 1
 588 1344 l 1
 672 1344 l 1
 672 570 l 1
 1008 570 l 1
 1008 486 l 2
 1008 486 672 486 672 486 c 1
 672 -336 l 1
 588 -336 l 1
 588 486 l 1
 420 486 l 1
 420 -336 l 1
 336 -336 l 1
EndSplineSet
EndChar

StartChar: SF440000
Encoding: 9580 9580 294
Width: 1008
Flags: HW
LayerCount: 2
Fore
SplineSet
1008 360 m 1
 672 360 l 1
 672 -336 l 1
 588 -336 l 1
 588 402 l 2
 588 425.18043 606.81957 444 630 444 c 2
 1008 444 l 1
 1008 360 l 1
672 1344 m 1
 672 696 l 1
 1008 696 l 1
 1008 612 l 1
 630 612 l 2
 606.81957 612 588 630.81957 588 654 c 2
 588 1344 l 1
 672 1344 l 1
336 -336 m 1
 336 360 l 1
 0 360 l 1
 0 444 l 1
 378 444 l 2
 401.18043 444 420 425.18043 420 402 c 2
 420 -336 l 1
 336 -336 l 1
420 1344 m 1
 420 654 l 2
 420 630.81957 401.18043 612 378 612 c 2
 0 612 l 1
 0 696 l 1
 336 696 l 1
 336 1344 l 1
 420 1344 l 1
EndSplineSet
EndChar

StartChar: uni256D
Encoding: 9581 9581 295
Width: 1008
Flags: HW
LayerCount: 2
Fore
SplineSet
705.6 486 m 2
 638.88835178 486 546 393.384557384 546 326.4 c 2
 546 -336 l 1
 462 -336 l 1
 462 326.4 l 2
 462 440.322022949 592.038095202 570 705.6 570 c 2
 1008 570 l 1
 1008 486 l 2
 1008 486 705.6 486 705.6 486 c 2
EndSplineSet
EndChar

StartChar: uni256E
Encoding: 9582 9582 296
Width: 1008
Flags: HW
LayerCount: 2
Fore
SplineSet
302.4 570 m 2
 416.322022949 570 546 439.961904798 546 326.4 c 2
 546 -336 l 1
 462 -336 l 1
 462 326.4 l 2
 462 393.11164822 369.384557384 486 302.4 486 c 2
 302.4 486 0 486 0 486 c 2
 0 570 l 1
 302.4 570 l 2
EndSplineSet
EndChar

StartChar: uni256F
Encoding: 9583 9583 297
Width: 1008
Flags: HW
LayerCount: 2
Fore
SplineSet
302.4 570 m 2
 369.11164822 570 462 662.615442616 462 729.6 c 2
 462 1344 l 1
 546 1344 l 1
 546 729.6 l 2
 546 616.032824172 416.316756925 486 302.4 486 c 2
 302.4 486 0 486 0 486 c 2
 0 570 l 1
 302.4 570 l 2
EndSplineSet
EndChar

StartChar: uni2570
Encoding: 9584 9584 298
Width: 1008
Flags: HW
LayerCount: 2
Fore
SplineSet
705.6 486 m 2
 592.032824172 486 462 615.683243075 462 729.6 c 2
 462 1344 l 1
 546 1344 l 1
 546 729.6 l 2
 546 662.88835178 638.615442616 570 705.6 570 c 2
 1008 570 l 1
 1008 486 l 2
 1008 486 705.6 486 705.6 486 c 2
EndSplineSet
EndChar

